{
.appVersion = "939";
copyright = "Copyright 2011 Google Inc. All Rights Reserved.";
customParameters = (
{
name = license;
value = "Licensed under the Apache License, Version 2.0";
},
{
name = licenseURL;
value = "http://www.apache.org/licenses/LICENSE-2.0";
},
{
name = vendorID;
value = GOOG;
},
{
name = panose;
value = (
2,
0,
0,
0,
0,
0,
0,
0,
0,
0
);
},
{
name = unicodeRanges;
value = (
0,
1,
2,
3,
4,
5,
6,
7,
9,
29,
30,
31,
32,
33,
34,
35,
36,
37,
38,
40,
45,
60,
62,
64,
69
);
},
{
name = codePageRanges;
value = (
1252,
1250,
1251,
1253,
1254,
1257,
1258
);
},
{
name = glyphOrder;
value = (
.notdef,
uni0000,
uni0002,
uni0009,
uni000D,
space,
exclam,
quotedbl,
numbersign,
dollar,
percent,
ampersand,
quotesingle,
parenleft,
parenright,
asterisk,
plus,
comma,
hyphen,
period,
slash,
zero,
one,
two,
three,
four,
five,
six,
seven,
eight,
nine,
colon,
semicolon,
less,
equal,
greater,
question,
at,
A,
B,
C,
D,
E,
F,
G,
H,
I,
J,
K,
L,
M,
N,
O,
P,
Q,
R,
S,
T,
U,
V,
W,
X,
Y,
Z,
bracketleft,
backslash,
bracketright,
asciicircum,
underscore,
grave,
a,
b,
c,
d,
e,
f,
g,
h,
i,
j,
k,
l,
m,
n,
o,
p,
q,
r,
s,
t,
u,
v,
w,
x,
y,
z,
braceleft,
bar,
braceright,
asciitilde,
exclamdown,
cent,
sterling,
currency,
yen,
brokenbar,
section,
dieresis,
copyright,
ordfeminine,
guillemotleft,
logicalnot,
registered,
macron,
degree,
plusminus,
twosuperior,
threesuperior,
acute,
mu,
paragraph,
periodcentered,
cedilla,
onesuperior,
ordmasculine,
guillemotright,
onequarter,
onehalf,
threequarters,
questiondown,
AE,
multiply,
Oslash,
Thorn,
germandbls,
ae,
eth,
divide,
oslash,
thorn,
dcroat,
Hbar,
dotlessi,
kgreenlandic,
Lslash,
lslash,
Eng,
eng,
OE,
oe,
longs,
uni0180,
uni0181,
uni0182,
uni0183,
uni0184,
uni0185,
uni0186,
uni0187,
uni0188,
uni0189,
uni018A,
uni018B,
uni018C,
uni018D,
uni018E,
uni018F,
uni0190,
uni0191,
florin,
uni0193,
uni0194,
uni0195,
uni0197,
uni0198,
uni0199,
uni019A,
uni019B,
uni019C,
uni019D,
Ohorn,
ohorn,
uni01A2,
uni01A3,
uni01A4,
uni01A5,
uni01A6,
uni01A7,
uni01A8,

glyphs = (
{
glyphname = .notdef;
lastChange = "2017-05-19 14:51:26 +0000";
layers = (
{
layerId = "3E4CAA31-52BF-436B-A4FF-501363857ACF";
paths = (
{
closed = 1;
nodes = (
"808 1456 LINE",
"100 1456 LINE",
"100 0 LINE",
"808 0 LINE"
);
},
{
closed = 1;
nodes = (
"452 796 LINE",
"194 1402 LINE",
"709 1402 LINE"
);
},
{
closed = 1;
nodes = (
"754 84 LINE",
"480 728 LINE",
"754 1372 LINE"
);
},
{
closed = 1;
nodes = (
"154 96 LINE",
"154 1360 LINE",
"422 728 LINE"
);
},
{
closed = 1;
nodes = (
"709 54 LINE",
"194 54 LINE",
"452 660 LINE"
);
}
);
width = 918;
}
);
note = .notdef;
},
{
glyphname = exclam;
lastChange = "2017-05-19 14:51:26 +0000";
layers = (
{
layerId = "3E4CAA31-52BF-436B-A4FF-501363857ACF";
paths = (
{
closed = 1;
nodes = (
"133 448 LINE",
"369 448 LINE",
"576 1456 LINE",
"276 1456 LINE"
);
},
{
closed = 1;
nodes = (
"41 43 OFFCURVE",
"113 -19 OFFCURVE",
"200 -18 CURVE SMOOTH",
"289 -15 OFFCURVE",
"358 51 OFFCURVE",
"355 142 CURVE SMOOTH",
"352 230 OFFCURVE",
"283 292 OFFCURVE",
"195 291 CURVE SMOOTH",
"106 290 OFFCURVE",
"37 222 OFFCURVE",
"40 131 CURVE SMOOTH"
);
}
);
width = 540;
}
);
note = exclam;
unicode = 0021;
},
{
glyphname = quotedbl;
lastChange = "2017-05-19 14:51:26 +0000";
layers = (
{
layerId = "3E4CAA31-52BF-436B-A4FF-501363857ACF";
paths = (
{
closed = 1;
nodes = (
"524 1537 LINE",
"438 987 LINE",
"598 987 LINE",
"697 1383 LINE",
"721 1537 LINE"
);
},
{
closed = 1;
nodes = (
"208 1537 LINE",
"121 987 LINE",
"283 987 LINE",
"381 1383 LINE",
"406 1537 LINE"
);
}
);
width = 637;
}
);
leftKerningGroup = quotedbl;
note = quotedbl;
rightKerningGroup = quotedbl;
unicode = 0022;
},
{
glyphname = numbersign;
lastChange = "2017-05-19 14:51:26 +0000";
layers = (
{
layerId = "3E4CAA31-52BF-436B-A4FF-501363857ACF";
paths = (
{
closed = 1;
nodes = (
"796 410 LINE",
"1039 410 LINE",
"1070 583 LINE",
"855 583 LINE",
"953 867 LINE",
"1192 867 LINE",
"1222 1040 LINE",
"1013 1040 LINE",
"1156 1456 LINE",
"970 1456 LINE",
"826 1040 LINE",
"647 1040 LINE",
"790 1456 LINE",
"606 1456 LINE",
"462 1040 LINE",
"211 1040 LINE",
"180 867 LINE",
"403 867 LINE",
"305 583 LINE",
"59 583 LINE",
"28 410 LINE",
"246 410 LINE",
"104 0 LINE",
"290 0 LINE",
"431 410 LINE",
"611 410 LINE",
"469 0 LINE",
"655 0 LINE"
);
},
{
closed = 1;
nodes = (
"768 867 LINE",
"669 583 LINE",
"490 583 LINE",
"588 867 LINE"
);
}
);
width = 1184;
}
);
note = numbersign;
unicode = 0023;
},
{
glyphname = dollar;
lastChange = "2017-05-19 14:51:26 +0000";
layers = (
{
layerId = "3E4CAA31-52BF-436B-A4FF-501363857ACF";
paths = (
{
closed = 1;
nodes = (
"1028 634 OFFCURVE",
"868 750 OFFCURVE",
"647 855 CURVE SMOOTH",
"543 904 OFFCURVE",
"480 956 OFFCURVE",
"495 1064 CURVE SMOOTH",
"510 1169 OFFCURVE",
"582 1248 OFFCURVE",
"693 1245 CURVE SMOOTH",
"824 1242 OFFCURVE",
"838 1109 OFFCURVE",
"833 1006 CURVE",
"1116 1005 LINE",
"1121 1221 OFFCURVE",
"1038 1420 OFFCURVE",
"810 1468 CURVE",
"851 1688 LINE",
"695 1688 LINE",
"654 1473 LINE",
"421 1449 OFFCURVE",
"230 1310 OFFCURVE",
"215 1062 CURVE SMOOTH",
"199 813 OFFCURVE",
"376 698 OFFCURVE",
"580 606 CURVE SMOOTH",
"677 562 OFFCURVE",
"751 507 OFFCURVE",
"734 391 CURVE SMOOTH",
"718 279 OFFCURVE",
"628 211 OFFCURVE",
"516 212 CURVE SMOOTH",
"373 213 OFFCURVE",
"338 334 OFFCURVE",
"343 457 CURVE",
"61 458 LINE",
"54 215 OFFCURVE",
"166 24 OFFCURVE",
"417 -15 CURVE",
"378 -215 LINE",
"534 -215 LINE",
"573 -16 LINE",
"808 8 OFFCURVE",
"998 142 OFFCURVE",
"1013 393 CURVE SMOOTH"
);
}
);
width = 1140;
}
);
note = dollar;
unicode = 0024;
},
{
glyphname = percent;
lastChange = "2017-05-19 14:51:26 +0000";
layers = (
{
layerId = "3E4CAA31-52BF-436B-A4FF-501363857ACF";
paths = (
{
closed = 1;
nodes = (
"172 926 OFFCURVE",
"290 803 OFFCURVE",
"463 800 CURVE SMOOTH",
"646 796 OFFCURVE",
"780 918 OFFCURVE",
"796 1099 CURVE SMOOTH",
"803 1176 LINE",
"812 1351 OFFCURVE",
"700 1474 OFFCURVE",
"524 1478 CURVE SMOOTH",
"340 1482 OFFCURVE",
"204 1357 OFFCURVE",
"187 1176 CURVE SMOOTH",
"181 1099 LINE SMOOTH"
);
},
{
closed = 1;
nodes = (
"245 196 LINE",
"384 111 LINE",
"1260 1237 LINE",
"1123 1320 LINE"
);
},
{
closed = 1;
nodes = (
"392 1249 OFFCURVE",
"444 1314 OFFCURVE",
"524 1311 CURVE SMOOTH",
"600 1308 OFFCURVE",
"623 1243 OFFCURVE",
"616 1178 CURVE SMOOTH",
"605 1099 LINE SMOOTH",
"593 1027 OFFCURVE",
"542 965 OFFCURVE",
"463 966 CURVE SMOOTH",
"387 969 OFFCURVE",
"364 1030 OFFCURVE",
"369 1097 CURVE",
"380 1176 LINE SMOOTH"
);
},
{
closed = 1;
nodes = (
"706 105 OFFCURVE",
"822 -17 OFFCURVE",
"997 -21 CURVE SMOOTH",
"1181 -25 OFFCURVE",
"1314 99 OFFCURVE",
"1331 280 CURVE SMOOTH",
"1337 357 LINE SMOOTH",
"1346 532 OFFCURVE",
"1232 653 OFFCURVE",
"1057 657 CURVE SMOOTH",
"874 661 OFFCURVE",
"736 537 OFFCURVE",
"720 356 CURVE SMOOTH",
"714 280 LINE SMOOTH"
);
},
{
closed = 1;
nodes = (
"926 430 OFFCURVE",
"978 494 OFFCURVE",
"1058 491 CURVE SMOOTH",
"1133 490 OFFCURVE",
"1157 424 OFFCURVE",
"1150 359 CURVE SMOOTH",
"1140 280 LINE SMOOTH",
"1128 204 OFFCURVE",
"1081 143 OFFCURVE",
"998 146 CURVE SMOOTH",
"925 149 OFFCURVE",
"899 213 OFFCURVE",
"904 277 CURVE",
"914 357 LINE"
);
}
);
width = 1467;
}
);
note = percent;
unicode = 0025;
},
{
glyphname = ampersand;
lastChange = "2017-05-19 14:51:26 +0000";
layers = (
{
layerId = "3E4CAA31-52BF-436B-A4FF-501363857ACF";
paths = (
{
closed = 1;
nodes = (
"1015 248 LINE",
"1130 371 OFFCURVE",
"1193 527 OFFCURVE",
"1206 715 CURVE",
"968 715 LINE",
"957 623 OFFCURVE",
"923 537 OFFCURVE",
"867 456 CURVE",
"678 739 LINE",
"798 817 LINE SMOOTH",
"913 896 OFFCURVE",
"1012 1000 OFFCURVE",
"1019 1145 CURVE SMOOTH",
"1028 1337 OFFCURVE",
"878 1473 OFFCURVE",
"691 1477 CURVE SMOOTH",
"458 1482 OFFCURVE",
"281 1318 OFFCURVE",
"266 1086 CURVE SMOOTH",
"258 973 OFFCURVE",
"305 874 OFFCURVE",
"352 774 CURVE",
"277 729 OFFCURVE",
"208 676 OFFCURVE",
"143 617 CURVE SMOOTH",
"14 497 OFFCURVE",
"-16 232 OFFCURVE",
"150 90 CURVE SMOOTH",
"316 -52 OFFCURVE",
"586 -59 OFFCURVE",
"825 85 CURVE",
"880 0 LINE",
"1182 0 LINE"
);
},
{
closed = 1;
nodes = (
"525 1174 OFFCURVE",
"589 1246 OFFCURVE",
"677 1245 CURVE SMOOTH",
"744 1244 OFFCURVE",
"786 1194 OFFCURVE",
"778 1129 CURVE SMOOTH",
"767 1050 OFFCURVE",
"709 1000 OFFCURVE",
"646 960 CURVE SMOOTH",
"563 910 LINE",
"534 965 OFFCURVE",
"502 1026 OFFCURVE",
"513 1091 CURVE SMOOTH"
);
},
{
closed = 1;
nodes = (
"336 473 OFFCURVE",
"376 536 OFFCURVE",
"446 587 CURVE",
"470 602 LINE",
"686 274 LINE",
"604 232 OFFCURVE",
"534 212 OFFCURVE",
"476 213 CURVE SMOOTH",
"369 216 OFFCURVE",
"311 296 OFFCURVE",
"326 400 CURVE SMOOTH"
);
}
);
width = 1304;
}
);
note = ampersand;
unicode = 0026;
},
{
glyphname = quotesingle;
lastChange = "2017-05-19 14:51:26 +0000";
layers = (
{
layerId = "3E4CAA31-52BF-436B-A4FF-501363857ACF";
paths = (
{
closed = 1;
nodes = (
"208 1536 LINE",
"121 986 LINE",
"301 986 LINE",
"389 1373 LINE",
"414 1536 LINE"
);
}
);
width = 322;
}
);
leftKerningGroup = quotedbl;
note = quotesingle;
rightKerningGroup = quotedbl;
unicode = 0027;
},
{
glyphname = parenleft;
lastChange = "2017-05-19 14:51:26 +0000";
layers = (
{
layerId = "3E4CAA31-52BF-436B-A4FF-501363857ACF";
paths = (
{
closed = 1;
nodes = (
"101 451 OFFCURVE",
"99 328 OFFCURVE",
"110 194 CURVE SMOOTH",
"130 -75 OFFCURVE",
"229 -330 OFFCURVE",
"454 -455 CURVE",
"517 -304 LINE",
"440 -241 OFFCURVE",
"388 -157 OFFCURVE",
"363 -53 CURVE SMOOTH",
"311 154 OFFCURVE",
"320 505 OFFCURVE",
"405 819 CURVE SMOOTH",
"490 1133 OFFCURVE",
"604 1312 OFFCURVE",
"795 1459 CURVE",
"747 1620 LINE",
"618 1563 OFFCURVE",
"511 1478 OFFCURVE",
"424 1365 CURVE SMOOTH",
"251 1138 OFFCURVE",
"154 847 OFFCURVE",
"119 588 CURVE SMOOTH",
"115 564 LINE"
);
}
);
width = 697;
}
);
note = parenleft;
unicode = 0028;
},
{
glyphname = parenright;
lastChange = "2017-05-19 14:51:26 +0000";
layers = (
{
layerId = "3E4CAA31-52BF-436B-A4FF-501363857ACF";
paths = (
{
closed = 1;
nodes = (
"183 -357 OFFCURVE",
"352 -143 OFFCURVE",
"463 124 CURVE SMOOTH",
"574 391 OFFCURVE",
"622 659 OFFCURVE",
"593 970 CURVE SMOOTH",
"566 1239 OFFCURVE",
"463 1493 OFFCURVE",
"236 1617 CURVE",
"174 1463 LINE",
"251 1402 OFFCURVE",
"302 1319 OFFCURVE",
"327 1215 CURVE SMOOTH",
"378 1006 OFFCURVE",
"369 648 OFFCURVE",
"285 340 CURVE SMOOTH",
"200 31 OFFCURVE",
"86 -153 OFFCURVE",
"-105 -300 CURVE",
"-57 -458 LINE"
);
}
);
width = 700;
}
);
note = parenright;
unicode = 0029;
},
{
glyphname = asterisk;
lastChange = "2017-05-19 14:51:26 +0000";
layers = (
{
layerId = "3E4CAA31-52BF-436B-A4FF-501363857ACF";
paths = (
{
closed = 1;
nodes = (
"507 862 LINE",
"633 570 LINE",
"793 674 LINE",
"633 945 LINE",
"961 1034 LINE",
"935 1227 LINE",
"627 1109 LINE",
"707 1456 LINE",
"516 1456 LINE",
"472 1101 LINE",
"186 1229 LINE",
"100 1059 LINE",
"393 967 LINE",
"135 704 LINE",
"284 584 LINE"
);
}
);
width = 901;
}
);
note = asterisk;
unicode = 002A;
},
{
glyphname = plus;
lastChange = "2017-05-19 14:51:26 +0000";
layers = (
{
layerId = "3E4CAA31-52BF-436B-A4FF-501363857ACF";
paths = (
{
closed = 1;
nodes = (
"712 816 LINE",
"780 1206 LINE",
"512 1206 LINE",
"444 816 LINE",
"92 816 LINE",
"46 555 LINE",
"399 555 LINE",
"328 146 LINE",
"596 146 LINE",
"667 555 LINE",
"1017 555 LINE",
"1062 816 LINE"
);
}
);
width = 1084;
}
);
note = plus;
unicode = 002B;
},
{
glyphname = comma;
lastChange = "2017-05-19 14:51:26 +0000";
layers = (
{
layerId = "3E4CAA31-52BF-436B-A4FF-501363857ACF";
paths = (
{
closed = 1;
nodes = (
"37 35 LINE SMOOTH",
"26 -24 OFFCURVE",
"6 -79 OFFCURVE",
"-23 -129 CURVE SMOOTH",
"-117 -286 LINE",
"31 -366 LINE",
"160 -262 OFFCURVE",
"254 -114 OFFCURVE",
"281 50 CURVE SMOOTH",
"312 246 LINE",
"74 246 LINE"
);
}
);
width = 486;
}
);
leftKerningGroup = comma;
note = comma;
rightKerningGroup = comma;
unicode = 002C;
},
{
glyphname = hyphen;
lastChange = "2017-05-19 14:51:26 +0000";
layers = (
{
layerId = "3E4CAA31-52BF-436B-A4FF-501363857ACF";
paths = (
{
closed = 1;
nodes = (
"90 507 LINE",
"638 507 LINE",
"679 741 LINE",
"132 741 LINE"
);
}
);
width = 771;
}
);
leftKerningGroup = hyphen;
note = hyphen;
unicode = 002D;
},
{
glyphname = period;
lastChange = "2017-05-19 14:51:26 +0000";
layers = (
{
layerId = "3E4CAA31-52BF-436B-A4FF-501363857ACF";
paths = (
{
closed = 1;
nodes = (
"47 49 OFFCURVE",
"116 -15 OFFCURVE",
"205 -12 CURVE SMOOTH",
"296 -11 OFFCURVE",
"364 57 OFFCURVE",
"361 148 CURVE SMOOTH",
"360 239 OFFCURVE",
"289 300 OFFCURVE",
"201 299 CURVE SMOOTH",
"109 298 OFFCURVE",
"40 230 OFFCURVE",
"44 138 CURVE SMOOTH"
);
}
);
width = 578;
}
);
leftKerningGroup = comma;
note = period;
rightKerningGroup = comma;
unicode = 002E;
},
{
glyphname = slash;
lastChange = "2017-05-19 14:51:26 +0000";
layers = (
{
layerId = "3E4CAA31-52BF-436B-A4FF-501363857ACF";
paths = (
{
closed = 1;
nodes = (
"-146 -125 LINE",
"76 -125 LINE",
"871 1456 LINE",
"648 1456 LINE"
);
}
);
width = 743;
}
);
note = slash;
unicode = 002F;
},
{
glyphname = zero;
lastChange = "2017-05-19 14:51:26 +0000";
layers = (
{
layerId = "3E4CAA31-52BF-436B-A4FF-501363857ACF";
paths = (
{
closed = 1;
nodes = (
"1112 1053 OFFCURVE",
"1084 1255 OFFCURVE",
"964 1379 CURVE SMOOTH",
"843 1503 OFFCURVE",
"555 1511 OFFCURVE",
"400 1392 CURVE SMOOTH",
"244 1272 OFFCURVE",
"164 1068 OFFCURVE",
"133 856 CURVE SMOOTH",
"95 603 LINE SMOOTH",
"71 404 OFFCURVE",
"99 202 OFFCURVE",
"220 78 CURVE SMOOTH",
"340 -47 OFFCURVE",
"631 -55 OFFCURVE",
"785 66 CURVE SMOOTH",
"939 186 OFFCURVE",
"1017 392 OFFCURVE",
"1049 604 CURVE SMOOTH",
"1088 856 LINE SMOOTH"
);
},
{
closed = 1;
nodes = (
"755 512 OFFCURVE",
"744 460 OFFCURVE",
"727 404 CURVE SMOOTH",
"693 292 OFFCURVE",
"627 205 OFFCURVE",
"500 212 CURVE SMOOTH",
"385 217 OFFCURVE",
"357 315 OFFCURVE",
"361 423 CURVE SMOOTH",
"368 531 LINE",
"419 885 LINE SMOOTH",
"435 996 OFFCURVE",
"464 1118 OFFCURVE",
"536 1194 CURVE SMOOTH",
"607 1269 OFFCURVE",
"760 1261 OFFCURVE",
"797 1179 CURVE SMOOTH",
"834 1097 OFFCURVE",
"821 977 OFFCURVE",
"812 898 CURVE SMOOTH",
"762 561 LINE SMOOTH"
);
}
);
width = 1140;
}
);
note = zero;
unicode = 0030;
},
{
glyphname = one;
lastChange = "2017-05-19 14:51:26 +0000";
layers = (
{
layerId = "3E4CAA31-52BF-436B-A4FF-501363857ACF";
paths = (
{
closed = 1;
nodes = (
"275 1248 LINE",
"231 1002 LINE",
"584 1109 LINE",
"392 0 LINE",
"674 0 LINE",
"919 1459 LINE",
"882 1458 LINE"
);
}
);
width = 1140;
}
);
note = one;
unicode = 0031;
},
{
glyphname = two;
lastChange = "2017-05-19 14:51:26 +0000";
layers = (
{
layerId = "3E4CAA31-52BF-436B-A4FF-501363857ACF";
paths = (
{
closed = 1;
nodes = (
"705 503 LINE SMOOTH",
"758 554 OFFCURVE",
"814 608 OFFCURVE",
"871 665 CURVE SMOOTH",
"986 780 OFFCURVE",
"1079 914 OFFCURVE",
"1091 1071 CURVE SMOOTH",
"1112 1332 OFFCURVE",
"924 1474 OFFCURVE",
"676 1478 CURVE SMOOTH",
"393 1481 OFFCURVE",
"155 1284 OFFCURVE",
"139 997 CURVE",
"419 998 LINE",
"436 1129 OFFCURVE",
"514 1250 OFFCURVE",
"659 1247 CURVE SMOOTH",
"776 1244 OFFCURVE",
"815 1148 OFFCURVE",
"800 1044 CURVE SMOOTH",
"780 908 OFFCURVE",
"645 785 OFFCURVE",
"558 701 CURVE SMOOTH",
"35 210 LINE",
"2 0 LINE",
"971 0 LINE",
"1008 233 LINE",
"407 235 LINE"
);
}
);
width = 1140;
}
);
note = two;
unicode = 0032;
},
{
glyphname = three;
lastChange = "2017-05-19 14:51:26 +0000";
layers = (
{
layerId = "3E4CAA31-52BF-436B-A4FF-501363857ACF";
paths = (
{
closed = 1;
nodes = (
"691 624 OFFCURVE",
"751 555 OFFCURVE",
"734 421 CURVE SMOOTH",
"718 293 OFFCURVE",
"612 210 OFFCURVE",
"485 213 CURVE SMOOTH",
"372 216 OFFCURVE",
"306 289 OFFCURVE",
"307 400 CURVE",
"26 400 LINE",
"25 270 OFFCURVE",
"66 168 OFFCURVE",
"150 94 CURVE SMOOTH",
"318 -54 OFFCURVE",
"559 -38 OFFCURVE",
"722 27 CURVE SMOOTH",
"885 92 OFFCURVE",
"1001 224 OFFCURVE",
"1012 417 CURVE SMOOTH",
"1020 557 OFFCURVE",
"958 679 OFFCURVE",
"830 742 CURVE",
"897 774 OFFCURVE",
"957 817 OFFCURVE",
"1010 870 CURVE SMOOTH",
"1114 976 OFFCURVE",
"1152 1235 OFFCURVE",
"977 1372 CURVE SMOOTH",
"801 1509 OFFCURVE",
"575 1494 OFFCURVE",
"427 1434 CURVE SMOOTH",
"278 1373 OFFCURVE",
"170 1251 OFFCURVE",
"161 1078 CURVE",
"443 1080 LINE",
"462 1184 OFFCURVE",
"551 1249 OFFCURVE",
"656 1246 CURVE SMOOTH",
"764 1243 OFFCURVE",
"822 1173 OFFCURVE",
"810 1066 CURVE SMOOTH",
"793 930 OFFCURVE",
"688 857 OFFCURVE",
"557 856 CURVE SMOOTH",
"422 857 LINE",
"386 630 LINE",
"552 629 LINE SMOOTH"
);
}
);
width = 1140;
}
);
note = three;
unicode = 0033;
},
{
glyphname = four;
lastChange = "2017-05-19 14:51:26 +0000";
layers = (
{
layerId = "3E4CAA31-52BF-436B-A4FF-501363857ACF";
paths = (
{
closed = 1;
nodes = (
"596 315 LINE",
"541 0 LINE",
"823 0 LINE",
"878 315 LINE",
"1038 315 LINE",
"1079 548 LINE",
"919 548 LINE",
"1076 1456 LINE",
"781 1456 LINE",
"38 512 LINE",
"18 315 LINE"
);
},
{
closed = 1;
nodes = (
"736 1069 LINE",
"637 548 LINE",
"330 550 LINE",
"709 1031 LINE"
);
}
);
width = 1140;
}
);
note = four;
unicode = 0034;
},
{
glyphname = five;
lastChange = "2017-05-19 14:51:26 +0000";
layers = (
{
layerId = "3E4CAA31-52BF-436B-A4FF-501363857ACF";
paths = (
{
closed = 1;
nodes = (
"444 714 OFFCURVE",
"509 741 OFFCURVE",
"580 740 CURVE SMOOTH",
"727 737 OFFCURVE",
"770 621 OFFCURVE",
"757 492 CURVE SMOOTH",
"742 356 OFFCURVE",
"671 210 OFFCURVE",
"514 214 CURVE SMOOTH",
"398 217 OFFCURVE",
"349 302 OFFCURVE",
"344 407 CURVE",
"67 407 LINE",
"71 156 OFFCURVE",
"253 -17 OFFCURVE",
"504 -21 CURVE SMOOTH",
"797 -28 OFFCURVE",
"1015 186 OFFCURVE",
"1038 475 CURVE SMOOTH",
"1058 727 OFFCURVE",
"940 956 OFFCURVE",
"663 956 CURVE SMOOTH",
"583 956 OFFCURVE",
"513 937 OFFCURVE",
"453 900 CURVE",
"549 1216 LINE",
"1107 1216 LINE",
"1145 1456 LINE",
"349 1456 LINE",
"154 720 LINE",
"386 661 LINE"
);
}
);
width = 1140;
}
);
note = five;
unicode = 0035;
},
{
glyphname = six;
lastChange = "2017-05-19 14:51:26 +0000";
layers = (
{
layerId = "3E4CAA31-52BF-436B-A4FF-501363857ACF";
paths = (
{
closed = 1;
nodes = (
"1066 642 OFFCURVE",
"1027 802 OFFCURVE",
"921 899 CURVE SMOOTH",
"815 996 OFFCURVE",
"582 1018 OFFCURVE",
"414 854 CURVE",
"513 1089 OFFCURVE",
"688 1237 OFFCURVE",
"952 1233 CURVE SMOOTH",
"965 1233 LINE",
"987 1472 LINE",
"929 1472 LINE SMOOTH",
"486 1464 OFFCURVE",
"167 1144 OFFCURVE",
"104 649 CURVE SMOOTH",
"93 560 LINE SMOOTH",
"83 464 OFFCURVE",
"92 372 OFFCURVE",
"119 285 CURVE SMOOTH",
"174 109 OFFCURVE",
"306 -16 OFFCURVE",
"518 -21 CURVE SMOOTH",
"810 -26 OFFCURVE",
"1030 203 OFFCURVE",
"1054 487 CURVE SMOOTH"
);
},
{
closed = 1;
nodes = (
"409 648 OFFCURVE",
"442 681 OFFCURVE",
"481 707 CURVE SMOOTH",
"559 759 OFFCURVE",
"705 770 OFFCURVE",
"748 656 CURVE SMOOTH",
"791 542 OFFCURVE",
"781 418 OFFCURVE",
"699 300 CURVE SMOOTH",
"617 182 OFFCURVE",
"459 199 OFFCURVE",
"412 268 CURVE SMOOTH",
"364 336 OFFCURVE",
"362 441 OFFCURVE",
"371 521 CURVE SMOOTH",
"384 609 LINE"
);
}
);
width = 1140;
}
);
note = six;
unicode = 0036;
},
{
glyphname = seven;
lastChange = "2017-05-19 14:51:26 +0000";
layers = (
{
layerId = "3E4CAA31-52BF-436B-A4FF-501363857ACF";
paths = (
{
closed = 1;
nodes = (
"154 1223 LINE",
"850 1223 LINE",
"113 0 LINE",
"424 0 LINE",
"1164 1280 LINE",
"1191 1456 LINE",
"191 1456 LINE"
);
}
);
width = 1140;
}
);
note = seven;
unicode = 0037;
},
{
glyphname = eight;
lastChange = "2017-05-19 14:51:26 +0000";
layers = (
{
layerId = "3E4CAA31-52BF-436B-A4FF-501363857ACF";
paths = (
{
closed = 1;
nodes = (
"1020 551 OFFCURVE",
"967 663 OFFCURVE",
"850 744 CURVE",
"918 779 OFFCURVE",
"975 823 OFFCURVE",
"1022 877 CURVE SMOOTH",
"1115 984 OFFCURVE",
"1151 1230 OFFCURVE",
"995 1370 CURVE SMOOTH",
"838 1509 OFFCURVE",
"554 1518 OFFCURVE",
"362 1372 CURVE SMOOTH",
"169 1226 OFFCURVE",
"146 910 OFFCURVE",
"343 757 CURVE",
"187 685 OFFCURVE",
"69 570 OFFCURVE",
"57 390 CURVE SMOOTH",
"40 127 OFFCURVE",
"240 -16 OFFCURVE",
"487 -20 CURVE SMOOTH",
"752 -25 OFFCURVE",
"994 124 OFFCURVE",
"1011 408 CURVE SMOOTH"
);
},
{
closed = 1;
nodes = (
"802 956 OFFCURVE",
"730 859 OFFCURVE",
"614 862 CURVE SMOOTH",
"509 863 OFFCURVE",
"472 954 OFFCURVE",
"484 1047 CURVE SMOOTH",
"496 1154 OFFCURVE",
"569 1248 OFFCURVE",
"684 1245 CURVE SMOOTH",
"788 1244 OFFCURVE",
"826 1156 OFFCURVE",
"815 1063 CURVE SMOOTH"
);
},
{
closed = 1;
nodes = (
"719 305 OFFCURVE",
"628 209 OFFCURVE",
"500 212 CURVE SMOOTH",
"384 215 OFFCURVE",
"331 302 OFFCURVE",
"344 411 CURVE SMOOTH",
"359 535 OFFCURVE",
"450 634 OFFCURVE",
"579 631 CURVE SMOOTH",
"695 628 OFFCURVE",
"747 537 OFFCURVE",
"734 428 CURVE SMOOTH"
);
}
);
width = 1140;
}
);
note = eight;
unicode = 0038;
},
{
glyphname = nine;
lastChange = "2017-05-19 14:51:26 +0000";
layers = (
{
layerId = "3E4CAA31-52BF-436B-A4FF-501363857ACF";
paths = (
{
closed = 1;
nodes = (
"721 -11 OFFCURVE",
"1003 320 OFFCURVE",
"1066 775 CURVE SMOOTH",
"1080 882 LINE SMOOTH",
"1100 1069 OFFCURVE",
"1055 1264 OFFCURVE",
"930 1384 CURVE SMOOTH",
"805 1504 OFFCURVE",
"566 1504 OFFCURVE",
"411 1408 CURVE SMOOTH",
"255 1312 OFFCURVE",
"156 1143 OFFCURVE",
"140 955 CURVE SMOOTH",
"127 796 OFFCURVE",
"171 639 OFFCURVE",
"280 544 CURVE SMOOTH",
"389 449 OFFCURVE",
"594 430 OFFCURVE",
"761 585 CURVE",
"675 352 OFFCURVE",
"512 232 OFFCURVE",
"271 227 CURVE SMOOTH",
"228 227 LINE",
"206 -16 LINE",
"241 -16 LINE SMOOTH"
);
},
{
closed = 1;
nodes = (
"429 1019 OFFCURVE",
"452 1083 OFFCURVE",
"491 1148 CURVE SMOOTH",
"568 1279 OFFCURVE",
"725 1260 OFFCURVE",
"769 1188 CURVE SMOOTH",
"812 1116 OFFCURVE",
"813 1008 OFFCURVE",
"804 936 CURVE SMOOTH",
"787 817 LINE",
"728 731 OFFCURVE",
"657 689 OFFCURVE",
"574 692 CURVE SMOOTH",
"435 696 OFFCURVE",
"410 845 OFFCURVE",
"422 957 CURVE SMOOTH"
);
}
);
width = 1140;
}
);
note = nine;
unicode = 0039;
},
{
glyphname = colon;
lastChange = "2017-05-19 14:51:26 +0000";
layers = (
{
layerId = "3E4CAA31-52BF-436B-A4FF-501363857ACF";
paths = (
{
closed = 1;
nodes = (
"45 49 OFFCURVE",
"114 -15 OFFCURVE",
"203 -12 CURVE SMOOTH",
"294 -11 OFFCURVE",
"362 57 OFFCURVE",
"359 148 CURVE SMOOTH",
"358 239 OFFCURVE",
"287 300 OFFCURVE",
"199 299 CURVE SMOOTH",
"107 298 OFFCURVE",
"38 230 OFFCURVE",
"42 138 CURVE SMOOTH"
);
},
{
closed = 1;
nodes = (
"187 868 OFFCURVE",
"256 804 OFFCURVE",
"345 807 CURVE SMOOTH",
"436 808 OFFCURVE",
"504 876 OFFCURVE",
"501 967 CURVE SMOOTH",
"500 1058 OFFCURVE",
"429 1119 OFFCURVE",
"341 1118 CURVE SMOOTH",
"249 1117 OFFCURVE",
"180 1049 OFFCURVE",
"184 957 CURVE SMOOTH"
);
}
);
width = 571;
}
);
note = colon;
unicode = 003A;
},
{
glyphname = semicolon;
lastChange = "2017-05-19 14:51:26 +0000";
layers = (
{
layerId = "3E4CAA31-52BF-436B-A4FF-501363857ACF";
paths = (
{
closed = 1;
nodes = (
"170 868 OFFCURVE",
"239 804 OFFCURVE",
"328 807 CURVE SMOOTH",
"419 808 OFFCURVE",
"487 876 OFFCURVE",
"484 967 CURVE SMOOTH",
"483 1058 OFFCURVE",
"412 1119 OFFCURVE",
"324 1118 CURVE SMOOTH",
"232 1117 OFFCURVE",
"163 1049 OFFCURVE",
"167 957 CURVE SMOOTH"
);
},
{
closed = 1;
nodes = (
"58 35 LINE SMOOTH",
"47 -24 OFFCURVE",
"27 -79 OFFCURVE",
"-2 -129 CURVE SMOOTH",
"-96 -286 LINE",
"52 -366 LINE",
"181 -262 OFFCURVE",
"275 -114 OFFCURVE",
"302 50 CURVE SMOOTH",
"333 246 LINE",
"95 246 LINE"
);
}
);
width = 531;
}
);
note = semicolon;
unicode = 003B;
},
{
glyphname = less;
lastChange = "2017-05-19 14:51:26 +0000";
layers = (
{
layerId = "3E4CAA31-52BF-436B-A4FF-501363857ACF";
paths = (
{
closed = 1;
nodes = (
"338 613 LINE",
"926 818 LINE",
"977 1110 LINE",
"77 745 LINE",
"36 510 LINE",
"809 144 LINE",
"856 412 LINE"
);
}
);
width = 1012;
}
);
note = less;
unicode = 003C;
},
{
glyphname = equal;
lastChange = "2017-05-19 14:51:26 +0000";
layers = (
{
layerId = "3E4CAA31-52BF-436B-A4FF-501363857ACF";
paths = (
{
closed = 1;
nodes = (
"157 746 LINE",
"1026 746 LINE",
"1068 982 LINE",
"199 982 LINE"
);
},
{
closed = 1;
nodes = (
"82 314 LINE",
"952 314 LINE",
"993 549 LINE",
"124 549 LINE"
);
}
);
width = 1137;
}
);
note = equal;
unicode = 003D;
},
{
glyphname = greater;
lastChange = "2017-05-19 14:51:26 +0000";
layers = (
{
layerId = "3E4CAA31-52BF-436B-A4FF-501363857ACF";
paths = (
{
closed = 1;
nodes = (
"684 629 LINE",
"84 421 LINE",
"33 130 LINE",
"944 495 LINE",
"986 731 LINE",
"201 1096 LINE",
"154 831 LINE"
);
}
);
width = 1026;
}
);
note = greater;
unicode = 003E;
},
{
glyphname = question;
lastChange = "2017-05-19 14:51:26 +0000";
layers = (
{
layerId = "3E4CAA31-52BF-436B-A4FF-501363857ACF";
paths = (
{
closed = 1;
nodes = (
"591 559 OFFCURVE",
"635 630 OFFCURVE",
"704 685 CURVE SMOOTH",
"841 795 OFFCURVE",
"988 907 OFFCURVE",
"1001 1092 CURVE SMOOTH",
"1018 1339 OFFCURVE",
"848 1472 OFFCURVE",
"613 1477 CURVE SMOOTH",
"354 1481 OFFCURVE",
"152 1334 OFFCURVE",
"132 1069 CURVE",
"415 1071 LINE",
"434 1166 OFFCURVE",
"494 1246 OFFCURVE",
"599 1243 CURVE SMOOTH",
"696 1242 OFFCURVE",
"724 1169 OFFCURVE",
"711 1081 CURVE SMOOTH",
"694 976 OFFCURVE",
"628 926 OFFCURVE",
"505 825 CURVE SMOOTH",
"381 724 OFFCURVE",
"331 606 OFFCURVE",
"320 447 CURVE",
"567 448 LINE",
"572 474 LINE SMOOTH"
);
},
{
closed = 1;
nodes = (
"231 47 OFFCURVE",
"300 -15 OFFCURVE",
"387 -14 CURVE SMOOTH",
"478 -11 OFFCURVE",
"544 55 OFFCURVE",
"543 146 CURVE SMOOTH",
"540 235 OFFCURVE",
"470 296 OFFCURVE",
"383 295 CURVE SMOOTH",
"292 294 OFFCURVE",
"227 225 OFFCURVE",
"228 136 CURVE SMOOTH"
);
}
);
width = 989;
}
);
note = question;
unicode = 003F;
},
{
glyphname = at;
lastChange = "2017-05-19 14:51:26 +0000";
layers = (
{
layerId = "3E4CAA31-52BF-436B-A4FF-501363857ACF";
paths = (
{
closed = 1;
nodes = (
"808 -304 OFFCURVE",
"518 -312 OFFCURVE",
"373 -168 CURVE SMOOTH",
"228 -25 OFFCURVE",
"199 216 OFFCURVE",
"254 478 CURVE SMOOTH",
"309 740 OFFCURVE",
"457 997 OFFCURVE",
"677 1146 CURVE SMOOTH",
"897 1294 OFFCURVE",
"1237 1285 OFFCURVE",
"1381 1147 CURVE SMOOTH",
"1525 1009 OFFCURVE",
"1579 730 OFFCURVE",
"1472 389 CURVE SMOOTH",
"1425 242 OFFCURVE",
"1351 134 OFFCURVE",
"1227 139 CURVE SMOOTH",
"1136 144 OFFCURVE",
"1145 235 OFFCURVE",
"1158 302 CURVE",
"1296 880 LINE",
"1249 912 OFFCURVE",
"1203 938 OFFCURVE",
"1157 959 CURVE SMOOTH",
"1064 999 OFFCURVE",
"915 1011 OFFCURVE",
"793 941 CURVE SMOOTH",
"671 871 OFFCURVE",
"560 720 OFFCURVE",
"498 525 CURVE SMOOTH",
"436 330 OFFCURVE",
"459 156 OFFCURVE",
"531 58 CURVE SMOOTH",
"603 -40 OFFCURVE",
"802 -69 OFFCURVE",
"969 123 CURVE",
"998 26 OFFCURVE",
"1089 -20 OFFCURVE",
"1186 -21 CURVE SMOOTH",
"1391 -26 OFFCURVE",
"1527 104 OFFCURVE",
"1607 280 CURVE SMOOTH",
"1686 455 OFFCURVE",
"1744 706 OFFCURVE",
"1670 970 CURVE SMOOTH",
"1596 1234 OFFCURVE",
"1393 1412 OFFCURVE",
"1056 1416 CURVE SMOOTH",
"697 1420 OFFCURVE",
"411 1220 OFFCURVE",
"231 927 CURVE SMOOTH",
"51 634 OFFCURVE",
"-5 284 OFFCURVE",
"67 9 CURVE SMOOTH",
"138 -267 OFFCURVE",
"344 -449 OFFCURVE",
"700 -453 CURVE SMOOTH",
"821 -454 OFFCURVE",
"963 -435 OFFCURVE",
"1066 -367 CURVE",
"1037 -209 LINE"
);
},
{
closed = 1;
nodes = (
"706 478 OFFCURVE",
"724 537 OFFCURVE",
"749 599 CURVE SMOOTH",
"797 723 OFFCURVE",
"882 821 OFFCURVE",
"1019 817 CURVE SMOOTH",
"1042 816 OFFCURVE",
"1065 812 OFFCURVE",
"1088 805 CURVE",
"962 330 LINE",
"935 257 OFFCURVE",
"859 154 OFFCURVE",
"771 158 CURVE SMOOTH",
"688 162 OFFCURVE",
"673 240 OFFCURVE",
"682 323 CURVE SMOOTH",
"695 423 LINE"
);
}
);
width = 1778;
}
);
note = at;
unicode = 0040;
},
{
glyphname = A;
lastChange = "2017-05-28 11:20:31 +0000";
layers = (
{
hints = (
{
horizontal = 1;
origin = "{0, 0}";
type = Anchor;
},
{
horizontal = 1;
origin = "{0, 1}";
type = Anchor;
},
{
horizontal = 1;
origin = "{0, 2}";
type = Anchor;
},
{
horizontal = 1;
origin = "{0, 3}";
type = Anchor;
},
{
horizontal = 1;
origin = "{0, 4}";
type = Anchor;
},
{
horizontal = 1;
origin = "{0, 5}";
type = Anchor;
},
{
horizontal = 1;
origin = "{0, 6}";
type = Anchor;
},
{
horizontal = 1;
origin = "{0, 7}";
type = Anchor;
},
{
horizontal = 1;
origin = "{1, 0}";
type = Anchor;
},
{
horizontal = 1;
origin = "{1, 1}";
type = Anchor;
},
{
horizontal = 1;
origin = "{1, 2}";
type = Anchor;
}
);
layerId = "3E4CAA31-52BF-436B-A4FF-501363857ACF";
paths = (
{
closed = 1;
nodes = (
"368 300 LINE",
"876 300 LINE",
"921 0 LINE",
"1222 0 LINE",
"945 1456 LINE",
"674 1456 LINE",
"-104 0 LINE",
"218 0 LINE"
);
},
{
closed = 1;
nodes = (
"840 543 LINE",
"488 543 LINE",
"759 1086 LINE"
);
}
);
width = 1338;
}
);
leftKerningGroup = A;
note = A;
rightKerningGroup = A;
unicode = 0041;
},
{
glyphname = B;
lastChange = "2017-05-28 11:20:33 +0000";
layers = (
{
hints = (
{
horizontal = 1;
origin = "{0, 0}";
type = Anchor;
},
{
horizontal = 1;
origin = "{0, 1}";
type = Anchor;
},
{
horizontal = 1;
origin = "{0, 2}";
type = Anchor;
},
{
horizontal = 1;
origin = "{0, 3}";
type = Anchor;
},
{
horizontal = 1;
origin = "{0, 4}";
type = Anchor;
},
{
horizontal = 1;
origin = "{0, 5}";
type = Anchor;
},
{
horizontal = 1;
origin = "{0, 6}";
type = Anchor;
},
{
horizontal = 1;
origin = "{0, 7}";
type = Anchor;
},
{
horizontal = 1;
origin = "{0, 8}";
type = Anchor;
},
{
horizontal = 1;
origin = "{0, 9}";
type = Anchor;
},
{
horizontal = 1;
origin = "{0, 10}";
type = Anchor;
},
{
horizontal = 1;
origin = "{0, 11}";
type = Anchor;
},
{
horizontal = 1;
origin = "{0, 12}";
type = Anchor;
},
{
horizontal = 1;
origin = "{0, 13}";
type = Anchor;
},
{
horizontal = 1;
origin = "{0, 14}";
type = Anchor;
},
{
horizontal = 1;
origin = "{0, 15}";
type = Anchor;
},
{
horizontal = 1;
origin = "{0, 16}";
type = Anchor;
},
{
horizontal = 1;
origin = "{0, 17}";
type = Anchor;
},
{
horizontal = 1;
origin = "{1, 0}";
type = Anchor;
},
{
horizontal = 1;
origin = "{1, 1}";
type = Anchor;
},
{
horizontal = 1;
origin = "{1, 2}";
type = Anchor;
},
{
horizontal = 1;
origin = "{1, 3}";
type = Anchor;
},
{
horizontal = 1;
origin = "{1, 4}";
type = Anchor;
},
{
horizontal = 1;
origin = "{1, 5}";
type = Anchor;
},
{
horizontal = 1;
origin = "{1, 6}";
type = Anchor;
},
{
horizontal = 1;
origin = "{1, 7}";
type = Anchor;
},
{
horizontal = 1;
origin = "{1, 8}";
type = Anchor;
},
{
horizontal = 1;
origin = "{2, 0}";
type = Anchor;
},
{
horizontal = 1;
origin = "{2, 1}";
type = Anchor;
},
{
horizontal = 1;
origin = "{2, 2}";
type = Anchor;
},
{
horizontal = 1;
origin = "{2, 3}";
type = Anchor;
},
{
horizontal = 1;
origin = "{2, 4}";
type = Anchor;
},
{
horizontal = 1;
origin = "{2, 5}";
type = Anchor;
},
{
horizontal = 1;
origin = "{2, 6}";
type = Anchor;
},
{
horizontal = 1;
origin = "{2, 7}";
type = Anchor;
},
{
horizontal = 1;
origin = "{2, 8}";
type = Anchor;
}
);
layerId = "3E4CAA31-52BF-436B-A4FF-501363857ACF";
paths = (
{
closed = 1;
nodes = (
"1153 567 OFFCURVE",
"1098 696 OFFCURVE",
"969 743 CURVE",
"1040 774 OFFCURVE",
"1099 815 OFFCURVE",
"1146 867 CURVE SMOOTH",
"1239 971 OFFCURVE",
"1256 1182 OFFCURVE",
"1168 1294 CURVE SMOOTH",
"1084 1401 OFFCURVE",
"936 1454 OFFCURVE",
"724 1455 CURVE SMOOTH",
"274 1456 LINE",
"21 0 LINE",
"585 0 LINE SMOOTH",
"869 -1 OFFCURVE",
"1124 127 OFFCURVE",
"1144 436 CURVE SMOOTH"
);
},
{
closed = 1;
nodes = (
"870 1208 OFFCURVE",
"946 1164 OFFCURVE",
"926 1035 CURVE SMOOTH",
"903 894 OFFCURVE",
"777 846 OFFCURVE",
"649 846 CURVE SMOOTH",
"462 847 LINE",
"526 1213 LINE",
"749 1212 LINE SMOOTH"
);
},
{
closed = 1;
nodes = (
"834 304 OFFCURVE",
"716 242 OFFCURVE",
"588 241 CURVE SMOOTH",
"357 242 LINE",
"426 635 LINE",
"702 634 LINE",
"823 629 OFFCURVE",
"874 564 OFFCURVE",
"855 440 CURVE SMOOTH"
);
}
);
width = 1268;
}
);
note = B;
rightKerningGroup = B;
unicode = 0042;
},
{
glyphname = C;
lastChange = "2017-05-28 11:20:35 +0000";
layers = (
{
hints = (
{
horizontal = 1;
origin = "{0, 0}";
type = Anchor;
},
{
horizontal = 1;
origin = "{0, 1}";
type = Anchor;
},
{
horizontal = 1;
origin = "{0, 2}";
type = Anchor;
},
{
horizontal = 1;
origin = "{0, 3}";
type = Anchor;
},
{
horizontal = 1;
origin = "{0, 4}";
type = Anchor;
},
{
horizontal = 1;
origin = "{0, 5}";
type = Anchor;
},
{
horizontal = 1;
origin = "{0, 6}";
type = Anchor;
},
{
horizontal = 1;
origin = "{0, 7}";
type = Anchor;
},
{
horizontal = 1;
origin = "{0, 8}";
type = Anchor;
},
{
horizontal = 1;
origin = "{0, 9}";
type = Anchor;
},
{
horizontal = 1;
origin = "{0, 10}";
type = Anchor;
},
{
horizontal = 1;
origin = "{0, 11}";
type = Anchor;
},
{
horizontal = 1;
origin = "{0, 12}";
type = Anchor;
},
{
horizontal = 1;
origin = "{0, 13}";
type = Anchor;
},
{
horizontal = 1;
origin = "{0, 14}";
type = Anchor;
},
{
horizontal = 1;
origin = "{0, 15}";
type = Anchor;
},
{
horizontal = 1;
origin = "{0, 16}";
type = Anchor;
},
{
horizontal = 1;
origin = "{0, 17}";
type = Anchor;
},
{
horizontal = 1;
origin = "{0, 18}";
type = Anchor;
},
{
horizontal = 1;
origin = "{0, 19}";
type = Anchor;
},
{
horizontal = 1;
origin = "{0, 20}";
type = Anchor;
},
{
horizontal = 1;
origin = "{0, 21}";
type = Anchor;
},
{
horizontal = 1;
origin = "{0, 22}";
type = Anchor;
},
{
horizontal = 1;
origin = "{0, 23}";
type = Anchor;
},
{
horizontal = 1;
origin = "{0, 24}";
type = Anchor;
},
{
horizontal = 1;
origin = "{0, 25}";
type = Anchor;
},
{
horizontal = 1;
origin = "{0, 26}";
type = Anchor;
},
{
horizontal = 1;
origin = "{0, 27}";
type = Anchor;
},
{
horizontal = 1;
origin = "{0, 28}";
type = Anchor;
},
{
horizontal = 1;
origin = "{0, 29}";
type = Anchor;
},
{
horizontal = 1;
origin = "{0, 30}";
type = Anchor;
},
{
horizontal = 1;
origin = "{0, 31}";
type = Anchor;
},
{
horizontal = 1;
origin = "{0, 32}";
type = Anchor;
},
{
horizontal = 1;
origin = "{0, 33}";
type = Anchor;
},
{
horizontal = 1;
origin = "{0, 34}";
type = Anchor;
},
{
horizontal = 1;
origin = "{0, 35}";
type = Anchor;
}
);
layerId = "3E4CAA31-52BF-436B-A4FF-501363857ACF";
paths = (
{
closed = 1;
nodes = (
"881 315 OFFCURVE",
"772 218 OFFCURVE",
"595 225 CURVE SMOOTH",
"434 230 OFFCURVE",
"386 347 OFFCURVE",
"386 487 CURVE SMOOTH",
"386 635 OFFCURVE",
"410 840 OFFCURVE",
"464 987 CURVE SMOOTH",
"518 1134 OFFCURVE",
"617 1237 OFFCURVE",
"788 1232 CURVE SMOOTH",
"961 1225 OFFCURVE",
"1014 1122 OFFCURVE",
"1014 961 CURVE",
"1306 960 LINE",
"1297 1113 OFFCURVE",
"1251 1236 OFFCURVE",
"1167 1331 CURVE SMOOTH",
"998 1520 OFFCURVE",
"647 1514 OFFCURVE",
"454 1381 CURVE SMOOTH",
"261 1248 OFFCURVE",
"146 1019 OFFCURVE",
"111 775 CURVE SMOOTH",
"99 680 LINE SMOOTH",
"84 565 OFFCURVE",
"91 454 OFFCURVE",
"118 348 CURVE SMOOTH",
"172 136 OFFCURVE",
"319 -15 OFFCURVE",
"582 -20 CURVE SMOOTH",
"895 -27 OFFCURVE",
"1168 165 OFFCURVE",
"1207 486 CURVE",
"916 484 LINE"
);
}
);
width = 1301;
}
);
leftKerningGroup = C;
note = C;
rightKerningGroup = C;
unicode = 0043;
},
{
glyphname = D;
lastChange = "2017-05-28 11:20:37 +0000";
layers = (
{
hints = (
{
horizontal = 1;
origin = "{0, 0}";
type = Anchor;
},
{
horizontal = 1;
origin = "{0, 1}";
type = Anchor;
},
{
horizontal = 1;
origin = "{0, 2}";
type = Anchor;
},
{
horizontal = 1;
origin = "{0, 3}";
type = Anchor;
},
{
horizontal = 1;
origin = "{0, 4}";
type = Anchor;
},
{
horizontal = 1;
origin = "{0, 5}";
type = Anchor;
},
{
horizontal = 1;
origin = "{0, 6}";
type = Anchor;
},
{
horizontal = 1;
origin = "{0, 7}";
type = Anchor;
},
{
horizontal = 1;
origin = "{0, 8}";
type = Anchor;
},
{
horizontal = 1;
origin = "{0, 9}";
type = Anchor;
},
{
horizontal = 1;
origin = "{0, 10}";
type = Anchor;
},
{
horizontal = 1;
origin = "{0, 11}";
type = Anchor;
},
{
horizontal = 1;
origin = "{0, 12}";
type = Anchor;
},
{
horizontal = 1;
origin = "{1, 0}";
type = Anchor;
},
{
horizontal = 1;
origin = "{1, 1}";
type = Anchor;
},
{
horizontal = 1;
origin = "{1, 2}";
type = Anchor;
},
{
horizontal = 1;
origin = "{1, 3}";
type = Anchor;
},
{
horizontal = 1;
origin = "{1, 4}";
type = Anchor;
},
{
horizontal = 1;
origin = "{1, 5}";
type = Anchor;
},
{
horizontal = 1;
origin = "{1, 6}";
type = Anchor;
},
{
horizontal = 1;
origin = "{1, 7}";
type = Anchor;
},
{
horizontal = 1;
origin = "{1, 8}";
type = Anchor;
},
{
horizontal = 1;
origin = "{1, 9}";
type = Anchor;
},
{
horizontal = 1;
origin = "{1, 10}";
type = Anchor;
},
{
horizontal = 1;
origin = "{1, 11}";
type = Anchor;
}
);
layerId = "3E4CAA31-52BF-436B-A4FF-501363857ACF";
paths = (
{
closed = 1;
nodes = (
"878 7 OFFCURVE",
"1177 295 OFFCURVE",
"1229 718 CURVE SMOOTH",
"1234 760 LINE SMOOTH",
"1248 882 OFFCURVE",
"1236 995 OFFCURVE",
"1199 1100 CURVE SMOOTH",
"1124 1308 OFFCURVE",
"952 1450 OFFCURVE",
"692 1455 CURVE SMOOTH",
"274 1456 LINE",
"21 0 LINE",
"491 0 LINE SMOOTH"
);
},
{
closed = 1;
nodes = (
"770 1209 OFFCURVE",
"831 1185 OFFCURVE",
"870 1139 CURVE SMOOTH",
"946 1046 OFFCURVE",
"961 896 OFFCURVE",
"924 677 CURVE SMOOTH",
"883 433 OFFCURVE",
"742 240 OFFCURVE",
"479 241 CURVE SMOOTH",
"357 242 LINE",
"526 1213 LINE",
"686 1212 LINE SMOOTH"
);
}
);
width = 1292;
}
);
note = D;
rightKerningGroup = D;
unicode = 0044;
},
{
glyphname = E;
lastChange = "2017-05-28 11:20:39 +0000";
layers = (
{
hints = (
{
horizontal = 1;
origin = "{0, 0}";
type = Anchor;
},
{
horizontal = 1;
origin = "{0, 1}";
type = Anchor;
},
{
horizontal = 1;
origin = "{0, 2}";
type = Anchor;
},
{
horizontal = 1;
origin = "{0, 3}";
type = Anchor;
},
{
horizontal = 1;
origin = "{0, 4}";
type = Anchor;
},
{
horizontal = 1;
origin = "{0, 5}";
type = Anchor;
},
{
horizontal = 1;
origin = "{0, 6}";
type = Anchor;
},
{
horizontal = 1;
origin = "{0, 7}";
type = Anchor;
},
{
horizontal = 1;
origin = "{0, 8}";
type = Anchor;
},
{
horizontal = 1;
origin = "{0, 9}";
type = Anchor;
},
{
horizontal = 1;
origin = "{0, 10}";
type = Anchor;
},
{
horizontal = 1;
origin = "{0, 11}";
type = Anchor;
}
);
layerId = "3E4CAA31-52BF-436B-A4FF-501363857ACF";
paths = (
{
closed = 1;
nodes = (
"1013 242 LINE",
"357 242 LINE",
"425 631 LINE",
"982 631 LINE",
"1024 866 LINE",
"465 866 LINE",
"526 1213 LINE",
"1178 1213 LINE",
"1221 1456 LINE",
"274 1456 LINE",
"21 0 LINE",
"971 0 LINE"
);
}
);
width = 1117;
}
);
note = E;
rightKerningGroup = E;
unicode = 0045;
},
{
glyphname = F;
lastChange = "2017-05-28 11:20:41 +0000";
layers = (
{
hints = (
{
horizontal = 1;
origin = "{0, 0}";
type = Anchor;
},
{
horizontal = 1;
origin = "{0, 1}";
type = Anchor;
},
{
horizontal = 1;
origin = "{0, 2}";
type = Anchor;
},
{
horizontal = 1;
origin = "{0, 3}";
type = Anchor;
},
{
horizontal = 1;
origin = "{0, 4}";
type = Anchor;
},
{
horizontal = 1;
origin = "{0, 5}";
type = Anchor;
},
{
horizontal = 1;
origin = "{0, 6}";
type = Anchor;
},
{
horizontal = 1;
origin = "{0, 7}";
type = Anchor;
},
{
horizontal = 1;
origin = "{0, 8}";
type = Anchor;
},
{
horizontal = 1;
origin = "{0, 9}";
type = Anchor;
}
);
layerId = "3E4CAA31-52BF-436B-A4FF-501363857ACF";
paths = (
{
closed = 1;
nodes = (
"419 595 LINE",
"977 595 LINE",
"1019 837 LINE",
"460 837 LINE",
"526 1213 LINE",
"1154 1213 LINE",
"1197 1456 LINE",
"274 1456 LINE",
"21 0 LINE",
"315 0 LINE"
);
}
);
width = 1089;
}
);
note = F;
unicode = 0046;
},
{
glyphname = G;
lastChange = "2017-05-28 11:20:43 +0000";
layers = (
{
hints = (
{
horizontal = 1;
origin = "{0, 0}";
type = Anchor;
},
{
horizontal = 1;
origin = "{0, 1}";
type = Anchor;
},
{
horizontal = 1;
origin = "{0, 2}";
type = Anchor;
},
{
horizontal = 1;
origin = "{0, 3}";
type = Anchor;
},
{
horizontal = 1;
origin = "{0, 4}";
type = Anchor;
},
{
horizontal = 1;
origin = "{0, 5}";
type = Anchor;
},
{
horizontal = 1;
origin = "{0, 6}";
type = Anchor;
},
{
horizontal = 1;
origin = "{0, 7}";
type = Anchor;
},
{
horizontal = 1;
origin = "{0, 8}";
type = Anchor;
},
{
horizontal = 1;
origin = "{0, 9}";
type = Anchor;
},
{
horizontal = 1;
origin = "{0, 10}";
type = Anchor;
},
{
horizontal = 1;
origin = "{0, 11}";
type = Anchor;
},
{
horizontal = 1;
origin = "{0, 12}";
type = Anchor;
},
{
horizontal = 1;
origin = "{0, 13}";
type = Anchor;
},
{
horizontal = 1;
origin = "{0, 14}";
type = Anchor;
},
{
horizontal = 1;
origin = "{0, 15}";
type = Anchor;
},
{
horizontal = 1;
origin = "{0, 16}";
type = Anchor;
},
{
horizontal = 1;
origin = "{0, 17}";
type = Anchor;
},
{
horizontal = 1;
origin = "{0, 18}";
type = Anchor;
},
{
horizontal = 1;
origin = "{0, 19}";
type = Anchor;
},
{
horizontal = 1;
origin = "{0, 20}";
type = Anchor;
},
{
horizontal = 1;
origin = "{0, 21}";
type = Anchor;
},
{
horizontal = 1;
origin = "{0, 22}";
type = Anchor;
},
{
horizontal = 1;
origin = "{0, 23}";
type = Anchor;
},
{
horizontal = 1;
origin = "{0, 24}";
type = Anchor;
},
{
horizontal = 1;
origin = "{0, 25}";
type = Anchor;
},
{
horizontal = 1;
origin = "{0, 26}";
type = Anchor;
},
{
horizontal = 1;
origin = "{0, 27}";
type = Anchor;
},
{
horizontal = 1;
origin = "{0, 28}";
type = Anchor;
},
{
horizontal = 1;
origin = "{0, 29}";
type = Anchor;
},
{
horizontal = 1;
origin = "{0, 30}";
type = Anchor;
},
{
horizontal = 1;
origin = "{0, 31}";
type = Anchor;
},
{
horizontal = 1;
origin = "{0, 32}";
type = Anchor;
},
{
horizontal = 1;
origin = "{0, 33}";
type = Anchor;
},
{
horizontal = 1;
origin = "{0, 34}";
type = Anchor;
},
{
horizontal = 1;
origin = "{0, 35}";
type = Anchor;
},
{
horizontal = 1;
origin = "{0, 36}";
type = Anchor;
},
{
horizontal = 1;
origin = "{0, 37}";
type = Anchor;
},
{
horizontal = 1;
origin = "{0, 38}";
type = Anchor;
},
{
horizontal = 1;
origin = "{0, 39}";
type = Anchor;
}
);
layerId = "3E4CAA31-52BF-436B-A4FF-501363857ACF";
paths = (
{
closed = 1;
nodes = (
"677 545 LINE",
"942 545 LINE",
"893 294 LINE",
"750 194 OFFCURVE",
"533 201 OFFCURVE",
"461 301 CURVE SMOOTH",
"389 400 OFFCURVE",
"393 525 OFFCURVE",
"397 606 CURVE SMOOTH",
"401 687 OFFCURVE",
"419 848 OFFCURVE",
"477 992 CURVE SMOOTH",
"535 1135 OFFCURVE",
"638 1242 OFFCURVE",
"810 1235 CURVE SMOOTH",
"965 1230 OFFCURVE",
"1023 1136 OFFCURVE",
"1035 992 CURVE",
"1317 991 LINE",
"1306 1142 OFFCURVE",
"1258 1261 OFFCURVE",
"1174 1346 CURVE SMOOTH",
"1006 1516 OFFCURVE",
"657 1514 OFFCURVE",
"462 1382 CURVE SMOOTH",
"267 1250 OFFCURVE",
"153 1020 OFFCURVE",
"118 771 CURVE SMOOTH",
"106 684 LINE SMOOTH",
"91 564 OFFCURVE",
"99 451 OFFCURVE",
"130 345 CURVE SMOOTH",
"191 132 OFFCURVE",
"349 -16 OFFCURVE",
"616 -19 CURVE SMOOTH",
"807 -23 OFFCURVE",
"1054 24 OFFCURVE",
"1182 183 CURVE",
"1273 765 LINE",
"716 765 LINE"
);
}
);
width = 1353;
}
);
leftKerningGroup = C;
note = G;
unicode = 0047;
},
{
glyphname = H;
lastChange = "2017-05-28 11:20:45 +0000";
layers = (
{
hints = (
{
horizontal = 1;
origin = "{0, 0}";
type = Anchor;
},
{
horizontal = 1;
origin = "{0, 1}";
type = Anchor;
},
{
horizontal = 1;
origin = "{0, 2}";
type = Anchor;
},
{
horizontal = 1;
origin = "{0, 3}";
type = Anchor;
},
{
horizontal = 1;
origin = "{0, 4}";
type = Anchor;
},
{
horizontal = 1;
origin = "{0, 5}";
type = Anchor;
},
{
horizontal = 1;
origin = "{0, 6}";
type = Anchor;
},
{
horizontal = 1;
origin = "{0, 7}";
type = Anchor;
},
{
horizontal = 1;
origin = "{0, 8}";
type = Anchor;
},
{
horizontal = 1;
origin = "{0, 9}";
type = Anchor;
},
{
horizontal = 1;
origin = "{0, 10}";
type = Anchor;
},
{
horizontal = 1;
origin = "{0, 11}";
type = Anchor;
}
);
layerId = "3E4CAA31-52BF-436B-A4FF-501363857ACF";
paths = (
{
closed = 1;
nodes = (
"1426 1456 LINE",
"1133 1456 LINE",
"1031 866 LINE",
"465 866 LINE",
"568 1456 LINE",
"274 1456 LINE",
"21 0 LINE",
"315 0 LINE",
"424 624 LINE",
"989 624 LINE",
"881 0 LINE",
"1174 0 LINE"
);
}
);
width = 1405;
}
);
note = H;
rightKerningGroup = H;
unicode = 0048;
},
{
glyphname = I;
lastChange = "2017-05-28 11:20:48 +0000";
layers = (
{
hints = (
{
horizontal = 1;
origin = "{0, 0}";
type = Anchor;
},
{
horizontal = 1;
origin = "{0, 1}";
type = Anchor;
},
{
horizontal = 1;
origin = "{0, 2}";
type = Anchor;
},
{
horizontal = 1;
origin = "{0, 3}";
type = Anchor;
}
);
layerId = "3E4CAA31-52BF-436B-A4FF-501363857ACF";
paths = (
{
closed = 1;
nodes = (
"39 0 LINE",
"332 0 LINE",
"584 1456 LINE",
"291 1456 LINE"
);
}
);
width = 580;
}
);
note = I;
rightKerningGroup = H;
unicode = 0049;
},
{
glyphname = J;
lastChange = "2017-05-28 11:20:50 +0000";
layers = (
{
hints = (
{
horizontal = 1;
origin = "{0, 0}";
type = Anchor;
},
{
horizontal = 1;
origin = "{0, 1}";
type = Anchor;
},
{
horizontal = 1;
origin = "{0, 2}";
type = Anchor;
},
{
horizontal = 1;
origin = "{0, 3}";
type = Anchor;
},
{
horizontal = 1;
origin = "{0, 4}";
type = Anchor;
},
{
horizontal = 1;
origin = "{0, 5}";
type = Anchor;
},
{
horizontal = 1;
origin = "{0, 6}";
type = Anchor;
},
{
horizontal = 1;
origin = "{0, 7}";
type = Anchor;
},
{
horizontal = 1;
origin = "{0, 8}";
type = Anchor;
},
{
horizontal = 1;
origin = "{0, 9}";
type = Anchor;
},
{
horizontal = 1;
origin = "{0, 10}";
type = Anchor;
},
{
horizontal = 1;
origin = "{0, 11}";
type = Anchor;
},
{
horizontal = 1;
origin = "{0, 12}";
type = Anchor;
},
{
horizontal = 1;
origin = "{0, 13}";
type = Anchor;
},
{
horizontal = 1;
origin = "{0, 14}";
type = Anchor;
},
{
horizontal = 1;
origin = "{0, 15}";
type = Anchor;
}
);
layerId = "3E4CAA31-52BF-436B-A4FF-501363857ACF";
paths = (
{
closed = 1;
nodes = (
"651 325 OFFCURVE",
"576 218 OFFCURVE",
"445 222 CURVE SMOOTH",
"317 225 OFFCURVE",
"292 318 OFFCURVE",
"299 430 CURVE",
"5 431 LINE",
"-4 154 OFFCURVE",
"150 -16 OFFCURVE",
"429 -21 CURVE SMOOTH",
"717 -26 OFFCURVE",
"927 168 OFFCURVE",
"966 448 CURVE SMOOTH",
"1137 1456 LINE",
"844 1456 LINE",
"671 442 LINE SMOOTH"
);
}
);
width = 1110;
}
);
leftKerningGroup = J;
note = J;
rightKerningGroup = J;
unicode = 004A;
},
{
glyphname = K;
lastChange = "2017-05-28 11:20:52 +0000";
layers = (
{
hints = (
{
horizontal = 1;
origin = "{0, 0}";
type = Anchor;
},
{
horizontal = 1;
origin = "{0, 1}";
type = Anchor;
},
{
horizontal = 1;
origin = "{0, 2}";
type = Anchor;
},
{
horizontal = 1;
origin = "{0, 3}";
type = Anchor;
},
{
horizontal = 1;
origin = "{0, 4}";
type = Anchor;
},
{
horizontal = 1;
origin = "{0, 5}";
type = Anchor;
},
{
horizontal = 1;
origin = "{0, 6}";
type = Anchor;
},
{
horizontal = 1;
origin = "{0, 7}";
type = Anchor;
},
{
horizontal = 1;
origin = "{0, 8}";
type = Anchor;
},
{
horizontal = 1;
origin = "{0, 9}";
type = Anchor;
},
{
horizontal = 1;
origin = "{0, 10}";
type = Anchor;
},
{
horizontal = 1;
origin = "{0, 11}";
type = Anchor;
},
{
horizontal = 1;
origin = "{0, 12}";
type = Anchor;
}
);
layerId = "3E4CAA31-52BF-436B-A4FF-501363857ACF";
paths = (
{
closed = 1;
nodes = (
"797 795 LINE",
"1424 1456 LINE",
"1042 1456 LINE",
"603 981 LINE",
"456 815 LINE",
"568 1456 LINE",
"274 1456 LINE",
"21 0 LINE",
"315 0 LINE",
"385 404 LINE",
"577 582 LINE",
"837 0 LINE",
"1171 0 LINE"
);
}
);
width = 1262;
}
);
note = K;
rightKerningGroup = K;
unicode = 004B;
},
{
glyphname = L;
lastChange = "2017-05-28 11:20:54 +0000";
layers = (
{
hints = (
{
horizontal = 1;
origin = "{0, 0}";
type = Anchor;
},
{
horizontal = 1;
origin = "{0, 1}";
type = Anchor;
},
{
horizontal = 1;
origin = "{0, 2}";
type = Anchor;
},
{
horizontal = 1;
origin = "{0, 3}";
type = Anchor;
},
{
horizontal = 1;
origin = "{0, 4}";
type = Anchor;
},
{
horizontal = 1;
origin = "{0, 5}";
type = Anchor;
}
);
layerId = "3E4CAA31-52BF-436B-A4FF-501363857ACF";
paths = (
{
closed = 1;
nodes = (
"568 1456 LINE",
"274 1456 LINE",
"21 0 LINE",
"932 0 LINE",
"975 242 LINE",
"357 242 LINE"
);
}
);
width = 1076;
}
);
note = L;
rightKerningGroup = L;
unicode = 004C;
},
{
glyphname = M;
lastChange = "2017-05-28 11:20:56 +0000";
layers = (
{
hints = (
{
horizontal = 1;
origin = "{0, 0}";
type = Anchor;
},
{
horizontal = 1;
origin = "{0, 1}";
type = Anchor;
},
{
horizontal = 1;
origin = "{0, 2}";
type = Anchor;
},
{
horizontal = 1;
origin = "{0, 3}";
type = Anchor;
},
{
horizontal = 1;
origin = "{0, 4}";
type = Anchor;
},
{
horizontal = 1;
origin = "{0, 5}";
type = Anchor;
},
{
horizontal = 1;
origin = "{0, 6}";
type = Anchor;
},
{
horizontal = 1;
origin = "{0, 7}";
type = Anchor;
},
{
horizontal = 1;
origin = "{0, 8}";
type = Anchor;
},
{
horizontal = 1;
origin = "{0, 9}";
type = Anchor;
},
{
horizontal = 1;
origin = "{0, 10}";
type = Anchor;
},
{
horizontal = 1;
origin = "{0, 11}";
type = Anchor;
},
{
horizontal = 1;
origin = "{0, 12}";
type = Anchor;
},
{
horizontal = 1;
origin = "{0, 13}";
type = Anchor;
},
{
horizontal = 1;
origin = "{0, 14}";
type = Anchor;
}
);
layerId = "3E4CAA31-52BF-436B-A4FF-501363857ACF";
paths = (
{
closed = 1;
nodes = (
"274 1456 LINE",
"21 0 LINE",
"315 0 LINE",
"381 381 LINE",
"476 1098 LINE",
"671 0 LINE",
"872 0 LINE",
"1429 1061 LINE",
"1287 415 LINE",
"1215 0 LINE",
"1509 0 LINE",
"1762 1456 LINE",
"1373 1456 LINE",
"829 403 LINE",
"651 1456 LINE"
);
}
);
width = 1740;
}
);
note = M;
rightKerningGroup = H;
unicode = 004D;
},
{
glyphname = N;
lastChange = "2017-05-28 11:20:57 +0000";
layers = (
{
hints = (
{
horizontal = 1;
origin = "{0, 0}";
type = Anchor;
},
{
horizontal = 1;
origin = "{0, 1}";
type = Anchor;
},
{
horizontal = 1;
origin = "{0, 2}";
type = Anchor;
},
{
horizontal = 1;
origin = "{0, 3}";
type = Anchor;
},
{
horizontal = 1;
origin = "{0, 4}";
type = Anchor;
},
{
horizontal = 1;
origin = "{0, 5}";
type = Anchor;
},
{
horizontal = 1;
origin = "{0, 6}";
type = Anchor;
},
{
horizontal = 1;
origin = "{0, 7}";
type = Anchor;
},
{
horizontal = 1;
origin = "{0, 8}";
type = Anchor;
},
{
horizontal = 1;
origin = "{0, 9}";
type = Anchor;
}
);
layerId = "3E4CAA31-52BF-436B-A4FF-501363857ACF";
paths = (
{
closed = 1;
nodes = (
"963 483 LINE",
"558 1456 LINE",
"274 1456 LINE",
"21 0 LINE",
"315 0 LINE",
"484 972 LINE",
"889 0 LINE",
"1173 0 LINE",
"1425 1456 LINE",
"1132 1456 LINE"
);
}
);
width = 1404;
}
);
note = N;
rightKerningGroup = H;
unicode = 004E;
},
{
glyphname = O;
lastChange = "2017-05-28 11:21:09 +0000";
layers = (
{
hints = (
{
horizontal = 1;
origin = "{0, 0}";
type = Anchor;
},
{
horizontal = 1;
origin = "{0, 1}";
type = Anchor;
},
{
horizontal = 1;
origin = "{0, 2}";
type = Anchor;
},
{
horizontal = 1;
origin = "{0, 3}";
type = Anchor;
},
{
horizontal = 1;
origin = "{0, 4}";
type = Anchor;
},
{
horizontal = 1;
origin = "{0, 5}";
type = Anchor;
},
{
horizontal = 1;
origin = "{0, 6}";
type = Anchor;
},
{
horizontal = 1;
origin = "{0, 7}";
type = Anchor;
},
{
horizontal = 1;
origin = "{0, 8}";
type = Anchor;
},
{
horizontal = 1;
origin = "{0, 9}";
type = Anchor;
},
{
horizontal = 1;
origin = "{0, 10}";
type = Anchor;
},
{
horizontal = 1;
origin = "{0, 11}";
type = Anchor;
},
{
horizontal = 1;
origin = "{0, 12}";
type = Anchor;
},
{
horizontal = 1;
origin = "{0, 13}";
type = Anchor;
},
{
horizontal = 1;
origin = "{0, 14}";
type = Anchor;
},
{
horizontal = 1;
origin = "{0, 15}";
type = Anchor;
},
{
horizontal = 1;
origin = "{0, 16}";
type = Anchor;
},
{
horizontal = 1;
origin = "{0, 17}";
type = Anchor;
},
{
horizontal = 1;
origin = "{0, 18}";
type = Anchor;
},
{
horizontal = 1;
origin = "{0, 19}";
type = Anchor;
},
{
horizontal = 1;
origin = "{1, 0}";
type = Anchor;
},
{
horizontal = 1;
origin = "{1, 1}";
type = Anchor;
},
{
horizontal = 1;
origin = "{1, 2}";
type = Anchor;
},
{
horizontal = 1;
origin = "{1, 3}";
type = Anchor;
},
{
horizontal = 1;
origin = "{1, 4}";
type = Anchor;
},
{
horizontal = 1;
origin = "{1, 5}";
type = Anchor;
},
{
horizontal = 1;
origin = "{1, 6}";
type = Anchor;
},
{
horizontal = 1;
origin = "{1, 7}";
type = Anchor;
},
{
horizontal = 1;
origin = "{1, 8}";
type = Anchor;
},
{
horizontal = 1;
origin = "{1, 9}";
type = Anchor;
},
{
horizontal = 1;
origin = "{1, 10}";
type = Anchor;
},
{
horizontal = 1;
origin = "{1, 11}";
type = Anchor;
},
{
horizontal = 1;
origin = "{1, 12}";
type = Anchor;
},
{
horizontal = 1;
origin = "{1, 13}";
type = Anchor;
},
{
horizontal = 1;
origin = "{1, 14}";
type = Anchor;
},
{
horizontal = 1;
origin = "{1, 15}";
type = Anchor;
},
{
horizontal = 1;
origin = "{1, 16}";
type = Anchor;
},
{
horizontal = 1;
origin = "{1, 17}";
type = Anchor;
},
{
horizontal = 1;
origin = "{0, 3}";
type = Delta;
settings = {
deltaV = {
"{100, 100, 0, 0, 0}" = {
"14" = 3;
};
};
};
},
{
horizontal = 1;
origin = "{0, 4}";
type = Delta;
settings = {
deltaV = {
"{100, 100, 0, 0, 0}" = {
"14" = 3;
};
};
};
}
);
layerId = "3E4CAA31-52BF-436B-A4FF-501363857ACF";
paths = (
{
closed = 1;
nodes = (
"1342 993 OFFCURVE",
"1287 1226 OFFCURVE",
"1132 1367 CURVE SMOOTH",
"976 1507 OFFCURVE",
"661 1514 OFFCURVE",
"463 1379 CURVE SMOOTH",
"265 1243 OFFCURVE",
"144 1008 OFFCURVE",
"109 761 CURVE SMOOTH",
"101 695 LINE SMOOTH",
"73 462 OFFCURVE",
"129 230 OFFCURVE",
"285 90 CURVE SMOOTH",
"441 -51 OFFCURVE",
"754 -57 OFFCURVE",
"952 76 CURVE SMOOTH",
"1150 209 OFFCURVE",
"1270 441 OFFCURVE",
"1305 689 CURVE SMOOTH",
"1315 760 LINE SMOOTH"
);
},
{
closed = 1;
nodes = (
"1029 809 OFFCURVE",
"1010 632 OFFCURVE",
"951 481 CURVE SMOOTH",
"891 330 OFFCURVE",
"785 219 OFFCURVE",
"614 226 CURVE SMOOTH",
"454 233 OFFCURVE",
"397 353 OFFCURVE",
"392 497 CURVE SMOOTH",
"385 638 OFFCURVE",
"403 820 OFFCURVE",
"463 973 CURVE SMOOTH",
"523 1125 OFFCURVE",
"630 1236 OFFCURVE",
"803 1229 CURVE SMOOTH",
"963 1222 OFFCURVE",
"1019 1103 OFFCURVE",
"1024 960 CURVE SMOOTH"
);
}
);
width = 1372;
}
);
leftKerningGroup = C;
note = O;
rightKerningGroup = D;
unicode = 004F;
},
{
glyphname = P;
lastChange = "2017-05-28 11:21:14 +0000";
layers = (
{
hints = (
{
horizontal = 1;
origin = "{0, 0}";
type = Anchor;
},
{
horizontal = 1;
origin = "{0, 1}";
type = Anchor;
},
{
horizontal = 1;
origin = "{0, 2}";
type = Anchor;
},
{
horizontal = 1;
origin = "{0, 3}";
type = Anchor;
},
{
horizontal = 1;
origin = "{0, 4}";
type = Anchor;
},
{
horizontal = 1;
origin = "{0, 5}";
type = Anchor;
},
{
horizontal = 1;
origin = "{0, 6}";
type = Anchor;
},
{
horizontal = 1;
origin = "{0, 7}";
type = Anchor;
},
{
horizontal = 1;
origin = "{0, 8}";
type = Anchor;
},
{
horizontal = 1;
origin = "{0, 9}";
type = Anchor;
},
{
horizontal = 1;
origin = "{0, 10}";
type = Anchor;
},
{
horizontal = 1;
origin = "{1, 0}";
type = Anchor;
},
{
horizontal = 1;
origin = "{1, 1}";
type = Anchor;
},
{
horizontal = 1;
origin = "{1, 2}";
type = Anchor;
},
{
horizontal = 1;
origin = "{1, 3}";
type = Anchor;
},
{
horizontal = 1;
origin = "{1, 4}";
type = Anchor;
},
{
horizontal = 1;
origin = "{1, 5}";
type = Anchor;
},
{
horizontal = 1;
origin = "{1, 6}";
type = Anchor;
},
{
horizontal = 1;
origin = "{1, 7}";
type = Anchor;
},
{
horizontal = 1;
origin = "{1, 8}";
type = Anchor;
}
);
layerId = "3E4CAA31-52BF-436B-A4FF-501363857ACF";
paths = (
{
closed = 1;
nodes = (
"978 513 OFFCURVE",
"1249 663 OFFCURVE",
"1274 983 CURVE SMOOTH",
"1297 1274 OFFCURVE",
"1087 1448 OFFCURVE",
"808 1455 CURVE SMOOTH",
"274 1456 LINE",
"21 0 LINE",
"315 0 LINE",
"405 514 LINE",
"682 513 LINE SMOOTH"
);
},
{
closed = 1;
nodes = (
"937 1205 OFFCURVE",
"997 1110 OFFCURVE",
"978 981 CURVE SMOOTH",
"957 829 OFFCURVE",
"836 755 OFFCURVE",
"689 754 CURVE SMOOTH",
"446 756 LINE",
"526 1213 LINE",
"802 1212 LINE"
);
}
);
width = 1282;
}
);
note = P;
rightKerningGroup = P;
unicode = 0050;
},
{
glyphname = Q;
lastChange = "2017-05-28 11:21:18 +0000";
layers = (
{
hints = (
{
horizontal = 1;
origin = "{0, 0}";
type = Anchor;
},
{
horizontal = 1;
origin = "{0, 1}";
type = Anchor;
},
{
horizontal = 1;
origin = "{0, 2}";
type = Anchor;
},
{
horizontal = 1;
origin = "{0, 3}";
type = Anchor;
},
{
horizontal = 1;
origin = "{0, 4}";
type = Anchor;
},
{
horizontal = 1;
origin = "{0, 5}";
type = Anchor;
},
{
horizontal = 1;
origin = "{0, 6}";
type = Anchor;
},
{
horizontal = 1;
origin = "{0, 7}";
type = Anchor;
},
{
horizontal = 1;
origin = "{0, 8}";
type = Anchor;
},
{
horizontal = 1;
origin = "{0, 9}";
type = Anchor;
},
{
horizontal = 1;
origin = "{0, 10}";
type = Anchor;
},
{
horizontal = 1;
origin = "{0, 11}";
type = Anchor;
},
{
horizontal = 1;
origin = "{0, 12}";
type = Anchor;
},
{
horizontal = 1;
origin = "{0, 13}";
type = Anchor;
},
{
horizontal = 1;
origin = "{0, 14}";
type = Anchor;
},
{
horizontal = 1;
origin = "{0, 15}";
type = Anchor;
},
{
horizontal = 1;
origin = "{0, 16}";
type = Anchor;
},
{
horizontal = 1;
origin = "{0, 17}";
type = Anchor;
},
{
horizontal = 1;
origin = "{0, 18}";
type = Anchor;
},
{
horizontal = 1;
origin = "{0, 19}";
type = Anchor;
},
{
horizontal = 1;
origin = "{0, 20}";
type = Anchor;
},
{
horizontal = 1;
origin = "{0, 21}";
type = Anchor;
},
{
horizontal = 1;
origin = "{0, 22}";
type = Anchor;
},
{
horizontal = 1;
origin = "{0, 23}";
type = Anchor;
},
{
horizontal = 1;
origin = "{0, 24}";
type = Anchor;
},
{
horizontal = 1;
origin = "{0, 25}";
type = Anchor;
},
{
horizontal = 1;
origin = "{1, 0}";
type = Anchor;
},
{
horizontal = 1;
origin = "{1, 1}";
type = Anchor;
},
{
horizontal = 1;
origin = "{1, 2}";
type = Anchor;
},
{
horizontal = 1;
origin = "{1, 3}";
type = Anchor;
},
{
horizontal = 1;
origin = "{1, 4}";
type = Anchor;
},
{
horizontal = 1;
origin = "{1, 5}";
type = Anchor;
},
{
horizontal = 1;
origin = "{1, 6}";
type = Anchor;
},
{
horizontal = 1;
origin = "{1, 7}";
type = Anchor;
},
{
horizontal = 1;
origin = "{1, 8}";
type = Anchor;
},
{
horizontal = 1;
origin = "{1, 9}";
type = Anchor;
},
{
horizontal = 1;
origin = "{1, 10}";
type = Anchor;
},
{
horizontal = 1;
origin = "{1, 11}";
type = Anchor;
},
{
horizontal = 1;
origin = "{1, 12}";
type = Anchor;
},
{
horizontal = 1;
origin = "{1, 13}";
type = Anchor;
},
{
horizontal = 1;
origin = "{1, 14}";
type = Anchor;
},
{
horizontal = 1;
origin = "{1, 15}";
type = Anchor;
},
{
horizontal = 1;
origin = "{1, 16}";
type = Anchor;
},
{
horizontal = 1;
origin = "{1, 17}";
type = Anchor;
}
);
layerId = "3E4CAA31-52BF-436B-A4FF-501363857ACF";
paths = (
{
closed = 1;
nodes = (
"1168 231 OFFCURVE",
"1272 457 OFFCURVE",
"1304 696 CURVE SMOOTH",
"1312 763 LINE SMOOTH",
"1340 996 OFFCURVE",
"1285 1227 OFFCURVE",
"1129 1367 CURVE SMOOTH",
"973 1507 OFFCURVE",
"659 1514 OFFCURVE",
"461 1379 CURVE SMOOTH",
"263 1244 OFFCURVE",
"142 1008 OFFCURVE",
"107 761 CURVE SMOOTH",
"99 695 LINE SMOOTH",
"85 579 OFFCURVE",
"93 467 OFFCURVE",
"122 359 CURVE SMOOTH",
"180 142 OFFCURVE",
"333 -15 OFFCURVE",
"596 -19 CURVE SMOOTH",
"627 -20 OFFCURVE",
"663 -17 OFFCURVE",
"704 -12 CURVE",
"958 -260 LINE",
"1157 -104 LINE",
"957 95 LINE"
);
},
{
closed = 1;
nodes = (
"1030 778 OFFCURVE",
"1004 616 OFFCURVE",
"946 473 CURVE SMOOTH",
"885 324 OFFCURVE",
"780 219 OFFCURVE",
"612 226 CURVE SMOOTH",
"452 233 OFFCURVE",
"397 354 OFFCURVE",
"390 498 CURVE SMOOTH",
"382 676 OFFCURVE",
"407 837 OFFCURVE",
"465 980 CURVE SMOOTH",
"525 1127 OFFCURVE",
"629 1236 OFFCURVE",
"801 1229 CURVE SMOOTH",
"961 1222 OFFCURVE",
"1016 1103 OFFCURVE",
"1023 960 CURVE SMOOTH"
);
}
);
width = 1372;
}
);
leftKerningGroup = C;
note = Q;
unicode = 0051;
},
{
glyphname = R;
lastChange = "2017-05-28 11:21:21 +0000";
layers = (
{
hints = (
{
horizontal = 1;
origin = "{0, 0}";
type = Anchor;
},
{
horizontal = 1;
origin = "{0, 1}";
type = Anchor;
},
{
horizontal = 1;
origin = "{0, 2}";
type = Anchor;
},
{
horizontal = 1;
origin = "{0, 3}";
type = Anchor;
},
{
horizontal = 1;
origin = "{0, 4}";
type = Anchor;
},
{
horizontal = 1;
origin = "{0, 5}";
type = Anchor;
},
{
horizontal = 1;
origin = "{0, 6}";
type = Anchor;
},
{
horizontal = 1;
origin = "{0, 7}";
type = Anchor;
},
{
horizontal = 1;
origin = "{0, 8}";
type = Anchor;
},
{
horizontal = 1;
origin = "{0, 9}";
type = Anchor;
},
{
horizontal = 1;
origin = "{0, 10}";
type = Anchor;
},
{
horizontal = 1;
origin = "{0, 11}";
type = Anchor;
},
{
horizontal = 1;
origin = "{0, 12}";
type = Anchor;
},
{
horizontal = 1;
origin = "{0, 13}";
type = Anchor;
},
{
horizontal = 1;
origin = "{0, 14}";
type = Anchor;
},
{
horizontal = 1;
origin = "{1, 0}";
type = Anchor;
},
{
horizontal = 1;
origin = "{1, 1}";
type = Anchor;
},
{
horizontal = 1;
origin = "{1, 2}";
type = Anchor;
},
{
horizontal = 1;
origin = "{1, 3}";
type = Anchor;
},
{
horizontal = 1;
origin = "{1, 4}";
type = Anchor;
},
{
horizontal = 1;
origin = "{1, 5}";
type = Anchor;
},
{
horizontal = 1;
origin = "{1, 6}";
type = Anchor;
},
{
horizontal = 1;
origin = "{1, 7}";
type = Anchor;
},
{
horizontal = 1;
origin = "{1, 8}";
type = Anchor;
}
);
layerId = "3E4CAA31-52BF-436B-A4FF-501363857ACF";
paths = (
{
closed = 1;
nodes = (
"1130 16 LINE",
"926 608 LINE",
"1125 686 OFFCURVE",
"1231 825 OFFCURVE",
"1245 1024 CURVE SMOOTH",
"1266 1316 OFFCURVE",
"1052 1448 OFFCURVE",
"785 1455 CURVE SMOOTH",
"274 1456 LINE",
"21 0 LINE",
"315 0 LINE",
"408 534 LINE",
"646 534 LINE",
"817 0 LINE",
"1130 0 LINE"
);
},
{
closed = 1;
nodes = (
"911 1207 OFFCURVE",
"969 1136 OFFCURVE",
"949 1001 CURVE SMOOTH",
"928 853 OFFCURVE",
"811 775 OFFCURVE",
"667 774 CURVE SMOOTH",
"450 776 LINE",
"526 1213 LINE",
"776 1212 LINE SMOOTH"
);
}
);
width = 1268;
}
);
note = R;
unicode = 0052;
},
{
glyphname = S;
lastChange = "2017-05-28 11:21:23 +0000";
layers = (
{
hints = (
{
horizontal = 1;
origin = "{0, 0}";
type = Anchor;
},
{
horizontal = 1;
origin = "{0, 1}";
type = Anchor;
},
{
horizontal = 1;
origin = "{0, 2}";
type = Anchor;
},
{
horizontal = 1;
origin = "{0, 3}";
type = Anchor;
},
{
horizontal = 1;
origin = "{0, 4}";
type = Anchor;
},
{
horizontal = 1;
origin = "{0, 5}";
type = Anchor;
},
{
horizontal = 1;
origin = "{0, 6}";
type = Anchor;
},
{
horizontal = 1;
origin = "{0, 7}";
type = Anchor;
},
{
horizontal = 1;
origin = "{0, 8}";
type = Anchor;
},
{
horizontal = 1;
origin = "{0, 9}";
type = Anchor;
},
{
horizontal = 1;
origin = "{0, 10}";
type = Anchor;
},
{
horizontal = 1;
origin = "{0, 11}";
type = Anchor;
},
{
horizontal = 1;
origin = "{0, 12}";
type = Anchor;
},
{
horizontal = 1;
origin = "{0, 13}";
type = Anchor;
},
{
horizontal = 1;
origin = "{0, 14}";
type = Anchor;
},
{
horizontal = 1;
origin = "{0, 15}";
type = Anchor;
},
{
horizontal = 1;
origin = "{0, 16}";
type = Anchor;
},
{
horizontal = 1;
origin = "{0, 17}";
type = Anchor;
},
{
horizontal = 1;
origin = "{0, 18}";
type = Anchor;
},
{
horizontal = 1;
origin = "{0, 19}";
type = Anchor;
},
{
horizontal = 1;
origin = "{0, 20}";
type = Anchor;
},
{
horizontal = 1;
origin = "{0, 21}";
type = Anchor;
},
{
horizontal = 1;
origin = "{0, 22}";
type = Anchor;
},
{
horizontal = 1;
origin = "{0, 23}";
type = Anchor;
},
{
horizontal = 1;
origin = "{0, 24}";
type = Anchor;
},
{
horizontal = 1;
origin = "{0, 25}";
type = Anchor;
},
{
horizontal = 1;
origin = "{0, 26}";
type = Anchor;
},
{
horizontal = 1;
origin = "{0, 27}";
type = Anchor;
},
{
horizontal = 1;
origin = "{0, 28}";
type = Anchor;
},
{
horizontal = 1;
origin = "{0, 29}";
type = Anchor;
},
{
horizontal = 1;
origin = "{0, 30}";
type = Anchor;
},
{
horizontal = 1;
origin = "{0, 31}";
type = Anchor;
},
{
horizontal = 1;
origin = "{0, 32}";
type = Anchor;
},
{
horizontal = 1;
origin = "{0, 33}";
type = Anchor;
},
{
horizontal = 1;
origin = "{0, 34}";
type = Anchor;
},
{
horizontal = 1;
origin = "{0, 35}";
type = Anchor;
},
{
horizontal = 1;
origin = "{0, 36}";
type = Anchor;
},
{
horizontal = 1;
origin = "{0, 37}";
type = Anchor;
},
{
horizontal = 1;
origin = "{0, 38}";
type = Anchor;
},
{
horizontal = 1;
origin = "{0, 39}";
type = Anchor;
},
{
horizontal = 1;
origin = "{0, 40}";
type = Anchor;
},
{
horizontal = 1;
origin = "{0, 41}";
type = Anchor;
},
{
horizontal = 1;
origin = "{0, 42}";
type = Anchor;
},
{
horizontal = 1;
origin = "{0, 43}";
type = Anchor;
},
{
horizontal = 1;
origin = "{0, 44}";
type = Anchor;
},
{
horizontal = 1;
origin = "{0, 45}";
type = Anchor;
},
{
horizontal = 1;
origin = "{0, 46}";
type = Anchor;
}
);
layerId = "3E4CAA31-52BF-436B-A4FF-501363857ACF";
paths = (
{
closed = 1;
nodes = (
"798 265 OFFCURVE",
"677 217 OFFCURVE",
"564 218 CURVE SMOOTH",
"399 220 OFFCURVE",
"321 300 OFFCURVE",
"330 459 CURVE",
"37 460 LINE",
"30 155 OFFCURVE",
"261 -16 OFFCURVE",
"552 -21 CURVE SMOOTH",
"728 -24 OFFCURVE",
"906 30 OFFCURVE",
"1019 153 CURVE SMOOTH",
"1131 276 OFFCURVE",
"1140 490 OFFCURVE",
"1068 608 CURVE SMOOTH",
"995 726 OFFCURVE",
"865 799 OFFCURVE",
"705 858 CURVE SMOOTH",
"650 878 OFFCURVE",
"562 907 OFFCURVE",
"510 960 CURVE SMOOTH",
"458 1012 OFFCURVE",
"471 1140 OFFCURVE",
"579 1196 CURVE SMOOTH",
"686 1252 OFFCURVE",
"950 1301 OFFCURVE",
"938 1026 CURVE",
"1230 1026 LINE",
"1234 1305 OFFCURVE",
"1033 1471 OFFCURVE",
"762 1476 CURVE SMOOTH",
"591 1480 OFFCURVE",
"407 1422 OFFCURVE",
"288 1298 CURVE SMOOTH",
"169 1174 OFFCURVE",
"170 978 OFFCURVE",
"231 871 CURVE SMOOTH",
"292 764 OFFCURVE",
"410 686 OFFCURVE",
"614 607 CURVE SMOOTH",
"715 568 OFFCURVE",
"777 534 OFFCURVE",
"800 505 CURVE SMOOTH",
"823 476 OFFCURVE",
"830 437 OFFCURVE",
"821 389 CURVE SMOOTH"
);
}
);
width = 1221;
}
);
leftKerningGroup = S;
note = S;
unicode = 0053;
},
{
glyphname = T;
lastChange = "2017-05-28 11:21:25 +0000";
layers = (
{
hints = (
{
horizontal = 1;
origin = "{0, 0}";
type = Anchor;
},
{
horizontal = 1;
origin = "{0, 1}";
type = Anchor;
},
{
horizontal = 1;
origin = "{0, 2}";
type = Anchor;
},
{
horizontal = 1;
origin = "{0, 3}";
type = Anchor;
},
{
horizontal = 1;
origin = "{0, 4}";
type = Anchor;
},
{
horizontal = 1;
origin = "{0, 5}";
type = Anchor;
},
{
horizontal = 1;
origin = "{0, 6}";
type = Anchor;
},
{
horizontal = 1;
origin = "{0, 7}";
type = Anchor;
}
);
layerId = "3E4CAA31-52BF-436B-A4FF-501363857ACF";
paths = (
{
closed = 1;
nodes = (
"361 0 LINE",
"654 0 LINE",
"864 1213 LINE",
"1295 1213 LINE",
"1338 1456 LINE",
"187 1456 LINE",
"144 1213 LINE",
"571 1213 LINE"
);
}
);
width = 1229;
}
);
leftKerningGroup = T;
note = T;
rightKerningGroup = T;
unicode = 0054;
},
{
glyphname = U;
lastChange = "2017-05-28 11:21:28 +0000";
layers = (
{
hints = (
{
horizontal = 1;
origin = "{0, 0}";
type = Anchor;
},
{
horizontal = 1;
origin = "{0, 1}";
type = Anchor;
},
{
horizontal = 1;
origin = "{0, 2}";
type = Anchor;
},
{
horizontal = 1;
origin = "{0, 3}";
type = Anchor;
},
{
horizontal = 1;
origin = "{0, 4}";
type = Anchor;
},
{
horizontal = 1;
origin = "{0, 5}";
type = Anchor;
},
{
horizontal = 1;
origin = "{0, 6}";
type = Anchor;
},
{
horizontal = 1;
origin = "{0, 7}";
type = Anchor;
},
{
horizontal = 1;
origin = "{0, 8}";
type = Anchor;
},
{
horizontal = 1;
origin = "{0, 9}";
type = Anchor;
},
{
horizontal = 1;
origin = "{0, 10}";
type = Anchor;
},
{
horizontal = 1;
origin = "{0, 11}";
type = Anchor;
},
{
horizontal = 1;
origin = "{0, 12}";
type = Anchor;
},
{
horizontal = 1;
origin = "{0, 13}";
type = Anchor;
},
{
horizontal = 1;
origin = "{0, 14}";
type = Anchor;
},
{
horizontal = 1;
origin = "{0, 15}";
type = Anchor;
},
{
horizontal = 1;
origin = "{0, 16}";
type = Anchor;
},
{
horizontal = 1;
origin = "{0, 17}";
type = Anchor;
}
);
layerId = "3E4CAA31-52BF-436B-A4FF-501363857ACF";
paths = (
{
closed = 1;
nodes = (
"858 329 OFFCURVE",
"755 215 OFFCURVE",
"582 222 CURVE SMOOTH",
"417 227 OFFCURVE",
"370 346 OFFCURVE",
"390 495 CURVE SMOOTH",
"553 1456 LINE",
"259 1456 LINE",
"96 496 LINE",
"61 184 OFFCURVE",
"262 -17 OFFCURVE",
"569 -21 CURVE SMOOTH",
"894 -26 OFFCURVE",
"1137 173 OFFCURVE",
"1181 497 CURVE SMOOTH",
"1345 1456 LINE",
"1051 1456 LINE",
"886 490 LINE SMOOTH"
);
}
);
width = 1308;
}
);
leftKerningGroup = U;
note = U;
rightKerningGroup = J;
unicode = 0055;
},
{
glyphname = V;
lastChange = "2017-05-28 11:21:30 +0000";
layers = (
{
hints = (
{
horizontal = 1;
origin = "{0, 0}";
type = Anchor;
},
{
horizontal = 1;
origin = "{0, 1}";
type = Anchor;
},
{
horizontal = 1;
origin = "{0, 2}";
type = Anchor;
},
{
horizontal = 1;
origin = "{0, 3}";
type = Anchor;
},
{
horizontal = 1;
origin = "{0, 4}";
type = Anchor;
},
{
horizontal = 1;
origin = "{0, 5}";
type = Anchor;
},
{
horizontal = 1;
origin = "{0, 6}";
type = Anchor;
}
);
layerId = "3E4CAA31-52BF-436B-A4FF-501363857ACF";
paths = (
{
closed = 1;
nodes = (
"607 365 LINE",
"460 1456 LINE",
"146 1456 LINE",
"408 0 LINE",
"713 0 LINE",
"1433 1456 LINE",
"1097 1456 LINE"
);
}
);
width = 1299;
}
);
leftKerningGroup = V;
note = V;
rightKerningGroup = V;
unicode = 0056;
},
{
glyphname = W;
lastChange = "2017-05-28 11:21:32 +0000";
layers = (
{
hints = (
{
horizontal = 1;
origin = "{0, 0}";
type = Anchor;
},
{
horizontal = 1;
origin = "{0, 1}";
type = Anchor;
},
{
horizontal = 1;
origin = "{0, 2}";
type = Anchor;
},
{
horizontal = 1;
origin = "{0, 3}";
type = Anchor;
},
{
horizontal = 1;
origin = "{0, 4}";
type = Anchor;
},
{
horizontal = 1;
origin = "{0, 5}";
type = Anchor;
},
{
horizontal = 1;
origin = "{0, 6}";
type = Anchor;
},
{
horizontal = 1;
origin = "{0, 7}";
type = Anchor;
},
{
horizontal = 1;
origin = "{0, 8}";
type = Anchor;
},
{
horizontal = 1;
origin = "{0, 9}";
type = Anchor;
},
{
horizontal = 1;
origin = "{0, 10}";
type = Anchor;
},
{
horizontal = 1;
origin = "{0, 11}";
type = Anchor;
},
{
horizontal = 1;
origin = "{0, 12}";
type = Anchor;
}
);
layerId = "3E4CAA31-52BF-436B-A4FF-501363857ACF";
paths = (
{
closed = 1;
nodes = (
"1196 426 LINE",
"1126 1456 LINE",
"877 1456 LINE",
"485 429 LINE",
"456 1456 LINE",
"170 1456 LINE",
"257 0 LINE",
"552 0 LINE",
"933 970 LINE",
"1010 0 LINE",
"1305 0 LINE",
"1845 1456 LINE",
"1547 1456 LINE"
);
}
);
width = 1738;
}
);
leftKerningGroup = W;
note = W;
rightKerningGroup = W;
unicode = 0057;
},
{
glyphname = X;
lastChange = "2017-05-28 11:21:34 +0000";
layers = (
{
hints = (
{
horizontal = 1;
origin = "{0, 0}";
type = Anchor;
},
{
horizontal = 1;
origin = "{0, 1}";
type = Anchor;
},
{
horizontal = 1;
origin = "{0, 2}";
type = Anchor;
},
{
horizontal = 1;
origin = "{0, 3}";
type = Anchor;
},
{
horizontal = 1;
origin = "{0, 4}";
type = Anchor;
},
{
horizontal = 1;
origin = "{0, 5}";
type = Anchor;
},
{
horizontal = 1;
origin = "{0, 6}";
type = Anchor;
},
{
horizontal = 1;
origin = "{0, 7}";
type = Anchor;
},
{
horizontal = 1;
origin = "{0, 8}";
type = Anchor;
},
{
horizontal = 1;
origin = "{0, 9}";
type = Anchor;
},
{
horizontal = 1;
origin = "{0, 10}";
type = Anchor;
},
{
horizontal = 1;
origin = "{0, 11}";
type = Anchor;
}
);
layerId = "3E4CAA31-52BF-436B-A4FF-501363857ACF";
paths = (
{
closed = 1;
nodes = (
"467 748 LINE",
"-81 0 LINE",
"276 0 LINE",
"626 508 LINE",
"817 0 LINE",
"1141 0 LINE",
"840 720 LINE",
"1374 1456 LINE",
"1022 1456 LINE",
"680 957 LINE",
"495 1456 LINE",
"174 1456 LINE"
);
}
);
width = 1263;
}
);
leftKerningGroup = X;
note = X;
rightKerningGroup = X;
unicode = 0058;
},
{
glyphname = Y;
lastChange = "2017-05-28 11:21:36 +0000";
layers = (
{
hints = (
{
horizontal = 1;
origin = "{0, 0}";
type = Anchor;
},
{
horizontal = 1;
origin = "{0, 1}";
type = Anchor;
},
{
horizontal = 1;
origin = "{0, 2}";
type = Anchor;
},
{
horizontal = 1;
origin = "{0, 3}";
type = Anchor;
},
{
horizontal = 1;
origin = "{0, 4}";
type = Anchor;
},
{
horizontal = 1;
origin = "{0, 5}";
type = Anchor;
},
{
horizontal = 1;
origin = "{0, 6}";
type = Anchor;
},
{
horizontal = 1;
origin = "{0, 7}";
type = Anchor;
},
{
horizontal = 1;
origin = "{0, 8}";
type = Anchor;
}
);
layerId = "3E4CAA31-52BF-436B-A4FF-501363857ACF";
paths = (
{
closed = 1;
nodes = (
"457 545 LINE",
"362 0 LINE",
"659 0 LINE",
"747 511 LINE",
"1384 1456 LINE",
"1047 1456 LINE",
"641 802 LINE",
"463 1456 LINE",
"154 1455 LINE"
);
}
);
width = 1229;
}
);
leftKerningGroup = Y;
note = Y;
rightKerningGroup = Y;
unicode = 0059;
},
{
glyphname = Z;
lastChange = "2017-05-28 11:21:38 +0000";
layers = (
{
hints = (
{
horizontal = 1;
origin = "{0, 0}";
type = Anchor;
},
{
horizontal = 1;
origin = "{0, 1}";
type = Anchor;
},
{
horizontal = 1;
origin = "{0, 2}";
type = Anchor;
},
{
horizontal = 1;
origin = "{0, 3}";
type = Anchor;
},
{
horizontal = 1;
origin = "{0, 4}";
type = Anchor;
},
{
horizontal = 1;
origin = "{0, 5}";
type = Anchor;
},
{
horizontal = 1;
origin = "{0, 6}";
type = Anchor;
},
{
horizontal = 1;
origin = "{0, 7}";
type = Anchor;
},
{
horizontal = 1;
origin = "{0, 8}";
type = Anchor;
},
{
horizontal = 1;
origin = "{0, 9}";
type = Anchor;
}
);
layerId = "3E4CAA31-52BF-436B-A4FF-501363857ACF";
paths = (
{
closed = 1;
nodes = (
"-1 191 LINE",
"-34 0 LINE",
"1043 0 LINE",
"1085 242 LINE",
"378 244 LINE",
"1247 1269 LINE",
"1280 1456 LINE",
"219 1456 LINE",
"176 1213 LINE",
"871 1211 LINE"
);
}
);
width = 1205;
}
);
leftKerningGroup = Z;
note = Z;
rightKerningGroup = Z;
unicode = 005A;
},
{
glyphname = bracketleft;
lastChange = "2017-05-19 14:51:26 +0000";
layers = (
{
layerId = "3E4CAA31-52BF-436B-A4FF-501363857ACF";
paths = (
{
closed = 1;
nodes = (
"-32 -339 LINE",
"390 -339 LINE",
"425 -117 LINE",
"286 -117 LINE",
"534 1472 LINE",
"673 1472 LINE",
"708 1695 LINE",
"286 1695 LINE"
);
}
);
width = 553;
}
);
note = bracketleft;
unicode = 005B;
},
{
glyphname = backslash;
lastChange = "2017-05-19 14:51:26 +0000";
layers = (
{
layerId = "3E4CAA31-52BF-436B-A4FF-501363857ACF";
paths = (
{
closed = 1;
nodes = (
"429 1456 LINE",
"154 1456 LINE",
"470 -125 LINE",
"745 -125 LINE"
);
}
);
width = 839;
}
);
note = backslash;
unicode = 005C;
},
{
glyphname = bracketright;
lastChange = "2017-05-19 14:51:26 +0000";
layers = (
{
layerId = "3E4CAA31-52BF-436B-A4FF-501363857ACF";
paths = (
{
closed = 1;
nodes = (
"38 -117 LINE",
"-101 -117 LINE",
"-136 -339 LINE",
"286 -339 LINE",
"604 1695 LINE",
"182 1695 LINE",
"147 1472 LINE",
"287 1472 LINE"
);
}
);
width = 553;
}
);
note = bracketright;
unicode = 005D;
},
{
glyphname = asciicircum;
lastChange = "2017-05-19 14:51:26 +0000";
layers = (
{
layerId = "3E4CAA31-52BF-436B-A4FF-501363857ACF";
paths = (
{
closed = 1;
nodes = (
"544 1182 LINE",
"632 729 LINE",
"843 729 LINE",
"680 1456 LINE",
"475 1456 LINE",
"58 729 LINE",
"296 729 LINE"
);
}
);
width = 869;
}
);
note = asciicircum;
unicode = 005E;
},
{
glyphname = underscore;
lastChange = "2017-05-19 14:51:26 +0000";
layers = (
{
layerId = "3E4CAA31-52BF-436B-A4FF-501363857ACF";
paths = (
{
closed = 1;
nodes = (
"-144 -226 LINE",
"742 -226 LINE",
"781 0 LINE",
"-104 0 LINE"
);
}
);
width = 888;
}
);
note = underscore;
unicode = 005F;
},
{
glyphname = grave;
lastChange = "2017-05-19 14:51:26 +0000";
layers = (
{
layerId = "3E4CAA31-52BF-436B-A4FF-501363857ACF";
paths = (
{
closed = 1;
nodes = (
"426 1228 LINE",
"637 1227 LINE",
"495 1536 LINE",
"203 1534 LINE"
);
}
);
width = 658;
}
);
note = grave;
unicode = 0060;
},
{
glyphname = a;
lastChange = "2017-05-19 14:51:26 +0000";
layers = (
{
layerId = "3E4CAA31-52BF-436B-A4FF-501363857ACF";
paths = (
{
closed = 1;
nodes = (
"904 19 LINE",
"888 57 OFFCURVE",
"882 98 OFFCURVE",
"886 141 CURVE SMOOTH",
"896 238 LINE",
"974 722 LINE",
"986 841 OFFCURVE",
"955 934 OFFCURVE",
"881 1000 CURVE SMOOTH",
"732 1132 OFFCURVE",
"529 1117 OFFCURVE",
"385 1069 CURVE SMOOTH",
"241 1020 OFFCURVE",
"131 918 OFFCURVE",
"123 757 CURVE",
"406 758 LINE",
"424 848 OFFCURVE",
"481 892 OFFCURVE",
"576 889 CURVE SMOOTH",
"675 886 OFFCURVE",
"705 815 OFFCURVE",
"690 726 CURVE",
"675 660 LINE",
"543 662 LINE SMOOTH",
"382 662 OFFCURVE",
"210 624 OFFCURVE",
"102 518 CURVE SMOOTH",
"-6 412 OFFCURVE",
"-21 185 OFFCURVE",
"107 69 CURVE SMOOTH",
"235 -47 OFFCURVE",
"455 -62 OFFCURVE",
"615 98 CURVE",
"614 60 OFFCURVE",
"617 27 OFFCURVE",
"626 0 CURVE",
"903 0 LINE"
);
},
{
closed = 1;
nodes = (
"337 200 OFFCURVE",
"292 245 OFFCURVE",
"303 317 CURVE SMOOTH",
"320 445 OFFCURVE",
"445 493 OFFCURVE",
"560 494 CURVE SMOOTH",
"656 493 LINE",
"621 305 LINE",
"560 232 OFFCURVE",
"489 196 OFFCURVE",
"408 199 CURVE SMOOTH"
);
}
);
width = 1065;
}
);
leftKerningGroup = a;
note = a;
rightKerningGroup = a;
unicode = 0061;
},
{
glyphname = b;
lastChange = "2017-05-19 14:51:26 +0000";
layers = (
{
layerId = "3E4CAA31-52BF-436B-A4FF-501363857ACF";
paths = (
{
closed = 1;
nodes = (
"662 -23 OFFCURVE",
"746 2 OFFCURVE",
"812 54 CURVE SMOOTH",
"935 151 OFFCURVE",
"1012 312 OFFCURVE",
"1043 538 CURVE SMOOTH",
"1045 554 LINE SMOOTH",
"1061 718 OFFCURVE",
"1037 900 OFFCURVE",
"934 1014 CURVE SMOOTH",
"831 1128 OFFCURVE",
"595 1144 OFFCURVE",
"444 984 CURVE",
"552 1536 LINE",
"268 1536 LINE",
"2 0 LINE",
"260 0 LINE",
"301 117 LINE",
"361 28 OFFCURVE",
"448 -17 OFFCURVE",
"561 -20 CURVE SMOOTH"
);
},
{
closed = 1;
nodes = (
"680 867 OFFCURVE",
"717 848 OFFCURVE",
"737 812 CURVE SMOOTH",
"777 740 OFFCURVE",
"771 645 OFFCURVE",
"760 533 CURVE SMOOTH",
"747 434 OFFCURVE",
"717 325 OFFCURVE",
"646 260 CURVE SMOOTH",
"575 195 OFFCURVE",
"390 181 OFFCURVE",
"341 325 CURVE",
"418 756 LINE",
"474 834 OFFCURVE",
"543 872 OFFCURVE",
"625 869 CURVE SMOOTH"
);
}
);
width = 1118;
}
);
note = b;
rightKerningGroup = b;
unicode = 0062;
},
{
glyphname = c;
lastChange = "2017-05-19 14:51:26 +0000";
layers = (
{
layerId = "3E4CAA31-52BF-436B-A4FF-501363857ACF";
paths = (
{
closed = 1;
nodes = (
"368 215 OFFCURVE",
"334 296 OFFCURVE",
"331 393 CURVE SMOOTH",
"324 609 OFFCURVE",
"370 878 OFFCURVE",
"586 870 CURVE SMOOTH",
"698 866 OFFCURVE",
"738 779 OFFCURVE",
"737 678 CURVE",
"1001 678 LINE",
"1004 923 OFFCURVE",
"857 1097 OFFCURVE",
"605 1102 CURVE SMOOTH",
"282 1109 OFFCURVE",
"87 854 OFFCURVE",
"55 554 CURVE SMOOTH",
"52 525 LINE SMOOTH",
"27 240 OFFCURVE",
"160 -14 OFFCURVE",
"472 -21 CURVE SMOOTH",
"708 -25 OFFCURVE",
"926 130 OFFCURVE",
"943 374 CURVE",
"677 373 LINE",
"657 274 OFFCURVE",
"583 209 OFFCURVE",
"479 212 CURVE SMOOTH"
);
}
);
width = 1037;
}
);
leftKerningGroup = c;
note = c;
rightKerningGroup = c;
unicode = 0063;
},
{
glyphname = d;
lastChange = "2017-05-19 14:51:26 +0000";
layers = (
{
layerId = "3E4CAA31-52BF-436B-A4FF-501363857ACF";
paths = (
{
closed = 1;
nodes = (
"1173 1536 LINE",
"890 1536 LINE",
"784 983 LINE",
"661 1136 OFFCURVE",
"419 1134 OFFCURVE",
"282 1021 CURVE SMOOTH",
"159 920 OFFCURVE",
"83 760 OFFCURVE",
"53 541 CURVE SMOOTH",
"51 525 LINE SMOOTH",
"35 366 OFFCURVE",
"64 185 OFFCURVE",
"168 70 CURVE SMOOTH",
"271 -46 OFFCURVE",
"508 -71 OFFCURVE",
"671 116 CURVE",
"655 0 LINE",
"907 0 LINE"
);
},
{
closed = 1;
nodes = (
"350 643 OFFCURVE",
"386 754 OFFCURVE",
"459 822 CURVE SMOOTH",
"531 890 OFFCURVE",
"704 902 OFFCURVE",
"756 758 CURVE",
"679 325 LINE",
"619 248 OFFCURVE",
"550 212 OFFCURVE",
"473 215 CURVE SMOOTH",
"420 217 OFFCURVE",
"384 236 OFFCURVE",
"364 272 CURVE SMOOTH",
"323 343 OFFCURVE",
"327 450 OFFCURVE",
"336 526 CURVE SMOOTH",
"338 547 LINE SMOOTH"
);
}
);
width = 1120;
}
);
leftKerningGroup = c;
note = d;
unicode = 0064;
},
{
glyphname = e;
lastChange = "2017-05-19 14:51:26 +0000";
layers = (
{
layerId = "3E4CAA31-52BF-436B-A4FF-501363857ACF";
paths = (
{
closed = 1;
nodes = (
"726 251 OFFCURVE",
"636 211 OFFCURVE",
"537 214 CURVE SMOOTH",
"400 218 OFFCURVE",
"332 318 OFFCURVE",
"336 447 CURVE",
"1000 447 LINE",
"1016 570 LINE SMOOTH",
"1031 709 OFFCURVE",
"1007 831 OFFCURVE",
"942 938 CURVE SMOOTH",
"813 1151 OFFCURVE",
"497 1132 OFFCURVE",
"337 1028 CURVE SMOOTH",
"177 924 OFFCURVE",
"80 741 OFFCURVE",
"60 541 CURVE SMOOTH",
"57 501 LINE SMOOTH",
"34 212 OFFCURVE",
"216 -16 OFFCURVE",
"513 -20 CURVE SMOOTH",
"672 -23 OFFCURVE",
"845 38 OFFCURVE",
"937 174 CURVE",
"807 333 LINE"
);
},
{
closed = 1;
nodes = (
"720 867 OFFCURVE",
"768 778 OFFCURVE",
"751 669 CURVE",
"745 644 LINE",
"357 644 LINE",
"398 757 OFFCURVE",
"467 874 OFFCURVE",
"603 870 CURVE SMOOTH"
);
}
);
width = 1074;
}
);
leftKerningGroup = c;
note = e;
rightKerningGroup = e;
unicode = 0065;
},
{
glyphname = f;
lastChange = "2017-05-19 14:51:26 +0000";
layers = (
{
layerId = "3E4CAA31-52BF-436B-A4FF-501363857ACF";
paths = (
{
closed = 1;
nodes = (
"550 1082 LINE",
"565 1170 LINE SMOOTH",
"574 1222 OFFCURVE",
"596 1261 OFFCURVE",
"632 1287 CURVE SMOOTH",
"703 1339 OFFCURVE",
"785 1329 OFFCURVE",
"844 1313 CURVE",
"869 1538 LINE",
"802 1552 OFFCURVE",
"751 1559 OFFCURVE",
"715 1559 CURVE SMOOTH",
"471 1563 OFFCURVE",
"310 1415 OFFCURVE",
"279 1176 CURVE SMOOTH",
"267 1083 LINE",
"111 1082 LINE",
"74 871 LINE",
"231 871 LINE",
"79 0 LINE",
"363 0 LINE",
"514 871 LINE",
"722 871 LINE",
"759 1082 LINE"
);
}
);
width = 712;
}
);
note = f;
unicode = 0066;
},
{
glyphname = g;
lastChange = "2017-05-19 14:51:26 +0000";
layers = (
{
layerId = "3E4CAA31-52BF-436B-A4FF-501363857ACF";
paths = (
{
closed = 1;
nodes = (
"853 1083 LINE",
"816 978 LINE",
"757 1059 OFFCURVE",
"671 1101 OFFCURVE",
"558 1102 CURVE SMOOTH",
"455 1105 OFFCURVE",
"368 1079 OFFCURVE",
"298 1024 CURVE SMOOTH",
"157 914 OFFCURVE",
"80 728 OFFCURVE",
"57 547 CURVE",
"55 525 LINE SMOOTH",
"39 364 OFFCURVE",
"72 183 OFFCURVE",
"180 69 CURVE SMOOTH",
"287 -45 OFFCURVE",
"516 -61 OFFCURVE",
"671 96 CURVE",
"653 25 LINE SMOOTH",
"634 -46 OFFCURVE",
"600 -102 OFFCURVE",
"550 -143 CURVE SMOOTH",
"450 -226 OFFCURVE",
"248 -239 OFFCURVE",
"123 -80 CURVE",
"-17 -252 LINE",
"76 -364 OFFCURVE",
"221 -422 OFFCURVE",
"365 -426 CURVE SMOOTH",
"662 -433 OFFCURVE",
"893 -262 OFFCURVE",
"934 37 CURVE SMOOTH",
"1112 1082 LINE"
);
},
{
closed = 1;
nodes = (
"351 621 OFFCURVE",
"380 703 OFFCURVE",
"424 772 CURVE SMOOTH",
"512 908 OFFCURVE",
"721 898 OFFCURVE",
"777 770 CURVE",
"693 314 LINE",
"635 245 OFFCURVE",
"567 212 OFFCURVE",
"488 215 CURVE SMOOTH",
"435 217 OFFCURVE",
"397 236 OFFCURVE",
"375 271 CURVE SMOOTH",
"330 341 OFFCURVE",
"329 446 OFFCURVE",
"337 526 CURVE"
);
}
);
width = 1135;
}
);
leftKerningGroup = c;
note = g;
unicode = 0067;
},
{
glyphname = h;
lastChange = "2017-05-19 14:51:26 +0000";
layers = (
{
layerId = "3E4CAA31-52BF-436B-A4FF-501363857ACF";
paths = (
{
closed = 1;
nodes = (
"728 865 OFFCURVE",
"750 789 OFFCURVE",
"737 686 CURVE",
"622 0 LINE",
"905 0 LINE",
"1019 682 LINE",
"1030 790 OFFCURVE",
"1014 887 OFFCURVE",
"972 972 CURVE SMOOTH",
"888 1142 OFFCURVE",
"602 1154 OFFCURVE",
"433 963 CURVE",
"545 1536 LINE",
"262 1536 LINE",
"-4 0 LINE",
"278 0 LINE",
"415 772 LINE",
"471 839 OFFCURVE",
"537 871 OFFCURVE",
"613 868 CURVE SMOOTH"
);
}
);
width = 1113;
}
);
note = h;
rightKerningGroup = h;
unicode = 0068;
},
{
glyphname = i;
lastChange = "2017-05-19 14:51:26 +0000";
layers = (
{
layerId = "3E4CAA31-52BF-436B-A4FF-501363857ACF";
paths = (
{
closed = 1;
nodes = (
"239 1268 OFFCURVE",
"311 1209 OFFCURVE",
"398 1212 CURVE SMOOTH",
"486 1213 OFFCURVE",
"554 1276 OFFCURVE",
"553 1367 CURVE SMOOTH",
"550 1456 OFFCURVE",
"480 1514 OFFCURVE",
"393 1513 CURVE SMOOTH",
"304 1512 OFFCURVE",
"235 1448 OFFCURVE",
"238 1357 CURVE SMOOTH"
);
},
{
closed = 1;
nodes = (
"18 0 LINE",
"302 0 LINE",
"490 1082 LINE",
"206 1082 LINE"
);
}
);
width = 527;
}
);
note = i;
unicode = 0069;
},
{
glyphname = j;
lastChange = "2017-05-19 14:51:26 +0000";
layers = (
{
layerId = "3E4CAA31-52BF-436B-A4FF-501363857ACF";
paths = (
{
closed = 1;
nodes = (
"235 1269 OFFCURVE",
"306 1211 OFFCURVE",
"393 1212 CURVE SMOOTH",
"481 1213 OFFCURVE",
"549 1276 OFFCURVE",
"548 1367 CURVE SMOOTH",
"545 1456 OFFCURVE",
"475 1514 OFFCURVE",
"388 1513 CURVE SMOOTH",
"299 1512 OFFCURVE",
"231 1448 OFFCURVE",
"234 1357 CURVE SMOOTH"
);
},
{
closed = 1;
nodes = (
"-6 -155 OFFCURVE",
"-61 -204 OFFCURVE",
"-152 -203 CURVE SMOOTH",
"-175 -203 OFFCURVE",
"-205 -199 OFFCURVE",
"-240 -191 CURVE",
"-263 -421 LINE",
"-208 -432 OFFCURVE",
"-158 -439 OFFCURVE",
"-111 -440 CURVE SMOOTH",
"129 -441 OFFCURVE",
"267 -288 OFFCURVE",
"296 -60 CURVE",
"490 1082 LINE",
"206 1082 LINE",
"11 -55 LINE SMOOTH"
);
}
);
width = 517;
}
);
note = j;
unicode = 006A;
},
{
glyphname = k;
lastChange = "2017-05-19 14:51:26 +0000";
layers = (
{
layerId = "3E4CAA31-52BF-436B-A4FF-501363857ACF";
paths = (
{
closed = 1;
nodes = (
"672 618 LINE",
"1143 1082 LINE",
"782 1082 LINE",
"463 763 LINE",
"407 704 LINE",
"552 1537 LINE",
"269 1537 LINE",
"3 0 LINE",
"285 0 LINE",
"340 318 LINE",
"470 431 LINE",
"662 0 LINE",
"972 0 LINE"
);
}
);
width = 1061;
}
);
note = k;
unicode = 006B;
},
{
glyphname = l;
lastChange = "2017-05-19 14:51:26 +0000";
layers = (
{
layerId = "3E4CAA31-52BF-436B-A4FF-501363857ACF";
paths = (
{
closed = 1;
nodes = (
"18 0 LINE",
"302 0 LINE",
"568 1536 LINE",
"285 1536 LINE"
);
}
);
width = 527;
}
);
note = l;
unicode = 006C;
},
{
glyphname = m;
lastChange = "2017-05-19 14:51:26 +0000";
layers = (
{
layerId = "3E4CAA31-52BF-436B-A4FF-501363857ACF";
paths = (
{
closed = 1;
nodes = (
"724 865 OFFCURVE",
"742 788 OFFCURVE",
"730 689 CURVE",
"614 0 LINE",
"896 0 LINE",
"1022 722 LINE",
"1026 749 LINE",
"1082 830 OFFCURVE",
"1148 870 OFFCURVE",
"1224 869 CURVE SMOOTH",
"1336 866 OFFCURVE",
"1352 789 OFFCURVE",
"1341 692 CURVE",
"1225 0 LINE",
"1508 0 LINE",
"1623 689 LINE",
"1634 796 OFFCURVE",
"1619 891 OFFCURVE",
"1579 974 CURVE SMOOTH",
"1498 1141 OFFCURVE",
"1193 1162 OFFCURVE",
"1002 937 CURVE",
"967 1052 OFFCURVE",
"860 1099 OFFCURVE",
"747 1102 CURVE SMOOTH",
"622 1104 OFFCURVE",
"517 1057 OFFCURVE",
"431 961 CURVE",
"453 1083 LINE",
"189 1082 LINE",
"2 0 LINE",
"285 0 LINE",
"420 767 LINE",
"477 836 OFFCURVE",
"541 870 OFFCURVE",
"612 868 CURVE SMOOTH"
);
}
);
width = 1720;
}
);
leftKerningGroup = m;
note = m;
rightKerningGroup = h;
unicode = 006D;
},
{
glyphname = n;
lastChange = "2017-05-19 14:51:26 +0000";
layers = (
{
layerId = "3E4CAA31-52BF-436B-A4FF-501363857ACF";
paths = (
{
closed = 1;
nodes = (
"726 867 OFFCURVE",
"750 795 OFFCURVE",
"738 692 CURVE",
"622 0 LINE",
"905 0 LINE",
"1020 689 LINE",
"1030 794 OFFCURVE",
"1016 888 OFFCURVE",
"977 973 CURVE SMOOTH",
"900 1141 OFFCURVE",
"602 1156 OFFCURVE",
"425 956 CURVE",
"447 1083 LINE",
"185 1082 LINE",
"-3 0 LINE",
"279 0 LINE",
"414 765 LINE",
"473 836 OFFCURVE",
"539 871 OFFCURVE",
"613 868 CURVE SMOOTH"
);
}
);
width = 1113;
}
);
leftKerningGroup = m;
note = n;
rightKerningGroup = h;
unicode = 006E;
},
{
glyphname = o;
lastChange = "2017-05-19 14:51:26 +0000";
layers = (
{
layerId = "3E4CAA31-52BF-436B-A4FF-501363857ACF";
paths = (
{
closed = 1;
nodes = (
"27 236 OFFCURVE",
"177 -15 OFFCURVE",
"486 -20 CURVE SMOOTH",
"811 -27 OFFCURVE",
"1022 230 OFFCURVE",
"1051 553 CURVE SMOOTH",
"1076 842 OFFCURVE",
"931 1097 OFFCURVE",
"619 1102 CURVE SMOOTH",
"314 1107 OFFCURVE",
"87 877 OFFCURVE",
"54 524 CURVE SMOOTH"
);
},
{
closed = 1;
nodes = (
"345 594 OFFCURVE",
"358 644 OFFCURVE",
"377 695 CURVE SMOOTH",
"415 796 OFFCURVE",
"486 873 OFFCURVE",
"605 870 CURVE SMOOTH",
"717 866 OFFCURVE",
"760 786 OFFCURVE",
"769 690 CURVE SMOOTH",
"777 599 OFFCURVE",
"773 457 OFFCURVE",
"693 315 CURVE SMOOTH",
"613 173 OFFCURVE",
"431 198 OFFCURVE",
"383 261 CURVE SMOOTH",
"341 315 OFFCURVE",
"326 402 OFFCURVE",
"337 523 CURVE SMOOTH",
"339 545 LINE SMOOTH"
);
}
);
width = 1123;
}
);
leftKerningGroup = o;
note = o;
rightKerningGroup = o;
unicode = 006F;
},
{
glyphname = p;
lastChange = "2017-05-19 14:51:26 +0000";
layers = (
{
layerId = "3E4CAA31-52BF-436B-A4FF-501363857ACF";
paths = (
{
closed = 1;
nodes = (
"662 -23 OFFCURVE",
"747 4 OFFCURVE",
"814 60 CURVE SMOOTH",
"949 172 OFFCURVE",
"1022 358 OFFCURVE",
"1042 534 CURVE SMOOTH",
"1045 556 LINE",
"1061 719 OFFCURVE",
"1036 900 OFFCURVE",
"933 1014 CURVE SMOOTH",
"829 1128 OFFCURVE",
"584 1147 OFFCURVE",
"432 975 CURVE",
"449 1083 LINE",
"189 1082 LINE",
"-70 -416 LINE",
"213 -416 LINE",
"312 97 LINE",
"374 21 OFFCURVE",
"457 -18 OFFCURVE",
"561 -21 CURVE SMOOTH"
);
},
{
closed = 1;
nodes = (
"676 866 OFFCURVE",
"712 847 OFFCURVE",
"733 811 CURVE SMOOTH",
"774 739 OFFCURVE",
"771 645 OFFCURVE",
"760 534 CURVE",
"747 439 OFFCURVE",
"712 329 OFFCURVE",
"640 261 CURVE SMOOTH",
"568 193 OFFCURVE",
"391 181 OFFCURVE",
"339 318 CURVE",
"420 764 LINE",
"475 837 OFFCURVE",
"542 872 OFFCURVE",
"623 868 CURVE SMOOTH"
);
}
);
width = 1118;
}
);
leftKerningGroup = m;
note = p;
rightKerningGroup = b;
unicode = 0070;
},
{
glyphname = q;
lastChange = "2017-05-19 14:51:26 +0000";
layers = (
{
layerId = "3E4CAA31-52BF-436B-A4FF-501363857ACF";
paths = (
{
closed = 1;
nodes = (
"798 969 LINE",
"681 1141 OFFCURVE",
"430 1130 OFFCURVE",
"298 1034 CURVE SMOOTH",
"165 938 OFFCURVE",
"83 769 OFFCURVE",
"52 527 CURVE SMOOTH",
"36 368 OFFCURVE",
"64 186 OFFCURVE",
"167 70 CURVE SMOOTH",
"270 -46 OFFCURVE",
"501 -61 OFFCURVE",
"652 94 CURVE",
"551 -416 LINE",
"835 -416 LINE",
"1095 1082 LINE",
"843 1083 LINE"
);
},
{
closed = 1;
nodes = (
"351 645 OFFCURVE",
"387 756 OFFCURVE",
"460 823 CURVE SMOOTH",
"532 890 OFFCURVE",
"707 900 OFFCURVE",
"759 769 CURVE",
"677 318 LINE",
"620 245 OFFCURVE",
"552 210 OFFCURVE",
"473 213 CURVE SMOOTH",
"420 215 OFFCURVE",
"384 234 OFFCURVE",
"364 271 CURVE SMOOTH",
"323 344 OFFCURVE",
"327 452 OFFCURVE",
"336 528 CURVE SMOOTH",
"338 549 LINE"
);
}
);
width = 1122;
}
);
leftKerningGroup = c;
note = q;
unicode = 0071;
},
{
glyphname = r;
lastChange = "2017-05-19 14:51:26 +0000";
layers = (
{
layerId = "3E4CAA31-52BF-436B-A4FF-501363857ACF";
paths = (
{
closed = 1;
nodes = (
"661 822 OFFCURVE",
"693 819 OFFCURVE",
"744 812 CURVE",
"779 1090 LINE",
"742 1099 OFFCURVE",
"709 1104 OFFCURVE",
"682 1105 CURVE",
"583 1105 OFFCURVE",
"499 1054 OFFCURVE",
"430 951 CURVE",
"455 1083 LINE",
"190 1082 LINE",
"2 0 LINE",
"285 0 LINE",
"411 710 LINE",
"468 787 OFFCURVE",
"547 824 OFFCURVE",
"648 822 CURVE SMOOTH"
);
}
);
width = 726;
}
);
note = r;
rightKerningGroup = r;
unicode = 0072;
},
{
glyphname = s;
lastChange = "2017-05-19 14:51:26 +0000";
layers = (
{
layerId = "3E4CAA31-52BF-436B-A4FF-501363857ACF";
paths = (
{
closed = 1;
nodes = (
"613 218 OFFCURVE",
"521 187 OFFCURVE",
"441 188 CURVE SMOOTH",
"333 189 OFFCURVE",
"278 241 OFFCURVE",
"276 345 CURVE",
"9 347 LINE",
"14 114 OFFCURVE",
"212 -16 OFFCURVE",
"431 -20 CURVE SMOOTH",
"571 -23 OFFCURVE",
"726 22 OFFCURVE",
"826 122 CURVE SMOOTH",
"925 222 OFFCURVE",
"926 404 OFFCURVE",
"855 491 CURVE SMOOTH",
"784 578 OFFCURVE",
"665 622 OFFCURVE",
"544 651 CURVE SMOOTH",
"484 666 OFFCURVE",
"368 685 OFFCURVE",
"384 773 CURVE SMOOTH",
"399 854 OFFCURVE",
"481 895 OFFCURVE",
"557 895 CURVE SMOOTH",
"650 894 OFFCURVE",
"696 847 OFFCURVE",
"695 753 CURVE",
"975 752 LINE",
"974 869 OFFCURVE",
"932 956 OFFCURVE",
"850 1014 CURVE SMOOTH",
"686 1129 OFFCURVE",
"495 1117 OFFCURVE",
"359 1066 CURVE SMOOTH",
"223 1015 OFFCURVE",
"120 914 OFFCURVE",
"115 759 CURVE SMOOTH",
"108 564 OFFCURVE",
"285 482 OFFCURVE",
"452 439 CURVE SMOOTH",
"545 413 LINE",
"612 390 OFFCURVE",
"641 355 OFFCURVE",
"630 306 CURVE SMOOTH"
);
}
);
width = 1022;
}
);
leftKerningGroup = s;
note = s;
unicode = 0073;
},
{
glyphname = t;
lastChange = "2017-05-19 14:51:26 +0000";
layers = (
{
layerId = "3E4CAA31-52BF-436B-A4FF-501363857ACF";
paths = (
{
closed = 1;
nodes = (
"525 222 OFFCURVE",
"496 220 OFFCURVE",
"475 221 CURVE SMOOTH",
"403 222 OFFCURVE",
"391 261 OFFCURVE",
"399 328 CURVE",
"492 871 LINE",
"670 871 LINE",
"707 1082 LINE",
"528 1082 LINE",
"575 1349 LINE",
"292 1349 LINE",
"245 1082 LINE",
"92 1082 LINE",
"55 871 LINE",
"209 871 LINE",
"116 300 LINE",
"108 207 OFFCURVE",
"126 132 OFFCURVE",
"170 73 CURVE SMOOTH",
"257 -45 OFFCURVE",
"441 -29 OFFCURVE",
"540 6 CURVE",
"560 227 LINE"
);
}
);
width = 671;
}
);
note = t;
unicode = 0074;
},
{
glyphname = u;
lastChange = "2017-05-19 14:51:26 +0000";
layers = (
{
layerId = "3E4CAA31-52BF-436B-A4FF-501363857ACF";
paths = (
{
closed = 1;
nodes = (
"1093 1082 LINE",
"809 1082 LINE",
"675 317 LINE",
"617 246 OFFCURVE",
"544 212 OFFCURVE",
"456 215 CURVE SMOOTH",
"359 219 OFFCURVE",
"336 292 OFFCURVE",
"347 379 CURVE",
"466 1082 LINE",
"184 1082 LINE",
"67 382 LINE",
"57 275 OFFCURVE",
"75 182 OFFCURVE",
"121 103 CURVE SMOOTH",
"212 -57 OFFCURVE",
"503 -68 OFFCURVE",
"664 113 CURVE",
"642 0 LINE",
"905 0 LINE"
);
}
);
width = 1113;
}
);
leftKerningGroup = u;
note = u;
unicode = 0075;
},
{
glyphname = v;
lastChange = "2017-05-19 14:51:26 +0000";
layers = (
{
layerId = "3E4CAA31-52BF-436B-A4FF-501363857ACF";
paths = (
{
closed = 1;
nodes = (
"459 359 LINE",
"379 1082 LINE",
"92 1082 LINE",
"278 0 LINE",
"547 0 LINE",
"1070 1082 LINE",
"766 1082 LINE"
);
}
);
width = 1005;
}
);
leftKerningGroup = v;
note = v;
rightKerningGroup = v;
unicode = 0076;
},
{
glyphname = w;
lastChange = "2017-05-19 14:51:26 +0000";
layers = (
{
layerId = "3E4CAA31-52BF-436B-A4FF-501363857ACF";
paths = (
{
closed = 1;
nodes = (
"980 396 LINE",
"908 1082 LINE",
"704 1082 LINE",
"396 401 LINE",
"378 1082 LINE",
"114 1082 LINE",
"194 0 LINE",
"430 0 LINE",
"746 678 LINE",
"827 0 LINE",
"1063 0 LINE",
"1517 1082 LINE",
"1236 1082 LINE"
);
}
);
width = 1460;
}
);
note = w;
unicode = 0077;
},
{
glyphname = x;
lastChange = "2017-05-19 14:51:26 +0000";
layers = (
{
layerId = "3E4CAA31-52BF-436B-A4FF-501363857ACF";
paths = (
{
closed = 1;
nodes = (
"326 568 LINE",
"-82 0 LINE",
"237 0 LINE",
"475 339 LINE",
"610 0 LINE",
"895 0 LINE",
"675 539 LINE",
"1067 1082 LINE",
"750 1082 LINE",
"523 762 LINE",
"403 1082 LINE",
"116 1082 LINE"
);
}
);
width = 1012;
}
);
leftKerningGroup = x;
note = x;
rightKerningGroup = x;
unicode = 0078;
},
{
glyphname = y;
lastChange = "2017-05-19 14:51:26 +0000";
layers = (
{
layerId = "3E4CAA31-52BF-436B-A4FF-501363857ACF";
paths = (
{
closed = 1;
nodes = (
"771 1082 LINE",
"461 411 LINE",
"384 1082 LINE",
"92 1082 LINE",
"269 15 LINE",
"215 -85 LINE SMOOTH",
"172 -164 OFFCURVE",
"102 -203 OFFCURVE",
"5 -202 CURVE",
"-34 -199 LINE",
"-56 -419 LINE",
"1 -433 OFFCURVE",
"46 -440 OFFCURVE",
"79 -441 CURVE SMOOTH",
"267 -441 OFFCURVE",
"378 -320 OFFCURVE",
"451 -163 CURVE",
"1084 1082 LINE"
);
}
);
width = 998;
}
);
leftKerningGroup = v;
note = y;
rightKerningGroup = v;
unicode = 0079;
},
{
glyphname = z;
lastChange = "2017-05-19 14:51:26 +0000";
layers = (
{
layerId = "3E4CAA31-52BF-436B-A4FF-501363857ACF";
paths = (
{
closed = 1;
nodes = (
"-1 191 LINE",
"-34 0 LINE",
"839 0 LINE",
"880 233 LINE",
"371 235 LINE",
"980 897 LINE",
"1012 1082 LINE",
"169 1082 LINE",
"128 849 LINE",
"604 847 LINE"
);
}
);
width = 1012;
}
);
leftKerningGroup = z;
note = z;
rightKerningGroup = z;
unicode = 007A;
},
{
glyphname = braceleft;
lastChange = "2017-05-19 14:51:26 +0000";
layers = (
{
layerId = "3E4CAA31-52BF-436B-A4FF-501363857ACF";
paths = (
{
closed = 1;
nodes = (
"119 -117 OFFCURVE",
"218 -287 OFFCURVE",
"433 -359 CURVE",
"497 -199 LINE",
"376 -142 OFFCURVE",
"380 -12 OFFCURVE",
"396 105 CURVE SMOOTH",
"423 309 LINE",
"434 428 OFFCURVE",
"399 541 OFFCURVE",
"300 613 CURVE",
"433 681 OFFCURVE",
"508 786 OFFCURVE",
"526 929 CURVE SMOOTH",
"553 1125 LINE SMOOTH",
"572 1262 OFFCURVE",
"623 1384 OFFCURVE",
"755 1435 CURVE",
"708 1601 LINE",
"478 1532 OFFCURVE",
"343 1389 OFFCURVE",
"304 1172 CURVE",
"272 943 LINE SMOOTH",
"252 800 OFFCURVE",
"180 725 OFFCURVE",
"57 720 CURVE",
"38 513 LINE",
"159 502 OFFCURVE",
"184 423 OFFCURVE",
"171 311 CURVE SMOOTH",
"143 106 LINE SMOOTH"
);
}
);
width = 657;
}
);
note = braceleft;
unicode = 007B;
},
{
glyphname = bar;
lastChange = "2017-05-19 14:51:26 +0000";
layers = (
{
layerId = "3E4CAA31-52BF-436B-A4FF-501363857ACF";
paths = (
{
closed = 1;
nodes = (
"31 -270 LINE",
"203 -270 LINE",
"473 1456 LINE",
"301 1456 LINE"
);
}
);
width = 503;
}
);
note = bar;
unicode = 007C;
},
{
glyphname = braceright;
lastChange = "2017-05-19 14:51:26 +0000";
layers = (
{
layerId = "3E4CAA31-52BF-436B-A4FF-501363857ACF";
paths = (
{
closed = 1;
nodes = (
"542 1355 OFFCURVE",
"441 1524 OFFCURVE",
"228 1595 CURVE",
"164 1437 LINE",
"285 1380 OFFCURVE",
"281 1250 OFFCURVE",
"265 1133 CURVE SMOOTH",
"238 929 LINE",
"227 809 OFFCURVE",
"265 695 OFFCURVE",
"366 624 CURVE",
"233 559 OFFCURVE",
"156 456 OFFCURVE",
"136 317 CURVE SMOOTH",
"107 105 LINE SMOOTH",
"88 -24 OFFCURVE",
"38 -148 OFFCURVE",
"-94 -197 CURVE",
"-47 -364 LINE",
"184 -295 OFFCURVE",
"319 -149 OFFCURVE",
"358 73 CURVE",
"389 296 LINE SMOOTH",
"408 438 OFFCURVE",
"480 512 OFFCURVE",
"604 517 CURVE",
"623 724 LINE",
"502 735 OFFCURVE",
"477 815 OFFCURVE",
"490 928 CURVE SMOOTH",
"518 1132 LINE SMOOTH"
);
}
);
width = 657;
}
);
note = braceright;
unicode = 007D;
},
{
glyphname = asciitilde;
lastChange = "2017-05-19 14:51:26 +0000";
layers = (
{
layerId = "3E4CAA31-52BF-436B-A4FF-501363857ACF";
paths = (
{
closed = 1;
nodes = (
"987 710 OFFCURVE",
"941 610 OFFCURVE",
"841 611 CURVE SMOOTH",
"781 612 OFFCURVE",
"734 658 OFFCURVE",
"697 698 CURVE SMOOTH",
"537 869 OFFCURVE",
"347 852 OFFCURVE",
"244 771 CURVE SMOOTH",
"141 690 OFFCURVE",
"88 552 OFFCURVE",
"79 416 CURVE",
"288 413 LINE",
"303 496 OFFCURVE",
"345 593 OFFCURVE",
"444 593 CURVE SMOOTH",
"492 593 OFFCURVE",
"520 577 OFFCURVE",
"596 501 CURVE SMOOTH",
"633 462 OFFCURVE",
"672 432 OFFCURVE",
"712 410 CURVE SMOOTH",
"791 365 OFFCURVE",
"938 351 OFFCURVE",
"1041 435 CURVE SMOOTH",
"1144 519 OFFCURVE",
"1197 659 OFFCURVE",
"1206 795 CURVE",
"1000 794 LINE"
);
}
);
width = 1289;
}
);
note = asciitilde;
unicode = 007E;
},
{
glyphname = exclamdown;
lastChange = "2017-05-19 14:51:26 +0000";
layers = (
{
layerId = "3E4CAA31-52BF-436B-A4FF-501363857ACF";
paths = (
{
closed = 1;
nodes = (
"497 1042 OFFCURVE",
"428 1106 OFFCURVE",
"341 1103 CURVE SMOOTH",
"250 1102 OFFCURVE",
"183 1033 OFFCURVE",
"186 944 CURVE SMOOTH",
"187 855 OFFCURVE",
"257 792 OFFCURVE",
"345 795 CURVE SMOOTH",
"434 796 OFFCURVE",
"501 865 OFFCURVE",
"500 954 CURVE SMOOTH"
);
},
{
closed = 1;
nodes = (
"406 639 LINE",
"171 639 LINE",
"-37 -369 LINE",
"264 -369 LINE"
);
}
);
width = 562;
}
);
note = exclamdown;
unicode = 00A1;
},
{
glyphname = cent;
lastChange = "2017-05-19 14:51:26 +0000";
layers = (
{
layerId = "3E4CAA31-52BF-436B-A4FF-501363857ACF";
paths = (
{
closed = 1;
nodes = (
"685 274 OFFCURVE",
"610 208 OFFCURVE",
"506 211 CURVE SMOOTH",
"394 215 OFFCURVE",
"361 296 OFFCURVE",
"361 393 CURVE",
"360 490 OFFCURVE",
"369 575 OFFCURVE",
"389 649 CURVE SMOOTH",
"429 797 OFFCURVE",
"500 874 OFFCURVE",
"624 870 CURVE SMOOTH",
"736 866 OFFCURVE",
"774 778 OFFCURVE",
"773 678 CURVE",
"1036 678 LINE",
"1040 871 OFFCURVE",
"954 1042 OFFCURVE",
"757 1091 CURVE",
"804 1318 LINE",
"608 1318 LINE",
"561 1094 LINE",
"277 1050 OFFCURVE",
"121 829 OFFCURVE",
"88 553 CURVE SMOOTH",
"85 524 LINE SMOOTH",
"62 293 OFFCURVE",
"134 48 OFFCURVE",
"386 -9 CURVE",
"336 -245 LINE",
"532 -245 LINE",
"581 -11 LINE",
"786 25 OFFCURVE",
"956 156 OFFCURVE",
"971 375 CURVE",
"706 373 LINE"
);
}
);
width = 1144;
}
);
note = cent;
unicode = 00A2;
},
{
glyphname = sterling;
lastChange = "2017-05-19 14:51:26 +0000";
layers = (
{
layerId = "3E4CAA31-52BF-436B-A4FF-501363857ACF";
paths = (
{
closed = 1;
nodes = (
"1066 242 LINE",
"427 238 LINE",
"484 295 OFFCURVE",
"518 361 OFFCURVE",
"528 438 CURVE SMOOTH",
"544 577 LINE",
"835 577 LINE",
"876 812 LINE",
"575 812 LINE",
"602 1040 LINE SMOOTH",
"617 1139 OFFCURVE",
"678 1238 OFFCURVE",
"789 1235 CURVE SMOOTH",
"897 1232 OFFCURVE",
"929 1155 OFFCURVE",
"925 1059 CURVE",
"1204 1058 LINE",
"1211 1310 OFFCURVE",
"1062 1470 OFFCURVE",
"807 1475 CURVE SMOOTH",
"538 1482 OFFCURVE",
"340 1304 OFFCURVE",
"309 1039 CURVE SMOOTH",
"282 812 LINE",
"131 812 LINE",
"90 577 LINE",
"248 577 LINE",
"228 422 LINE SMOOTH",
"216 346 OFFCURVE",
"197 269 OFFCURVE",
"120 238 CURVE",
"27 242 LINE",
"2 0 LINE",
"1022 0 LINE"
);
}
);
width = 1181;
}
);
note = sterling;
unicode = 00A3;
},
{
glyphname = currency;
lastChange = "2017-05-19 14:51:26 +0000";
layers = (
{
layerId = "3E4CAA31-52BF-436B-A4FF-501363857ACF";
paths = (
{
closed = 1;
nodes = (
"1288 464 OFFCURVE",
"1308 716 OFFCURVE",
"1227 968 CURVE",
"1395 1106 LINE",
"1272 1265 LINE",
"1102 1117 LINE",
"1013 1193 OFFCURVE",
"906 1232 OFFCURVE",
"781 1233 CURVE SMOOTH",
"662 1236 OFFCURVE",
"544 1198 OFFCURVE",
"427 1121 CURVE",
"318 1264 LINE",
"170 1134 LINE",
"285 977 LINE",
"90 761 OFFCURVE",
"75 503 OFFCURVE",
"151 258 CURVE",
"-3 132 LINE",
"119 -26 LINE",
"273 106 LINE",
"453 -58 OFFCURVE",
"732 -65 OFFCURVE",
"973 106 CURVE",
"1073 -27 LINE",
"1222 104 LINE",
"1111 255 LINE"
);
},
{
closed = 1;
nodes = (
"318 755 OFFCURVE",
"414 903 OFFCURVE",
"552 987 CURVE SMOOTH",
"690 1071 OFFCURVE",
"925 1086 OFFCURVE",
"1031 907 CURVE SMOOTH",
"1137 727 OFFCURVE",
"1094 535 OFFCURVE",
"1004 396 CURVE SMOOTH",
"914 257 OFFCURVE",
"770 164 OFFCURVE",
"605 168 CURVE SMOOTH",
"376 176 OFFCURVE",
"266 391 OFFCURVE",
"295 599 CURVE SMOOTH"
);
}
);
width = 1375;
}
);
note = currency;
unicode = 00A4;
},
{
glyphname = yen;
lastChange = "2017-05-19 14:51:26 +0000";
layers = (
{
layerId = "3E4CAA31-52BF-436B-A4FF-501363857ACF";
paths = (
{
closed = 1;
nodes = (
"649 452 LINE",
"669 568 LINE",
"947 568 LINE",
"980 742 LINE",
"772 744 LINE",
"1211 1456 LINE",
"892 1456 LINE",
"577 894 LINE",
"457 1456 LINE",
"165 1456 LINE",
"355 742 LINE",
"110 742 LINE",
"80 568 LINE",
"377 568 LINE",
"356 452 LINE",
"60 452 LINE",
"30 279 LINE",
"327 279 LINE",
"278 0 LINE",
"570 0 LINE",
"619 279 LINE",
"898 279 LINE",
"929 452 LINE"
);
}
);
width = 1065;
}
);
note = yen;
unicode = 00A5;
},
{
glyphname = brokenbar;
lastChange = "2017-05-19 14:51:26 +0000";
layers = (
{
layerId = "3E4CAA31-52BF-436B-A4FF-501363857ACF";
paths = (
{
closed = 1;
nodes = (
"140 698 LINE",
"394 698 LINE",
"526 1456 LINE",
"272 1456 LINE"
);
},
{
closed = 1;
nodes = (
"111 525 LINE",
"-28 -270 LINE",
"227 -270 LINE",
"365 525 LINE"
);
}
);
width = 501;
}
);
note = brokenbar;
unicode = 00A6;
},
{
glyphname = section;
lastChange = "2017-05-19 14:51:26 +0000";
layers = (
{
layerId = "3E4CAA31-52BF-436B-A4FF-501363857ACF";
paths = (
{
closed = 1;
nodes = (
"1010 39 OFFCURVE",
"983 131 OFFCURVE",
"920 205 CURVE",
"977 236 OFFCURVE",
"1025 275 OFFCURVE",
"1062 320 CURVE SMOOTH",
"1136 410 OFFCURVE",
"1153 589 OFFCURVE",
"1074 696 CURVE SMOOTH",
"994 803 OFFCURVE",
"854 862 OFFCURVE",
"715 903 CURVE SMOOTH",
"609 936 LINE SMOOTH",
"570 948 OFFCURVE",
"537 966 OFFCURVE",
"512 990 CURVE SMOOTH",
"460 1037 OFFCURVE",
"475 1168 OFFCURVE",
"582 1212 CURVE SMOOTH",
"689 1255 OFFCURVE",
"937 1301 OFFCURVE",
"928 1049 CURVE",
"1208 1049 LINE",
"1215 1332 OFFCURVE",
"1022 1472 OFFCURVE",
"751 1476 CURVE SMOOTH",
"586 1479 OFFCURVE",
"409 1429 OFFCURVE",
"296 1314 CURVE SMOOTH",
"183 1198 OFFCURVE",
"158 963 OFFCURVE",
"286 812 CURVE",
"229 781 OFFCURVE",
"181 742 OFFCURVE",
"144 697 CURVE SMOOTH",
"68 605 OFFCURVE",
"52 426 OFFCURVE",
"132 321 CURVE SMOOTH",
"212 216 OFFCURVE",
"351 157 OFFCURVE",
"488 114 CURVE SMOOTH",
"590 80 LINE SMOOTH",
"670 53 OFFCURVE",
"737 8 OFFCURVE",
"721 -73 CURVE SMOOTH",
"697 -189 OFFCURVE",
"568 -219 OFFCURVE",
"467 -218 CURVE SMOOTH",
"342 -217 OFFCURVE",
"250 -170 OFFCURVE",
"254 -35 CURVE",
"-26 -35 LINE",
"-29 -182 OFFCURVE",
"18 -287 OFFCURVE",
"113 -352 CURVE SMOOTH",
"303 -482 OFFCURVE",
"540 -467 OFFCURVE",
"704 -418 CURVE SMOOTH",
"867 -370 OFFCURVE",
"991 -260 OFFCURVE",
"1003 -71 CURVE SMOOTH"
);
},
{
closed = 1;
nodes = (
"450 403 OFFCURVE",
"417 424 OFFCURVE",
"393 450 CURVE SMOOTH",
"345 502 OFFCURVE",
"358 633 OFFCURVE",
"478 706 CURVE",
"693 632 LINE SMOOTH",
"797 593 OFFCURVE",
"856 546 OFFCURVE",
"839 461 CURVE SMOOTH",
"828 402 OFFCURVE",
"789 352 OFFCURVE",
"723 311 CURVE",
"492 388 LINE SMOOTH"
);
}
);
width = 1248;
}
);
note = section;
unicode = 00A7;
},
{
glyphname = dieresis;
lastChange = "2017-05-19 14:51:26 +0000";
layers = (
{
layerId = "3E4CAA31-52BF-436B-A4FF-501363857ACF";
paths = (
{
closed = 1;
nodes = (
"212 1288 OFFCURVE",
"276 1237 OFFCURVE",
"348 1238 CURVE SMOOTH",
"421 1239 OFFCURVE",
"482 1296 OFFCURVE",
"479 1369 CURVE SMOOTH",
"478 1444 OFFCURVE",
"413 1495 OFFCURVE",
"341 1494 CURVE SMOOTH",
"269 1493 OFFCURVE",
"208 1438 OFFCURVE",
"209 1363 CURVE SMOOTH"
);
},
{
closed = 1;
nodes = (
"685 1287 OFFCURVE",
"749 1236 OFFCURVE",
"821 1237 CURVE SMOOTH",
"893 1238 OFFCURVE",
"954 1293 OFFCURVE",
"953 1368 CURVE SMOOTH",
"950 1443 OFFCURVE",
"885 1494 OFFCURVE",
"813 1493 CURVE SMOOTH",
"741 1492 OFFCURVE",
"681 1435 OFFCURVE",
"682 1362 CURVE SMOOTH"
);
}
);
width = 927;
}
);
note = dieresis;
unicode = 00A8;
},
{
glyphname = copyright;
lastChange = "2017-05-19 14:51:26 +0000";
layers = (
{
layerId = "3E4CAA31-52BF-436B-A4FF-501363857ACF";
paths = (
{
closed = 1;
nodes = (
"78 474 OFFCURVE",
"170 235 OFFCURVE",
"355 91 CURVE SMOOTH",
"540 -53 OFFCURVE",
"844 -60 OFFCURVE",
"1072 83 CURVE SMOOTH",
"1300 226 OFFCURVE",
"1453 472 OFFCURVE",
"1481 735 CURVE SMOOTH",
"1506 984 OFFCURVE",
"1414 1222 OFFCURVE",
"1229 1366 CURVE SMOOTH",
"1044 1509 OFFCURVE",
"740 1516 OFFCURVE",
"512 1374 CURVE SMOOTH",
"284 1232 OFFCURVE",
"131 987 OFFCURVE",
"103 722 CURVE SMOOTH"
);
},
{
closed = 1;
nodes = (
"255 942 OFFCURVE",
"388 1147 OFFCURVE",
"583 1266 CURVE SMOOTH",
"778 1385 OFFCURVE",
"1032 1378 OFFCURVE",
"1178 1258 CURVE SMOOTH",
"1324 1137 OFFCURVE",
"1388 937 OFFCURVE",
"1360 736 CURVE SMOOTH",
"1329 516 OFFCURVE",
"1196 310 OFFCURVE",
"1002 191 CURVE SMOOTH",
"808 71 OFFCURVE",
"553 78 OFFCURVE",
"407 199 CURVE SMOOTH",
"261 320 OFFCURVE",
"196 519 OFFCURVE",
"224 722 CURVE SMOOTH"
);
},
{
closed = 1;
nodes = (
"905 472 OFFCURVE",
"839 412 OFFCURVE",
"726 417 CURVE SMOOTH",
"591 422 OFFCURVE",
"573 559 OFFCURVE",
"584 668 CURVE SMOOTH",
"598 789 LINE SMOOTH",
"615 916 OFFCURVE",
"686 1045 OFFCURVE",
"830 1042 CURVE SMOOTH",
"947 1039 OFFCURVE",
"983 969 OFFCURVE",
"976 861 CURVE",
"1128 859 LINE",
"1131 1052 OFFCURVE",
"1020 1172 OFFCURVE",
"825 1176 CURVE SMOOTH",
"598 1180 OFFCURVE",
"466 997 OFFCURVE",
"445 788 CURVE SMOOTH",
"433 669 LINE SMOOTH",
"418 470 OFFCURVE",
"517 287 OFFCURVE",
"732 282 CURVE SMOOTH",
"936 277 OFFCURVE",
"1065 396 OFFCURVE",
"1078 597 CURVE",
"926 596 LINE"
);
}
);
width = 1559;
}
);
note = copyright;
unicode = 00A9;
},
{
glyphname = ordfeminine;
lastChange = "2017-05-19 14:51:26 +0000";
layers = (
{
layerId = "3E4CAA31-52BF-436B-A4FF-501363857ACF";
paths = (
{
closed = 1;
nodes = (
"778 733 OFFCURVE",
"775 764 OFFCURVE",
"776 794 CURVE SMOOTH",
"780 853 LINE",
"833 1200 LINE",
"845 1365 OFFCURVE",
"742 1474 OFFCURVE",
"578 1477 CURVE SMOOTH",
"426 1480 OFFCURVE",
"275 1407 OFFCURVE",
"264 1242 CURVE",
"437 1229 LINE",
"456 1298 OFFCURVE",
"505 1331 OFFCURVE",
"584 1328 CURVE SMOOTH",
"659 1325 OFFCURVE",
"673 1269 OFFCURVE",
"661 1204 CURVE SMOOTH",
"649 1149 LINE",
"543 1151 LINE SMOOTH",
"490 1151 OFFCURVE",
"436 1145 OFFCURVE",
"382 1132 CURVE SMOOTH",
"273 1106 OFFCURVE",
"189 1040 OFFCURVE",
"188 911 CURVE SMOOTH",
"187 775 OFFCURVE",
"281 691 OFFCURVE",
"416 691 CURVE SMOOTH",
"490 691 OFFCURVE",
"557 719 OFFCURVE",
"617 774 CURVE",
"620 702 LINE",
"784 702 LINE"
);
},
{
closed = 1;
nodes = (
"382 835 OFFCURVE",
"354 862 OFFCURVE",
"363 915 CURVE SMOOTH",
"379 1003 OFFCURVE",
"475 1030 OFFCURVE",
"555 1033 CURVE",
"638 1033 LINE",
"610 896 LINE",
"549 854 OFFCURVE",
"495 833 OFFCURVE",
"449 833 CURVE SMOOTH"
);
}
);
width = 882;
}
);
note = ordfeminine;
unicode = 00AA;
},
{
glyphname = guillemotleft;
lastChange = "2017-05-19 14:51:26 +0000";
layers = (
{
layerId = "3E4CAA31-52BF-436B-A4FF-501363857ACF";
paths = (
{
closed = 1;
nodes = (
"278 508 LINE",
"593 924 LINE",
"389 924 LINE",
"59 533 LINE",
"59 512 LINE",
"276 123 LINE",
"438 126 LINE"
);
},
{
closed = 1;
nodes = (
"652 508 LINE",
"967 924 LINE",
"763 924 LINE",
"433 533 LINE",
"433 512 LINE",
"650 123 LINE",
"812 126 LINE"
);
}
);
width = 1002;
}
);
note = guillemotleft;
unicode = 00AB;
},
{
glyphname = logicalnot;
lastChange = "2017-05-19 14:51:26 +0000";
layers = (
{
layerId = "3E4CAA31-52BF-436B-A4FF-501363857ACF";
paths = (
{
closed = 1;
nodes = (
"744 634 LINE",
"698 374 LINE",
"894 374 LINE",
"969 805 LINE",
"157 805 LINE",
"127 634 LINE"
);
}
);
width = 1095;
}
);
note = logicalnot;
unicode = 00AC;
},
{
glyphname = registered;
lastChange = "2017-05-19 14:51:26 +0000";
layers = (
{
layerId = "3E4CAA31-52BF-436B-A4FF-501363857ACF";
paths = (
{
closed = 1;
nodes = (
"78 474 OFFCURVE",
"170 235 OFFCURVE",
"355 91 CURVE SMOOTH",
"540 -53 OFFCURVE",
"844 -60 OFFCURVE",
"1072 83 CURVE SMOOTH",
"1300 226 OFFCURVE",
"1453 472 OFFCURVE",
"1481 735 CURVE SMOOTH",
"1506 984 OFFCURVE",
"1414 1222 OFFCURVE",
"1229 1366 CURVE SMOOTH",
"1044 1509 OFFCURVE",
"740 1514 OFFCURVE",
"512 1373 CURVE SMOOTH",
"284 1232 OFFCURVE",
"131 987 OFFCURVE",
"103 722 CURVE SMOOTH"
);
},
{
closed = 1;
nodes = (
"255 942 OFFCURVE",
"388 1147 OFFCURVE",
"583 1266 CURVE SMOOTH",
"778 1385 OFFCURVE",
"1032 1378 OFFCURVE",
"1178 1258 CURVE SMOOTH",
"1324 1137 OFFCURVE",
"1388 937 OFFCURVE",
"1360 736 CURVE SMOOTH",
"1329 516 OFFCURVE",
"1196 310 OFFCURVE",
"1002 191 CURVE SMOOTH",
"808 71 OFFCURVE",
"553 78 OFFCURVE",
"407 199 CURVE SMOOTH",
"261 320 OFFCURVE",
"195 519 OFFCURVE",
"224 722 CURVE SMOOTH"
);
},
{
closed = 1;
nodes = (
"897 646 OFFCURVE",
"919 599 OFFCURVE",
"910 516 CURVE SMOOTH",
"903 459 OFFCURVE",
"899 417 OFFCURVE",
"898 388 CURVE SMOOTH",
"897 363 OFFCURVE",
"898 339 OFFCURVE",
"902 315 CURVE",
"1050 314 LINE",
"1051 333 LINE",
"1047 396 LINE SMOOTH",
"1046 414 OFFCURVE",
"1048 454 OFFCURVE",
"1055 515 CURVE SMOOTH",
"1062 594 OFFCURVE",
"1051 675 OFFCURVE",
"984 724 CURVE",
"1057 768 OFFCURVE",
"1116 820 OFFCURVE",
"1120 911 CURVE SMOOTH",
"1128 1086 OFFCURVE",
"986 1161 OFFCURVE",
"830 1165 CURVE SMOOTH",
"574 1166 LINE",
"440 316 LINE",
"589 316 LINE",
"642 653 LINE",
"809 651 LINE"
);
},
{
closed = 1;
nodes = (
"927 1029 OFFCURVE",
"996 1009 OFFCURVE",
"976 909 CURVE SMOOTH",
"957 820 OFFCURVE",
"858 789 OFFCURVE",
"778 786 CURVE",
"663 787 LINE",
"701 1033 LINE",
"842 1032 LINE SMOOTH"
);
}
);
width = 1559;
}
);
note = registered;
unicode = 00AE;
},
{
glyphname = macron;
lastChange = "2017-05-19 14:51:26 +0000";
layers = (
{
layerId = "3E4CAA31-52BF-436B-A4FF-501363857ACF";
paths = (
{
closed = 1;
nodes = (
"269 1288 LINE",
"941 1288 LINE",
"967 1455 LINE",
"296 1455 LINE"
);
}
);
width = 995;
}
);
note = macron;
unicode = 00AF;
},
{
glyphname = degree;
lastChange = "2017-05-19 14:51:26 +0000";
layers = (
{
layerId = "3E4CAA31-52BF-436B-A4FF-501363857ACF";
paths = (
{
closed = 1;
nodes = (
"224 1052 OFFCURVE",
"329 931 OFFCURVE",
"472 928 CURVE SMOOTH",
"625 925 OFFCURVE",
"746 1059 OFFCURVE",
"749 1208 CURVE SMOOTH",
"753 1347 OFFCURVE",
"653 1474 OFFCURVE",
"509 1477 CURVE SMOOTH",
"354 1480 OFFCURVE",
"230 1343 OFFCURVE",
"227 1191 CURVE SMOOTH"
);
},
{
closed = 1;
nodes = (
"380 1264 OFFCURVE",
"444 1329 OFFCURVE",
"517 1329 CURVE SMOOTH",
"582 1328 OFFCURVE",
"616 1267 OFFCURVE",
"607 1207 CURVE SMOOTH",
"596 1138 OFFCURVE",
"537 1076 OFFCURVE",
"464 1076 CURVE SMOOTH",
"400 1075 OFFCURVE",
"361 1132 OFFCURVE",
"369 1193 CURVE SMOOTH"
);
}
);
width = 772;
}
);
note = degree;
unicode = 00B0;
},
{
glyphname = plusminus;
lastChange = "2017-05-19 14:51:26 +0000";
layers = (
{
layerId = "3E4CAA31-52BF-436B-A4FF-501363857ACF";
paths = (
{
closed = 1;
nodes = (
"711 943 LINE",
"765 1286 LINE",
"517 1286 LINE",
"463 943 LINE",
"139 943 LINE",
"101 702 LINE",
"426 702 LINE",
"368 337 LINE",
"617 337 LINE",
"674 702 LINE",
"992 702 LINE",
"1030 943 LINE"
);
},
{
closed = 1;
nodes = (
"15 1 LINE",
"854 1 LINE",
"892 237 LINE",
"52 237 LINE"
);
}
);
width = 1068;
}
);
note = plusminus;
unicode = 00B1;
},
{
glyphname = twosuperior;
lastChange = "2017-05-19 14:51:26 +0000";
layers = (
{
layerId = "3E4CAA31-52BF-436B-A4FF-501363857ACF";
paths = (
{
closed = 1;
nodes = (
"509 918 LINE SMOOTH",
"620 994 OFFCURVE",
"752 1081 OFFCURVE",
"756 1228 CURVE SMOOTH",
"760 1395 OFFCURVE",
"624 1469 OFFCURVE",
"473 1470 CURVE SMOOTH",
"305 1471 OFFCURVE",
"170 1363 OFFCURVE",
"161 1192 CURVE",
"364 1194 LINE",
"377 1255 OFFCURVE",
"417 1307 OFFCURVE",
"485 1307 CURVE SMOOTH",
"594 1307 OFFCURVE",
"552 1204 OFFCURVE",
"517 1161 CURVE SMOOTH",
"500 1139 OFFCURVE",
"468 1108 OFFCURVE",
"422 1069 CURVE SMOOTH",
"108 817 LINE",
"82 667 LINE",
"685 667 LINE",
"715 831 LINE",
"379 833 LINE"
);
}
);
width = 750;
}
);
note = twosuperior;
unicode = 00B2;
},
{
glyphname = threesuperior;
lastChange = "2017-05-19 14:51:26 +0000";
layers = (
{
layerId = "3E4CAA31-52BF-436B-A4FF-501363857ACF";
paths = (
{
closed = 1;
nodes = (
"493 999 OFFCURVE",
"542 980 OFFCURVE",
"529 916 CURVE SMOOTH",
"516 853 OFFCURVE",
"453 823 OFFCURVE",
"393 823 CURVE SMOOTH",
"329 823 OFFCURVE",
"295 850 OFFCURVE",
"291 904 CURVE",
"97 905 LINE",
"101 741 OFFCURVE",
"229 660 OFFCURVE",
"385 656 CURVE SMOOTH",
"485 653 OFFCURVE",
"597 683 OFFCURVE",
"669 755 CURVE SMOOTH",
"740 826 OFFCURVE",
"763 1014 OFFCURVE",
"607 1066 CURVE",
"690 1102 OFFCURVE",
"763 1150 OFFCURVE",
"767 1249 CURVE SMOOTH",
"771 1410 OFFCURVE",
"611 1468 OFFCURVE",
"475 1469 CURVE SMOOTH",
"327 1472 OFFCURVE",
"183 1402 OFFCURVE",
"174 1241 CURVE",
"381 1243 LINE",
"400 1284 OFFCURVE",
"436 1304 OFFCURVE",
"489 1304 CURVE SMOOTH",
"533 1303 OFFCURVE",
"576 1282 OFFCURVE",
"565 1233 CURVE SMOOTH",
"550 1166 OFFCURVE",
"488 1141 OFFCURVE",
"427 1138 CURVE",
"357 1138 LINE",
"331 1001 LINE",
"438 1000 LINE SMOOTH"
);
}
);
width = 750;
}
);
note = threesuperior;
unicode = 00B3;
},
{
glyphname = acute;
lastChange = "2017-05-19 14:51:26 +0000";
layers = (
{
layerId = "3E4CAA31-52BF-436B-A4FF-501363857ACF";
paths = (
{
closed = 1;
nodes = (
"753 1536 LINE",
"426 1536 LINE",
"187 1227 LINE",
"435 1227 LINE"
);
}
);
width = 660;
}
);
note = acute;
unicode = 00B4;
},
{
glyphname = mu;
lastChange = "2017-05-19 14:51:26 +0000";
layers = (
{
layerId = "3E4CAA31-52BF-436B-A4FF-501363857ACF";
paths = (
{
closed = 1;
nodes = (
"578 -23 OFFCURVE",
"655 8 OFFCURVE",
"726 69 CURVE",
"717 0 LINE",
"966 0 LINE",
"1154 1082 LINE",
"871 1082 LINE",
"736 318 LINE",
"678 247 OFFCURVE",
"605 212 OFFCURVE",
"516 215 CURVE SMOOTH",
"377 219 OFFCURVE",
"384 352 OFFCURVE",
"397 461 CURVE",
"500 1082 LINE",
"218 1082 LINE",
"-42 -416 LINE",
"240 -416 LINE",
"327 26 LINE",
"377 -5 OFFCURVE",
"433 -21 OFFCURVE",
"495 -22 CURVE SMOOTH"
);
}
);
width = 1223;
}
);
note = mu;
unicode = 00B5;
},
{
glyphname = paragraph;
lastChange = "2017-05-19 14:51:26 +0000";
layers = (
{
layerId = "3E4CAA31-52BF-436B-A4FF-501363857ACF";
paths = (
{
closed = 1;
nodes = (
"681 1457 LINE SMOOTH",
"393 1457 OFFCURVE",
"168 1275 OFFCURVE",
"141 980 CURVE SMOOTH",
"117 709 OFFCURVE",
"285 528 OFFCURVE",
"556 521 CURVE SMOOTH",
"617 520 LINE",
"526 0 LINE",
"741 0 LINE",
"994 1456 LINE"
);
}
);
width = 974;
}
);
note = paragraph;
unicode = 00B6;
},
{
glyphname = periodcentered;
lastChange = "2017-05-19 14:51:26 +0000";
layers = (
{
layerId = "3E4CAA31-52BF-436B-A4FF-501363857ACF";
paths = (
{
closed = 1;
nodes = (
"156 603 OFFCURVE",
"226 539 OFFCURVE",
"314 542 CURVE SMOOTH",
"405 543 OFFCURVE",
"472 611 OFFCURVE",
"471 702 CURVE SMOOTH",
"468 793 OFFCURVE",
"398 854 OFFCURVE",
"310 853 CURVE SMOOTH",
"219 852 OFFCURVE",
"150 784 OFFCURVE",
"153 692 CURVE SMOOTH"
);
}
);
width = 598;
}
);
note = periodcentered;
unicode = 00B7;
},
{
glyphname = cedilla;
lastChange = "2017-05-19 14:51:26 +0000";
layers = (
{
layerId = "3E4CAA31-52BF-436B-A4FF-501363857ACF";
paths = (
{
closed = 1;
nodes = (
"14 -140 OFFCURVE",
"104 -138 OFFCURVE",
"91 -207 CURVE SMOOTH",
"81 -261 OFFCURVE",
"38 -291 OFFCURVE",
"-38 -296 CURVE",
"-46 -465 LINE",
"7 -463 OFFCURVE",
"62 -455 OFFCURVE",
"120 -442 CURVE SMOOTH",
"235 -415 OFFCURVE",
"327 -350 OFFCURVE",
"327 -217 CURVE SMOOTH",
"327 -126 OFFCURVE",
"285 -72 OFFCURVE",
"202 -55 CURVE",
"222 9 LINE",
"12 6 LINE",
"-31 -136 LINE"
);
}
);
width = 533;
}
);
note = cedilla;
unicode = 00B8;
},
{
glyphname = onesuperior;
lastChange = "2017-05-19 14:51:26 +0000";
layers = (
{
layerId = "3E4CAA31-52BF-436B-A4FF-501363857ACF";
paths = (
{
closed = 1;
nodes = (
"259 1339 LINE",
"229 1171 LINE",
"420 1211 LINE",
"326 667 LINE",
"525 667 LINE",
"653 1455 LINE",
"627 1454 LINE"
);
}
);
width = 750;
}
);
note = onesuperior;
unicode = 00B9;
},
{
glyphname = ordmasculine;
lastChange = "2017-05-19 14:51:26 +0000";
layers = (
{
layerId = "3E4CAA31-52BF-436B-A4FF-501363857ACF";
paths = (
{
closed = 1;
nodes = (
"182 851 OFFCURVE",
"293 694 OFFCURVE",
"496 689 CURVE SMOOTH",
"708 685 OFFCURVE",
"849 841 OFFCURVE",
"869 1044 CURVE SMOOTH",
"876 1121 LINE SMOOTH",
"889 1314 OFFCURVE",
"779 1472 OFFCURVE",
"576 1477 CURVE SMOOTH",
"364 1481 OFFCURVE",
"221 1323 OFFCURVE",
"201 1120 CURVE SMOOTH",
"195 1044 LINE SMOOTH"
);
},
{
closed = 1;
nodes = (
"391 1229 OFFCURVE",
"457 1334 OFFCURVE",
"578 1329 CURVE SMOOTH",
"693 1326 OFFCURVE",
"714 1218 OFFCURVE",
"705 1122 CURVE SMOOTH",
"696 1044 LINE SMOOTH",
"680 937 OFFCURVE",
"615 830 OFFCURVE",
"495 834 CURVE SMOOTH",
"379 838 OFFCURVE",
"359 945 OFFCURVE",
"367 1041 CURVE SMOOTH",
"376 1121 LINE SMOOTH"
);
}
);
width = 909;
}
);
note = ordmasculine;
unicode = 00BA;
},
{
glyphname = guillemotright;
lastChange = "2017-05-19 14:51:26 +0000";
layers = (
{
layerId = "3E4CAA31-52BF-436B-A4FF-501363857ACF";
paths = (
{
closed = 1;
nodes = (
"305 541 LINE",
"-10 125 LINE",
"192 125 LINE",
"524 516 LINE",
"524 537 LINE",
"306 926 LINE",
"144 923 LINE"
);
},
{
closed = 1;
nodes = (
"686 541 LINE",
"371 125 LINE",
"573 125 LINE",
"905 516 LINE",
"905 537 LINE",
"687 926 LINE",
"525 923 LINE"
);
}
);
width = 1002;
}
);
note = guillemotright;
unicode = 00BB;
},
{
glyphname = onequarter;
lastChange = "2017-05-19 14:51:26 +0000";
layers = (
{
layerId = "3E4CAA31-52BF-436B-A4FF-501363857ACF";
paths = (
{
closed = 1;
nodes = (
"224 1336 LINE",
"194 1168 LINE",
"385 1208 LINE",
"290 664 LINE",
"489 664 LINE",
"617 1452 LINE",
"592 1451 LINE"
);
},
{
closed = 1;
nodes = (
"235 204 LINE",
"373 119 LINE",
"1249 1245 LINE",
"1113 1328 LINE"
);
},
{
closed = 1;
nodes = (
"1217 327 LINE",
"1297 789 LINE",
"1085 789 LINE",
"666 310 LINE",
"653 160 LINE",
"986 160 LINE",
"958 0 LINE",
"1160 0 LINE",
"1188 160 LINE",
"1273 160 LINE",
"1302 327 LINE"
);
},
{
closed = 1;
nodes = (
"1061 541 LINE",
"1017 326 LINE",
"865 329 LINE",
"1043 516 LINE"
);
}
);
width = 1436;
}
);
note = onequarter;
unicode = 00BC;
},
{
glyphname = onehalf;
lastChange = "2017-05-19 14:51:26 +0000";
layers = (
{
layerId = "3E4CAA31-52BF-436B-A4FF-501363857ACF";
paths = (
{
closed = 1;
nodes = (
"195 204 LINE",
"333 119 LINE",
"1209 1245 LINE",
"1073 1328 LINE"
);
},
{
closed = 1;
nodes = (
"209 1342 LINE",
"179 1174 LINE",
"370 1214 LINE",
"275 670 LINE",
"474 670 LINE",
"602 1458 LINE",
"577 1457 LINE"
);
},
{
closed = 1;
nodes = (
"1154 251 LINE SMOOTH",
"1265 327 OFFCURVE",
"1397 414 OFFCURVE",
"1401 561 CURVE SMOOTH",
"1405 728 OFFCURVE",
"1269 802 OFFCURVE",
"1118 803 CURVE SMOOTH",
"950 804 OFFCURVE",
"815 696 OFFCURVE",
"806 525 CURVE",
"1009 527 LINE",
"1022 588 OFFCURVE",
"1061 640 OFFCURVE",
"1130 640 CURVE SMOOTH",
"1184 640 OFFCURVE",
"1206 614 OFFCURVE",
"1195 562 CURVE SMOOTH",
"1186 514 OFFCURVE",
"1159 481 OFFCURVE",
"1071 406 CURVE SMOOTH",
"753 150 LINE",
"727 0 LINE",
"1330 0 LINE",
"1360 164 LINE",
"1024 166 LINE"
);
}
);
width = 1522;
}
);
note = onehalf;
unicode = 00BD;
},
{
glyphname = threequarters;
lastChange = "2017-05-19 14:51:26 +0000";
layers = (
{
layerId = "3E4CAA31-52BF-436B-A4FF-501363857ACF";
paths = (
{
closed = 1;
nodes = (
"392 204 LINE",
"530 119 LINE",
"1406 1245 LINE",
"1270 1328 LINE"
);
},
{
closed = 1;
nodes = (
"1372 327 LINE",
"1452 789 LINE",
"1240 789 LINE",
"821 310 LINE",
"808 160 LINE",
"1141 160 LINE",
"1113 0 LINE",
"1315 0 LINE",
"1343 160 LINE",
"1428 160 LINE",
"1457 327 LINE"
);
},
{
closed = 1;
nodes = (
"1216 541 LINE",
"1172 326 LINE",
"1020 329 LINE",
"1198 516 LINE"
);
},
{
closed = 1;
nodes = (
"537 999 OFFCURVE",
"587 981 OFFCURVE",
"574 916 CURVE SMOOTH",
"562 853 OFFCURVE",
"499 823 OFFCURVE",
"439 823 CURVE SMOOTH",
"375 823 OFFCURVE",
"341 850 OFFCURVE",
"337 904 CURVE",
"142 905 LINE",
"146 741 OFFCURVE",
"275 660 OFFCURVE",
"431 656 CURVE SMOOTH",
"531 653 OFFCURVE",
"643 683 OFFCURVE",
"714 755 CURVE SMOOTH",
"785 826 OFFCURVE",
"808 1014 OFFCURVE",
"653 1066 CURVE",
"734 1102 OFFCURVE",
"809 1150 OFFCURVE",
"812 1249 CURVE SMOOTH",
"817 1410 OFFCURVE",
"656 1468 OFFCURVE",
"521 1469 CURVE SMOOTH",
"373 1472 OFFCURVE",
"229 1402 OFFCURVE",
"220 1241 CURVE",
"427 1243 LINE",
"446 1284 OFFCURVE",
"482 1304 OFFCURVE",
"535 1304 CURVE SMOOTH",
"579 1303 OFFCURVE",
"620 1282 OFFCURVE",
"611 1233 CURVE",
"596 1166 OFFCURVE",
"534 1141 OFFCURVE",
"473 1138 CURVE",
"402 1138 LINE",
"377 1001 LINE",
"484 1000 LINE SMOOTH"
);
}
);
width = 1615;
}
);
note = threequarters;
unicode = 00BE;
},
{
glyphname = questiondown;
lastChange = "2017-05-19 14:51:26 +0000";
layers = (
{
layerId = "3E4CAA31-52BF-436B-A4FF-501363857ACF";
paths = (
{
closed = 1;
nodes = (
"741 1043 OFFCURVE",
"670 1107 OFFCURVE",
"583 1104 CURVE SMOOTH",
"494 1103 OFFCURVE",
"425 1034 OFFCURVE",
"428 945 CURVE SMOOTH",
"429 856 OFFCURVE",
"500 793 OFFCURVE",
"588 796 CURVE SMOOTH",
"677 797 OFFCURVE",
"745 866 OFFCURVE",
"742 955 CURVE SMOOTH"
);
},
{
closed = 1;
nodes = (
"371 621 OFFCURVE",
"352 585 OFFCURVE",
"341 534 CURVE SMOOTH",
"329 483 OFFCURVE",
"304 442 OFFCURVE",
"267 412 CURVE SMOOTH",
"131 303 OFFCURVE",
"-22 186 OFFCURVE",
"-35 -1 CURVE SMOOTH",
"-52 -250 OFFCURVE",
"121 -381 OFFCURVE",
"356 -385 CURVE SMOOTH",
"616 -392 OFFCURVE",
"817 -242 OFFCURVE",
"837 23 CURVE",
"554 21 LINE",
"535 -78 OFFCURVE",
"474 -155 OFFCURVE",
"366 -152 CURVE SMOOTH",
"275 -151 OFFCURVE",
"242 -87 OFFCURVE",
"254 -2 CURVE SMOOTH",
"271 114 OFFCURVE",
"346 169 OFFCURVE",
"466 271 CURVE SMOOTH",
"585 373 OFFCURVE",
"634 485 OFFCURVE",
"643 644 CURVE",
"397 643 LINE"
);
}
);
width = 989;
}
);
note = questiondown;
unicode = 00BF;
},
{
glyphname = AE;
lastChange = "2017-05-19 14:51:26 +0000";
layers = (
{
layerId = "3E4CAA31-52BF-436B-A4FF-501363857ACF";
paths = (
{
closed = 1;
nodes = (
"1201 630 LINE",
"1678 630 LINE",
"1719 866 LINE",
"1232 866 LINE",
"1279 1220 LINE",
"1858 1220 LINE",
"1900 1456 LINE",
"905 1456 LINE",
"-111 0 LINE",
"237 0 LINE",
"458 334 LINE",
"880 334 LINE",
"835 0 LINE",
"1707 0 LINE",
"1749 236 LINE",
"1148 236 LINE"
);
},
{
closed = 1;
nodes = (
"912 581 LINE",
"616 583 LINE",
"986 1132 LINE"
);
}
);
width = 1868;
}
);
note = AE;
unicode = 00C6;
},
{
glyphname = multiply;
lastChange = "2017-05-19 14:51:26 +0000";
layers = (
{
layerId = "3E4CAA31-52BF-436B-A4FF-501363857ACF";
paths = (
{
closed = 1;
nodes = (
"1053 986 LINE",
"905 1168 LINE",
"556 859 LINE",
"315 1168 LINE",
"134 1012 LINE",
"378 700 LINE",
"25 387 LINE",
"173 205 LINE",
"521 513 LINE",
"763 205 LINE",
"944 361 LINE",
"701 673 LINE"
);
}
);
width = 1055;
}
);
note = multiply;
unicode = 00D7;
},
{
glyphname = Oslash;
lastChange = "2017-05-19 14:51:26 +0000";
layers = (
{
layerId = "3E4CAA31-52BF-436B-A4FF-501363857ACF";
paths = (
{
closed = 1;
nodes = (
"742 -23 OFFCURVE",
"860 10 OFFCURVE",
"959 78 CURVE SMOOTH",
"1158 213 OFFCURVE",
"1277 446 OFFCURVE",
"1312 695 CURVE SMOOTH",
"1321 760 LINE SMOOTH",
"1346 959 OFFCURVE",
"1317 1135 OFFCURVE",
"1236 1288 CURVE",
"1419 1517 LINE",
"1217 1518 LINE",
"1119 1393 LINE",
"948 1502 OFFCURVE",
"668 1513 OFFCURVE",
"469 1378 CURVE SMOOTH",
"270 1242 OFFCURVE",
"151 1009 OFFCURVE",
"116 760 CURVE SMOOTH",
"107 695 LINE SMOOTH",
"81 487 OFFCURVE",
"114 305 OFFCURVE",
"206 150 CURVE",
"12 -94 LINE",
"214 -95 LINE",
"326 51 LINE",
"409 4 OFFCURVE",
"502 -20 OFFCURVE",
"605 -21 CURVE SMOOTH"
);
},
{
closed = 1;
nodes = (
"416 876 OFFCURVE",
"480 1053 OFFCURVE",
"594 1157 CURVE SMOOTH",
"708 1261 OFFCURVE",
"892 1248 OFFCURVE",
"965 1172 CURVE",
"390 408 LINE",
"384 455 OFFCURVE",
"383 503 OFFCURVE",
"386 551 CURVE SMOOTH",
"389 587 LINE SMOOTH"
);
},
{
closed = 1;
nodes = (
"991 541 OFFCURVE",
"934 387 OFFCURVE",
"826 292 CURVE SMOOTH",
"718 196 OFFCURVE",
"551 212 OFFCURVE",
"480 268 CURVE",
"1044 1020 LINE",
"1047 955 OFFCURVE",
"1041 869 OFFCURVE",
"1026 762 CURVE SMOOTH",
"1015 694 LINE SMOOTH"
);
}
);
width = 1369;
}
);
leftKerningGroup = C;
note = Oslash;
unicode = 00D8;
},
{
glyphname = Thorn;
lastChange = "2017-05-19 14:51:26 +0000";
layers = (
{
layerId = "3E4CAA31-52BF-436B-A4FF-501363857ACF";
paths = (
{
closed = 1;
nodes = (
"686 286 OFFCURVE",
"777 303 OFFCURVE",
"863 336 CURVE SMOOTH",
"1034 403 OFFCURVE",
"1155 538 OFFCURVE",
"1171 746 CURVE SMOOTH",
"1192 1033 OFFCURVE",
"975 1183 OFFCURVE",
"710 1188 CURVE SMOOTH",
"513 1189 LINE",
"560 1456 LINE",
"277 1456 LINE",
"24 0 LINE",
"307 0 LINE",
"358 287 LINE",
"590 286 LINE SMOOTH"
);
},
{
closed = 1;
nodes = (
"832 950 OFFCURVE",
"908 873 OFFCURVE",
"888 744 CURVE SMOOTH",
"865 596 OFFCURVE",
"740 519 OFFCURVE",
"597 518 CURVE SMOOTH",
"398 520 LINE",
"473 956 LINE",
"705 955 LINE"
);
}
);
width = 1209;
}
);
note = Thorn;
unicode = 00DE;
},
{
glyphname = germandbls;
lastChange = "2017-05-19 14:51:26 +0000";
layers = (
{
layerId = "3E4CAA31-52BF-436B-A4FF-501363857ACF";
paths = (
{
closed = 1;
nodes = (
"502 1155 OFFCURVE",
"521 1208 OFFCURVE",
"550 1259 CURVE SMOOTH",
"609 1360 OFFCURVE",
"749 1342 OFFCURVE",
"789 1287 CURVE SMOOTH",
"829 1232 OFFCURVE",
"814 1133 OFFCURVE",
"766 1056 CURVE SMOOTH",
"717 979 OFFCURVE",
"663 904 OFFCURVE",
"656 808 CURVE SMOOTH",
"651 713 OFFCURVE",
"707 641 OFFCURVE",
"769 574 CURVE SMOOTH",
"800 540 OFFCURVE",
"826 506 OFFCURVE",
"847 472 CURVE SMOOTH",
"889 403 OFFCURVE",
"873 298 OFFCURVE",
"798 250 CURVE SMOOTH",
"722 201 OFFCURVE",
"587 193 OFFCURVE",
"467 266 CURVE",
"397 33 LINE",
"470 -2 OFFCURVE",
"561 -21 OFFCURVE",
"670 -22 CURVE SMOOTH",
"914 -25 OFFCURVE",
"1133 100 OFFCURVE",
"1145 364 CURVE SMOOTH",
"1149 455 OFFCURVE",
"1094 531 OFFCURVE",
"1035 603 CURVE SMOOTH",
"1005 639 OFFCURVE",
"980 675 OFFCURVE",
"960 711 CURVE SMOOTH",
"919 782 OFFCURVE",
"941 874 OFFCURVE",
"990 950 CURVE SMOOTH",
"1037 1022 OFFCURVE",
"1091 1098 OFFCURVE",
"1098 1198 CURVE SMOOTH",
"1114 1423 OFFCURVE",
"946 1556 OFFCURVE",
"733 1560 CURVE SMOOTH",
"441 1567 OFFCURVE",
"251 1385 OFFCURVE",
"214 1102 CURVE",
"26 0 LINE",
"307 0 LINE",
"494 1098 LINE SMOOTH"
);
}
);
width = 1253;
}
);
note = germandbls;
unicode = 00DF;
},
{
glyphname = ae;
lastChange = "2017-05-19 14:51:26 +0000";
layers = (
{
layerId = "3E4CAA31-52BF-436B-A4FF-501363857ACF";
paths = (
{
closed = 1;
nodes = (
"1361 246 OFFCURVE",
"1266 212 OFFCURVE",
"1158 215 CURVE SMOOTH",
"1013 219 OFFCURVE",
"945 311 OFFCURVE",
"960 451 CURVE",
"1601 450 LINE",
"1626 612 LINE",
"1641 741 OFFCURVE",
"1617 854 OFFCURVE",
"1554 951 CURVE SMOOTH",
"1429 1144 OFFCURVE",
"1121 1142 OFFCURVE",
"921 993 CURVE",
"792 1136 OFFCURVE",
"549 1116 OFFCURVE",
"402 1072 CURVE SMOOTH",
"254 1027 OFFCURVE",
"139 928 OFFCURVE",
"131 763 CURVE",
"413 745 LINE",
"432 834 OFFCURVE",
"519 873 OFFCURVE",
"604 870 CURVE SMOOTH",
"699 867 OFFCURVE",
"730 795 OFFCURVE",
"715 708 CURVE",
"702 649 LINE",
"535 651 LINE SMOOTH",
"384 651 OFFCURVE",
"213 620 OFFCURVE",
"103 522 CURVE SMOOTH",
"-7 424 OFFCURVE",
"-27 177 OFFCURVE",
"111 66 CURVE SMOOTH",
"249 -45 OFFCURVE",
"544 -74 OFFCURVE",
"769 127 CURVE",
"852 20 OFFCURVE",
"991 -19 OFFCURVE",
"1122 -20 CURVE SMOOTH",
"1253 -21 OFFCURVE",
"1417 9 OFFCURVE",
"1518 98 CURVE",
"1457 291 LINE"
);
},
{
closed = 1;
nodes = (
"1347 866 OFFCURVE",
"1372 771 OFFCURVE",
"1355 674 CURVE",
"1348 644 LINE",
"980 644 LINE",
"1023 760 OFFCURVE",
"1094 875 OFFCURVE",
"1235 870 CURVE SMOOTH"
);
},
{
closed = 1;
nodes = (
"350 192 OFFCURVE",
"283 223 OFFCURVE",
"298 307 CURVE SMOOTH",
"318 419 OFFCURVE",
"441 459 OFFCURVE",
"540 462 CURVE",
"679 461 LINE",
"641 271 LINE",
"557 216 OFFCURVE",
"485 190 OFFCURVE",
"425 191 CURVE SMOOTH"
);
}
);
width = 1678;
}
);
note = ae;
unicode = 00E6;
},
{
glyphname = eth;
lastChange = "2017-05-19 14:51:26 +0000";
layers = (
{
layerId = "3E4CAA31-52BF-436B-A4FF-501363857ACF";
paths = (
{
closed = 1;
nodes = (
"596 -24 OFFCURVE",
"694 4 OFFCURVE",
"777 62 CURVE SMOOTH",
"943 177 OFFCURVE",
"1044 375 OFFCURVE",
"1072 576 CURVE SMOOTH",
"1081 650 LINE SMOOTH",
"1110 889 OFFCURVE",
"1062 1096 OFFCURVE",
"945 1303 CURVE",
"1091 1382 LINE",
"1030 1512 LINE",
"839 1400 LINE",
"739 1485 OFFCURVE",
"616 1545 OFFCURVE",
"469 1580 CURVE",
"361 1356 LINE",
"466 1327 OFFCURVE",
"544 1292 OFFCURVE",
"595 1250 CURVE",
"434 1160 LINE",
"497 1032 LINE",
"707 1154 LINE",
"765 1071 OFFCURVE",
"795 983 OFFCURVE",
"798 890 CURVE",
"725 940 OFFCURVE",
"646 966 OFFCURVE",
"562 967 CURVE SMOOTH",
"266 974 OFFCURVE",
"84 739 OFFCURVE",
"60 460 CURVE SMOOTH",
"39 193 OFFCURVE",
"213 -14 OFFCURVE",
"484 -21 CURVE SMOOTH"
);
},
{
closed = 1;
nodes = (
"352 536 OFFCURVE",
"379 604 OFFCURVE",
"424 663 CURVE SMOOTH",
"515 781 OFFCURVE",
"737 772 OFFCURVE",
"804 669 CURVE",
"800 652 LINE",
"783 548 LINE SMOOTH",
"775 499 OFFCURVE",
"760 449 OFFCURVE",
"739 396 CURVE SMOOTH",
"696 290 OFFCURVE",
"622 207 OFFCURVE",
"502 211 CURVE SMOOTH",
"369 216 OFFCURVE",
"328 344 OFFCURVE",
"343 460 CURVE SMOOTH"
);
}
);
width = 1144;
}
);
note = eth;
unicode = 00F0;
},
{
glyphname = divide;
lastChange = "2017-05-19 14:51:26 +0000";
layers = (
{
layerId = "3E4CAA31-52BF-436B-A4FF-501363857ACF";
paths = (
{
closed = 1;
nodes = (
"490 994 OFFCURVE",
"561 937 OFFCURVE",
"649 938 CURVE SMOOTH",
"738 939 OFFCURVE",
"807 1004 OFFCURVE",
"806 1095 CURVE SMOOTH",
"803 1184 OFFCURVE",
"732 1245 OFFCURVE",
"644 1242 CURVE SMOOTH",
"555 1241 OFFCURVE",
"486 1177 OFFCURVE",
"487 1085 CURVE SMOOTH"
);
},
{
closed = 1;
nodes = (
"56 571 LINE",
"1055 571 LINE",
"1096 802 LINE",
"97 802 LINE"
);
},
{
closed = 1;
nodes = (
"348 182 OFFCURVE",
"421 125 OFFCURVE",
"508 126 CURVE SMOOTH",
"599 127 OFFCURVE",
"666 192 OFFCURVE",
"665 283 CURVE SMOOTH",
"662 372 OFFCURVE",
"591 433 OFFCURVE",
"504 430 CURVE SMOOTH",
"413 429 OFFCURVE",
"344 365 OFFCURVE",
"347 273 CURVE SMOOTH"
);
}
);
width = 1133;
}
);
note = divide;
unicode = 00F7;
},
{
glyphname = oslash;
lastChange = "2017-05-19 14:51:26 +0000";
layers = (
{
layerId = "3E4CAA31-52BF-436B-A4FF-501363857ACF";
paths = (
{
closed = 1;
nodes = (
"801 -26 OFFCURVE",
"1011 225 OFFCURVE",
"1048 532 CURVE SMOOTH",
"1050 554 LINE SMOOTH",
"1067 714 OFFCURVE",
"1040 877 OFFCURVE",
"931 1002 CURVE",
"1081 1215 LINE",
"906 1216 LINE",
"809 1072 LINE",
"749 1092 OFFCURVE",
"689 1102 OFFCURVE",
"628 1103 CURVE SMOOTH",
"305 1108 OFFCURVE",
"96 861 OFFCURVE",
"56 558 CURVE SMOOTH",
"52 528 LINE",
"36 364 OFFCURVE",
"65 199 OFFCURVE",
"178 75 CURVE",
"27 -141 LINE",
"201 -142 LINE",
"302 8 LINE",
"360 -11 OFFCURVE",
"418 -21 OFFCURVE",
"476 -22 CURVE SMOOTH"
);
},
{
closed = 1;
nodes = (
"328 529 OFFCURVE",
"347 618 OFFCURVE",
"378 691 CURVE SMOOTH",
"441 837 OFFCURVE",
"508 875 OFFCURVE",
"616 874 CURVE SMOOTH",
"639 873 OFFCURVE",
"661 869 OFFCURVE",
"682 862 CURVE",
"327 321 LINE",
"321 356 OFFCURVE",
"319 390 OFFCURVE",
"322 425 CURVE SMOOTH"
);
},
{
closed = 1;
nodes = (
"740 380 OFFCURVE",
"665 205 OFFCURVE",
"484 209 CURVE",
"467 210 OFFCURVE",
"447 213 OFFCURVE",
"426 218 CURVE",
"778 750 LINE",
"783 717 OFFCURVE",
"784 685 OFFCURVE",
"782 652 CURVE",
"767 532 LINE"
);
}
);
width = 1121;
}
);
note = oslash;
unicode = 00F8;
},
{
glyphname = thorn;
lastChange = "2017-05-19 14:51:26 +0000";
layers = (
{
layerId = "3E4CAA31-52BF-436B-A4FF-501363857ACF";
paths = (
{
closed = 1;
nodes = (
"660 -23 OFFCURVE",
"741 1 OFFCURVE",
"806 52 CURVE SMOOTH",
"935 151 OFFCURVE",
"1015 318 OFFCURVE",
"1047 555 CURVE",
"1063 718 OFFCURVE",
"1038 900 OFFCURVE",
"935 1014 CURVE SMOOTH",
"832 1128 OFFCURVE",
"595 1143 OFFCURVE",
"446 987 CURVE",
"554 1536 LINE",
"270 1536 LINE",
"-68 -416 LINE",
"215 -416 LINE",
"314 96 LINE",
"376 21 OFFCURVE",
"459 -18 OFFCURVE",
"563 -21 CURVE SMOOTH"
);
},
{
closed = 1;
nodes = (
"678 867 OFFCURVE",
"714 848 OFFCURVE",
"735 812 CURVE SMOOTH",
"776 739 OFFCURVE",
"772 632 OFFCURVE",
"764 555 CURVE",
"731 323 OFFCURVE",
"643 209 OFFCURVE",
"501 212 CURVE SMOOTH",
"420 214 OFFCURVE",
"367 249 OFFCURVE",
"341 318 CURVE",
"421 764 LINE",
"476 837 OFFCURVE",
"544 872 OFFCURVE",
"625 869 CURVE SMOOTH"
);
}
);
width = 1127;
}
);
note = thorn;
rightKerningGroup = b;
unicode = 00FE;
},
{
glyphname = dcroat;
lastChange = "2017-05-19 14:51:26 +0000";
layers = (
{
layerId = "3E4CAA31-52BF-436B-A4FF-501363857ACF";
paths = (
{
closed = 1;
nodes = (
"1118 1219 LINE",
"1271 1219 LINE",
"1303 1401 LINE",
"1150 1401 LINE",
"1174 1536 LINE",
"890 1536 LINE",
"866 1401 LINE",
"623 1401 LINE",
"591 1219 LINE",
"835 1219 LINE",
"784 983 LINE",
"661 1136 OFFCURVE",
"420 1134 OFFCURVE",
"284 1023 CURVE SMOOTH",
"148 911 OFFCURVE",
"75 726 OFFCURVE",
"54 547 CURVE SMOOTH",
"52 525 LINE SMOOTH",
"35 366 OFFCURVE",
"64 185 OFFCURVE",
"168 70 CURVE SMOOTH",
"271 -46 OFFCURVE",
"508 -71 OFFCURVE",
"671 116 CURVE",
"655 0 LINE",
"907 0 LINE"
);
},
{
closed = 1;
nodes = (
"350 643 OFFCURVE",
"386 754 OFFCURVE",
"459 822 CURVE SMOOTH",
"531 890 OFFCURVE",
"704 902 OFFCURVE",
"756 759 CURVE",
"679 325 LINE",
"619 248 OFFCURVE",
"551 212 OFFCURVE",
"474 215 CURVE SMOOTH",
"421 217 OFFCURVE",
"384 236 OFFCURVE",
"364 272 CURVE SMOOTH",
"323 343 OFFCURVE",
"327 450 OFFCURVE",
"336 526 CURVE SMOOTH",
"338 547 LINE SMOOTH"
);
}
);
width = 1252;
}
);
note = dcroat;
unicode = 0111;
},
{
glyphname = Hbar;
lastChange = "2017-05-19 14:51:26 +0000";
layers = (
{
layerId = "3E4CAA31-52BF-436B-A4FF-501363857ACF";
paths = (
{
closed = 1;
nodes = (
"1369 1050 LINE",
"1488 1050 LINE",
"1518 1224 LINE",
"1399 1224 LINE",
"1440 1456 LINE",
"1147 1456 LINE",
"1106 1224 LINE",
"541 1224 LINE",
"582 1456 LINE",
"288 1456 LINE",
"248 1224 LINE",
"137 1224 LINE",
"107 1050 LINE",
"218 1050 LINE",
"36 0 LINE",
"329 0 LINE",
"437 624 LINE",
"1003 624 LINE",
"894 0 LINE",
"1187 0 LINE"
);
},
{
closed = 1;
nodes = (
"1077 1050 LINE",
"1044 866 LINE",
"479 866 LINE",
"511 1050 LINE"
);
}
);
width = 1430;
}
);
note = Hbar;
unicode = 0126;
},
{
glyphname = dotlessi;
lastChange = "2017-05-19 14:51:26 +0000";
layers = (
{
layerId = "3E4CAA31-52BF-436B-A4FF-501363857ACF";
paths = (
{
closed = 1;
nodes = (
"25 0 LINE",
"308 0 LINE",
"496 1082 LINE",
"213 1082 LINE"
);
}
);
width = 544;
}
);
note = dotlessi;
unicode = 0131;
},
{
glyphname = kgreenlandic;
lastChange = "2017-05-19 14:51:26 +0000";
layers = (
{
layerId = "3E4CAA31-52BF-436B-A4FF-501363857ACF";
paths = (
{
closed = 1;
nodes = (
"742 546 LINE",
"1214 1082 LINE",
"837 1082 LINE",
"493 675 LINE",
"420 675 LINE",
"492 1082 LINE",
"209 1082 LINE",
"21 0 LINE",
"304 0 LINE",
"373 399 LINE",
"496 399 LINE",
"681 0 LINE",
"1026 0 LINE"
);
}
);
width = 1173;
}
);
note = kgreenlandic;
unicode = 0138;
},
{
glyphname = Lslash;
lastChange = "2017-05-19 14:51:26 +0000";
layers = (
{
layerId = "3E4CAA31-52BF-436B-A4FF-501363857ACF";
paths = (
{
closed = 1;
nodes = (
"472 725 LINE",
"691 787 LINE",
"722 962 LINE",
"502 901 LINE",
"599 1456 LINE",
"305 1456 LINE",
"193 813 LINE",
"58 775 LINE",
"27 600 LINE",
"163 638 LINE",
"52 0 LINE",
"963 0 LINE",
"1006 242 LINE",
"388 242 LINE"
);
}
);
width = 1108;
}
);
note = Lslash;
unicode = 0141;
},
{
glyphname = lslash;
lastChange = "2017-05-19 14:51:26 +0000";
layers = (
{
layerId = "3E4CAA31-52BF-436B-A4FF-501363857ACF";
paths = (
{
closed = 1;
nodes = (
"493 917 LINE",
"601 1536 LINE",
"318 1536 LINE",
"193 819 LINE",
"58 776 LINE",
"27 598 LINE",
"163 641 LINE",
"51 0 LINE",
"335 0 LINE",
"463 739 LINE",
"608 785 LINE",
"639 963 LINE"
);
}
);
width = 607;
}
);
note = lslash;
unicode = 0142;
},
{
glyphname = Eng;
lastChange = "2017-05-19 14:51:26 +0000";
layers = (
{
layerId = "3E4CAA31-52BF-436B-A4FF-501363857ACF";
paths = (
{
closed = 1;
nodes = (
"487 991 LINE",
"884 0 LINE",
"869 -67 OFFCURVE",
"849 -117 OFFCURVE",
"826 -149 CURVE SMOOTH",
"778 -213 OFFCURVE",
"691 -203 OFFCURVE",
"622 -183 CURVE",
"584 -421 LINE",
"640 -432 OFFCURVE",
"692 -439 OFFCURVE",
"739 -440 CURVE SMOOTH",
"995 -441 OFFCURVE",
"1139 -269 OFFCURVE",
"1170 -28 CURVE",
"1423 1456 LINE",
"1129 1456 LINE",
"957 466 LINE",
"556 1456 LINE",
"273 1456 LINE",
"20 0 LINE",
"314 0 LINE"
);
}
);
width = 1397;
}
);
note = Eng;
unicode = 014A;
},
{
glyphname = eng;
lastChange = "2017-05-19 14:51:26 +0000";
layers = (
{
layerId = "3E4CAA31-52BF-436B-A4FF-501363857ACF";
paths = (
{
closed = 1;
nodes = (
"1029 731 OFFCURVE",
"1027 800 OFFCURVE",
"1014 867 CURVE SMOOTH",
"988 1001 OFFCURVE",
"907 1099 OFFCURVE",
"740 1102 CURVE SMOOTH",
"617 1105 OFFCURVE",
"512 1047 OFFCURVE",
"424 928 CURVE",
"448 1083 LINE",
"188 1082 LINE",
"0 0 LINE",
"282 0 LINE",
"421 783 LINE",
"487 842 OFFCURVE",
"556 870 OFFCURVE",
"628 867 CURVE SMOOTH",
"747 863 OFFCURVE",
"751 758 OFFCURVE",
"739 661 CURVE",
"626 -29 LINE SMOOTH",
"611 -121 OFFCURVE",
"569 -205 OFFCURVE",
"470 -205 CURVE SMOOTH",
"441 -205 OFFCURVE",
"408 -200 OFFCURVE",
"373 -189 CURVE",
"336 -421 LINE",
"391 -432 OFFCURVE",
"441 -439 OFFCURVE",
"487 -440 CURVE SMOOTH",
"740 -443 OFFCURVE",
"879 -274 OFFCURVE",
"910 -35 CURVE SMOOTH",
"1022 660 LINE"
);
}
);
width = 1121;
}
);
note = eng;
unicode = 014B;
},
{
glyphname = OE;
lastChange = "2017-05-19 14:51:26 +0000";
layers = (
{
layerId = "3E4CAA31-52BF-436B-A4FF-501363857ACF";
paths = (
{
closed = 1;
nodes = (
"1171 631 LINE",
"1728 631 LINE",
"1769 866 LINE",
"1211 866 LINE",
"1272 1213 LINE",
"1925 1213 LINE",
"1968 1456 LINE",
"1090 1456 LINE",
"882 1475 LINE",
"809 1477 LINE SMOOTH",
"450 1478 OFFCURVE",
"189 1228 OFFCURVE",
"138 880 CURVE SMOOTH",
"91 576 LINE SMOOTH",
"50 247 OFFCURVE",
"256 -11 OFFCURVE",
"591 -18 CURVE",
"662 -17 LINE",
"874 0 LINE",
"1717 0 LINE",
"1759 242 LINE",
"1103 242 LINE"
);
},
{
closed = 1;
nodes = (
"439 987 OFFCURVE",
"479 1074 OFFCURVE",
"543 1144 CURVE SMOOTH",
"671 1283 OFFCURVE",
"854 1249 OFFCURVE",
"986 1232 CURVE",
"799 224 LINE",
"705 217 OFFCURVE",
"639 214 OFFCURVE",
"600 215 CURVE SMOOTH",
"395 223 OFFCURVE",
"349 398 OFFCURVE",
"373 575 CURVE SMOOTH",
"422 883 LINE SMOOTH"
);
}
);
width = 1924;
}
);
leftKerningGroup = C;
note = OE;
unicode = 0152;
},
{
glyphname = oe;
lastChange = "2017-05-19 14:51:26 +0000";
layers = (
{
layerId = "3E4CAA31-52BF-436B-A4FF-501363857ACF";
paths = (
{
closed = 1;
nodes = (
"1439 238 OFFCURVE",
"1338 213 OFFCURVE",
"1247 216 CURVE SMOOTH",
"1110 220 OFFCURVE",
"1056 325 OFFCURVE",
"1064 450 CURVE",
"1693 450 LINE",
"1718 613 LINE",
"1733 746 OFFCURVE",
"1709 860 OFFCURVE",
"1644 955 CURVE SMOOTH",
"1515 1145 OFFCURVE",
"1196 1156 OFFCURVE",
"977 955 CURVE",
"897 1059 OFFCURVE",
"767 1100 OFFCURVE",
"639 1103 CURVE SMOOTH",
"315 1108 OFFCURVE",
"107 854 OFFCURVE",
"70 549 CURVE SMOOTH",
"68 528 LINE SMOOTH",
"54 385 OFFCURVE",
"82 258 OFFCURVE",
"152 149 CURVE SMOOTH",
"291 -71 OFFCURVE",
"647 -75 OFFCURVE",
"871 128 CURVE",
"951 25 OFFCURVE",
"1082 -18 OFFCURVE",
"1210 -19 CURVE SMOOTH",
"1346 -22 OFFCURVE",
"1510 9 OFFCURVE",
"1615 101 CURVE",
"1550 291 LINE"
);
},
{
closed = 1;
nodes = (
"1435 868 OFFCURVE",
"1464 776 OFFCURVE",
"1447 676 CURVE SMOOTH",
"1441 646 LINE",
"1085 646 LINE",
"1125 750 OFFCURVE",
"1190 875 OFFCURVE",
"1319 871 CURVE SMOOTH"
);
},
{
closed = 1;
nodes = (
"365 643 OFFCURVE",
"402 754 OFFCURVE",
"477 822 CURVE SMOOTH",
"552 890 OFFCURVE",
"695 885 OFFCURVE",
"741 814 CURVE SMOOTH",
"787 743 OFFCURVE",
"788 652 OFFCURVE",
"776 532 CURVE SMOOTH",
"766 458 OFFCURVE",
"741 385 OFFCURVE",
"700 314 CURVE SMOOTH",
"618 171 OFFCURVE",
"434 197 OFFCURVE",
"388 266 CURVE SMOOTH",
"342 334 OFFCURVE",
"340 424 OFFCURVE",
"352 544 CURVE SMOOTH"
);
}
);
width = 1793;
}
);
leftKerningGroup = c;
note = oe;
unicode = 0153;
},
{
glyphname = longs;
lastChange = "2017-05-19 14:51:26 +0000";
layers = (
{
layerId = "3E4CAA31-52BF-436B-A4FF-501363857ACF";
paths = (
{
closed = 1;
nodes = (
"510 1275 OFFCURVE",
"570 1328 OFFCURVE",
"673 1327 CURVE SMOOTH",
"699 1327 OFFCURVE",
"730 1323 OFFCURVE",
"765 1315 CURVE",
"811 1536 LINE",
"741 1551 OFFCURVE",
"686 1559 OFFCURVE",
"645 1559 CURVE SMOOTH",
"398 1563 OFFCURVE",
"239 1417 OFFCURVE",
"207 1176 CURVE",
"8 0 LINE",
"290 0 LINE",
"492 1170 LINE SMOOTH"
);
}
);
width = 516;
}
);
note = longs;
unicode = 017F;
},
{
glyphname = uni0181;
lastChange = "2017-05-19 14:51:26 +0000";
layers = (
{
layerId = "3E4CAA31-52BF-436B-A4FF-501363857ACF";
paths = (
{
closed = 1;
nodes = (
"114 1041 OFFCURVE",
"116 993 OFFCURVE",
"123 942 CURVE",
"352 941 LINE",
"350 985 LINE",
"351 1027 LINE",
"364 1134 OFFCURVE",
"428 1206 OFFCURVE",
"536 1217 CURVE",
"317 0 LINE",
"880 0 LINE SMOOTH",
"1164 -1 OFFCURVE",
"1420 125 OFFCURVE",
"1440 436 CURVE SMOOTH",
"1448 568 OFFCURVE",
"1393 696 OFFCURVE",
"1264 743 CURVE",
"1335 774 OFFCURVE",
"1394 815 OFFCURVE",
"1441 867 CURVE SMOOTH",
"1534 971 OFFCURVE",
"1552 1183 OFFCURVE",
"1461 1296 CURVE SMOOTH",
"1377 1401 OFFCURVE",
"1230 1454 OFFCURVE",
"1020 1455 CURVE SMOOTH",
"557 1457 LINE",
"557 1456 LINE",
"317 1459 OFFCURVE",
"137 1333 OFFCURVE",
"117 1084 CURVE SMOOTH"
);
},
{
closed = 1;
nodes = (
"1160 1209 OFFCURVE",
"1242 1166 OFFCURVE",
"1221 1034 CURVE SMOOTH",
"1198 893 OFFCURVE",
"1072 846 OFFCURVE",
"944 846 CURVE SMOOTH",
"757 847 LINE",
"821 1213 LINE",
"1043 1212 LINE SMOOTH"
);
},
{
closed = 1;
nodes = (
"1129 303 OFFCURVE",
"1011 242 OFFCURVE",
"883 241 CURVE SMOOTH",
"652 242 LINE",
"721 635 LINE",
"997 634 LINE",
"1119 629 OFFCURVE",
"1170 564 OFFCURVE",
"1150 440 CURVE SMOOTH"
);
}
);
width = 1561;
}
);
note = uni0181;
unicode = 0181;
},
{
glyphname = uni0183;
lastChange = "2017-05-19 14:51:26 +0000";
layers = (
{
layerId = "3E4CAA31-52BF-436B-A4FF-501363857ACF";
paths = (
{
closed = 1;
nodes = (
"301 117 LINE",
"421 -60 OFFCURVE",
"680 -50 OFFCURVE",
"812 54 CURVE SMOOTH",
"935 151 OFFCURVE",
"1012 312 OFFCURVE",
"1043 538 CURVE SMOOTH",
"1045 554 LINE SMOOTH",
"1061 717 OFFCURVE",
"1037 900 OFFCURVE",
"934 1014 CURVE SMOOTH",
"831 1128 OFFCURVE",
"593 1144 OFFCURVE",
"444 984 CURVE",
"520 1353 LINE",
"990 1353 LINE",
"1022 1536 LINE",
"268 1536 LINE",
"2 0 LINE",
"260 0 LINE"
);
},
{
closed = 1;
nodes = (
"680 867 OFFCURVE",
"717 848 OFFCURVE",
"737 812 CURVE SMOOTH",
"777 740 OFFCURVE",
"771 645 OFFCURVE",
"760 533 CURVE SMOOTH",
"747 434 OFFCURVE",
"717 325 OFFCURVE",
"646 260 CURVE SMOOTH",
"575 195 OFFCURVE",
"390 181 OFFCURVE",
"341 325 CURVE",
"418 756 LINE",
"474 834 OFFCURVE",
"543 872 OFFCURVE",
"625 869 CURVE SMOOTH"
);
}
);
width = 1118;
}
);
note = uni0183;
rightKerningGroup = b;
unicode = 0183;
},
{
glyphname = uni0184;
lastChange = "2017-05-19 14:51:26 +0000";
layers = (
{
layerId = "3E4CAA31-52BF-436B-A4FF-501363857ACF";
paths = (
{
closed = 1;
nodes = (
"1306 772 OFFCURVE",
"1080 926 OFFCURVE",
"809 931 CURVE SMOOTH",
"596 932 LINE",
"687 1456 LINE",
"379 1456 LINE",
"185 1292 LINE",
"161 1155 LINE",
"310 980 LINE",
"140 0 LINE",
"675 0 LINE SMOOTH",
"1020 0 OFFCURVE",
"1262 190 OFFCURVE",
"1283 479 CURVE SMOOTH"
);
},
{
closed = 1;
nodes = (
"803 689 LINE",
"928 684 OFFCURVE",
"1010 613 OFFCURVE",
"990 482 CURVE SMOOTH",
"967 329 OFFCURVE",
"840 241 OFFCURVE",
"691 240 CURVE SMOOTH",
"476 242 LINE",
"554 690 LINE"
);
}
);
width = 1364;
}
);
note = uni0184;
unicode = 0184;
},
{
glyphname = uni0185;
lastChange = "2017-05-19 14:51:26 +0000";
layers = (
{
layerId = "3E4CAA31-52BF-436B-A4FF-501363857ACF";
paths = (
{
closed = 1;
nodes = (
"787 -23 OFFCURVE",
"871 2 OFFCURVE",
"937 54 CURVE SMOOTH",
"1060 151 OFFCURVE",
"1137 312 OFFCURVE",
"1168 538 CURVE SMOOTH",
"1170 554 LINE SMOOTH",
"1186 718 OFFCURVE",
"1162 900 OFFCURVE",
"1059 1014 CURVE SMOOTH",
"956 1128 OFFCURVE",
"717 1144 OFFCURVE",
"568 983 CURVE",
"676 1536 LINE",
"381 1536 LINE",
"186 1372 LINE",
"162 1235 LINE",
"311 1060 LINE",
"127 0 LINE",
"385 0 LINE",
"426 117 LINE",
"485 28 OFFCURVE",
"572 -17 OFFCURVE",
"686 -20 CURVE SMOOTH"
);
},
{
closed = 1;
nodes = (
"805 867 OFFCURVE",
"842 848 OFFCURVE",
"862 812 CURVE SMOOTH",
"902 740 OFFCURVE",
"896 633 OFFCURVE",
"887 554 CURVE SMOOTH",
"885 533 LINE SMOOTH",
"873 434 OFFCURVE",
"842 325 OFFCURVE",
"771 260 CURVE SMOOTH",
"700 195 OFFCURVE",
"514 180 OFFCURVE",
"465 327 CURVE",
"541 754 LINE",
"598 833 OFFCURVE",
"668 872 OFFCURVE",
"750 869 CURVE SMOOTH"
);
}
);
width = 1244;
}
);
note = uni0185;
rightKerningGroup = b;
unicode = 0185;
},
{
glyphname = uni0186;
lastChange = "2017-05-19 14:51:26 +0000";
layers = (
{
layerId = "3E4CAA31-52BF-436B-A4FF-501363857ACF";
paths = (
{
closed = 1;
nodes = (
"46 343 OFFCURVE",
"92 219 OFFCURVE",
"177 125 CURVE SMOOTH",
"345 -64 OFFCURVE",
"696 -58 OFFCURVE",
"889 75 CURVE SMOOTH",
"1082 207 OFFCURVE",
"1197 437 OFFCURVE",
"1232 681 CURVE SMOOTH",
"1245 776 LINE SMOOTH",
"1259 891 OFFCURVE",
"1253 1002 OFFCURVE",
"1226 1108 CURVE SMOOTH",
"1173 1320 OFFCURVE",
"1026 1472 OFFCURVE",
"763 1476 CURVE SMOOTH",
"450 1483 OFFCURVE",
"175 1291 OFFCURVE",
"136 970 CURVE",
"428 972 LINE",
"464 1141 OFFCURVE",
"573 1238 OFFCURVE",
"750 1231 CURVE SMOOTH",
"911 1226 OFFCURVE",
"959 1109 OFFCURVE",
"959 970 CURVE SMOOTH",
"959 821 OFFCURVE",
"936 616 OFFCURVE",
"881 469 CURVE SMOOTH",
"826 322 OFFCURVE",
"728 219 OFFCURVE",
"556 224 CURVE SMOOTH",
"383 231 OFFCURVE",
"330 334 OFFCURVE",
"329 495 CURVE",
"38 496 LINE"
);
}
);
width = 1301;
}
);
note = uni0186;
rightKerningGroup = D;
unicode = 0186;
},
{
glyphname = uni0187;
lastChange = "2017-05-19 14:51:26 +0000";
layers = (
{
layerId = "3E4CAA31-52BF-436B-A4FF-501363857ACF";
paths = (
{
closed = 1;
nodes = (
"1586 1329 OFFCURVE",
"1613 1325 OFFCURVE",
"1643 1318 CURVE",
"1668 1560 LINE",
"1613 1572 OFFCURVE",
"1563 1578 OFFCURVE",
"1518 1578 CURVE SMOOTH",
"1358 1579 OFFCURVE",
"1235 1509 OFFCURVE",
"1150 1368 CURVE",
"978 1512 OFFCURVE",
"651 1513 OFFCURVE",
"458 1382 CURVE SMOOTH",
"265 1251 OFFCURVE",
"148 1026 OFFCURVE",
"112 782 CURVE SMOOTH",
"99 680 LINE SMOOTH",
"84 565 OFFCURVE",
"91 454 OFFCURVE",
"118 348 CURVE SMOOTH",
"172 136 OFFCURVE",
"318 -16 OFFCURVE",
"581 -20 CURVE SMOOTH",
"894 -27 OFFCURVE",
"1170 163 OFFCURVE",
"1209 486 CURVE",
"916 484 LINE",
"881 315 OFFCURVE",
"772 218 OFFCURVE",
"595 225 CURVE SMOOTH",
"434 230 OFFCURVE",
"386 347 OFFCURVE",
"386 487 CURVE SMOOTH",
"386 635 OFFCURVE",
"410 840 OFFCURVE",
"464 987 CURVE SMOOTH",
"518 1134 OFFCURVE",
"617 1239 OFFCURVE",
"788 1232 CURVE SMOOTH",
"963 1227 OFFCURVE",
"1014 1122 OFFCURVE",
"1015 961 CURVE",
"1300 962 LINE",
"1336 1174 LINE SMOOTH",
"1359 1291 OFFCURVE",
"1451 1333 OFFCURVE",
"1563 1330 CURVE SMOOTH"
);
}
);
width = 1435;
}
);
leftKerningGroup = C;
note = uni0187;
unicode = 0187;
},
{
glyphname = uni0188;
lastChange = "2017-05-19 14:51:26 +0000";
layers = (
{
layerId = "3E4CAA31-52BF-436B-A4FF-501363857ACF";
paths = (
{
closed = 1;
nodes = (
"1245 1002 OFFCURVE",
"1268 999 OFFCURVE",
"1293 993 CURVE",
"1311 1188 LINE",
"1261 1199 OFFCURVE",
"1217 1204 OFFCURVE",
"1180 1204 CURVE SMOOTH",
"1046 1205 OFFCURVE",
"944 1145 OFFCURVE",
"874 1024 CURVE",
"805 1075 OFFCURVE",
"718 1102 OFFCURVE",
"613 1103 CURVE SMOOTH",
"289 1108 OFFCURVE",
"90 857 OFFCURVE",
"54 553 CURVE SMOOTH",
"51 524 LINE SMOOTH",
"23 240 OFFCURVE",
"152 -14 OFFCURVE",
"464 -21 CURVE SMOOTH",
"700 -26 OFFCURVE",
"920 130 OFFCURVE",
"939 375 CURVE",
"672 373 LINE",
"652 274 OFFCURVE",
"576 209 OFFCURVE",
"472 212 CURVE SMOOTH",
"361 215 OFFCURVE",
"328 297 OFFCURVE",
"328 393 CURVE SMOOTH",
"328 497 OFFCURVE",
"338 585 OFFCURVE",
"358 656 CURVE SMOOTH",
"397 798 OFFCURVE",
"467 874 OFFCURVE",
"591 870 CURVE SMOOTH",
"703 866 OFFCURVE",
"740 778 OFFCURVE",
"740 678 CURVE",
"998 679 LINE",
"1029 860 LINE SMOOTH",
"1049 959 OFFCURVE",
"1128 1006 OFFCURVE",
"1225 1002 CURVE"
);
}
);
width = 1172;
}
);
leftKerningGroup = c;
note = uni0188;
unicode = 0188;
},
{
glyphname = uni018A;
lastChange = "2017-05-19 14:51:26 +0000";
layers = (
{
layerId = "3E4CAA31-52BF-436B-A4FF-501363857ACF";
paths = (
{
closed = 1;
nodes = (
"114 1041 OFFCURVE",
"116 993 OFFCURVE",
"123 942 CURVE",
"352 941 LINE",
"350 985 LINE",
"351 1027 LINE",
"364 1134 OFFCURVE",
"428 1206 OFFCURVE",
"537 1217 CURVE",
"318 0 LINE",
"774 0 LINE SMOOTH",
"1162 0 OFFCURVE",
"1465 283 OFFCURVE",
"1522 696 CURVE SMOOTH",
"1531 760 LINE SMOOTH",
"1545 883 OFFCURVE",
"1533 998 OFFCURVE",
"1495 1104 CURVE SMOOTH",
"1418 1315 OFFCURVE",
"1242 1454 OFFCURVE",
"978 1455 CURVE SMOOTH",
"558 1457 LINE",
"558 1456 LINE",
"318 1459 OFFCURVE",
"137 1333 OFFCURVE",
"117 1084 CURVE SMOOTH"
);
},
{
closed = 1;
nodes = (
"1066 1209 OFFCURVE",
"1127 1185 OFFCURVE",
"1166 1139 CURVE SMOOTH",
"1242 1046 OFFCURVE",
"1258 893 OFFCURVE",
"1223 684 CURVE SMOOTH",
"1183 440 OFFCURVE",
"1042 240 OFFCURVE",
"775 241 CURVE SMOOTH",
"654 242 LINE",
"823 1213 LINE",
"983 1212 LINE SMOOTH"
);
}
);
width = 1588;
}
);
note = uni018A;
rightKerningGroup = D;
unicode = 018A;
},
{
glyphname = uni018B;
lastChange = "2017-05-19 14:51:26 +0000";
layers = (
{
layerId = "3E4CAA31-52BF-436B-A4FF-501363857ACF";
paths = (
{
closed = 1;
nodes = (
"358 1456 LINE",
"316 1213 LINE",
"950 1213 LINE",
"900 932 LINE",
"651 933 LINE SMOOTH",
"553 933 OFFCURVE",
"460 916 OFFCURVE",
"372 882 CURVE SMOOTH",
"196 814 OFFCURVE",
"70 676 OFFCURVE",
"54 464 CURVE SMOOTH",
"30 167 OFFCURVE",
"249 9 OFFCURVE",
"526 1 CURVE SMOOTH",
"1033 0 LINE",
"1286 1456 LINE"
);
},
{
closed = 1;
nodes = (
"401 248 OFFCURVE",
"327 335 OFFCURVE",
"347 466 CURVE SMOOTH",
"370 615 OFFCURVE",
"499 691 OFFCURVE",
"642 692 CURVE SMOOTH",
"859 690 LINE",
"781 242 LINE",
"532 243 LINE SMOOTH"
);
}
);
width = 1245;
}
);
note = uni018B;
rightKerningGroup = H;
unicode = 018B;
},
{
glyphname = uni018C;
lastChange = "2017-05-19 14:51:26 +0000";
layers = (
{
layerId = "3E4CAA31-52BF-436B-A4FF-501363857ACF";
paths = (
{
closed = 1;
nodes = (
"784 983 LINE",
"663 1136 OFFCURVE",
"420 1134 OFFCURVE",
"284 1023 CURVE SMOOTH",
"148 911 OFFCURVE",
"75 726 OFFCURVE",
"54 547 CURVE SMOOTH",
"52 525 LINE SMOOTH",
"35 366 OFFCURVE",
"64 185 OFFCURVE",
"168 70 CURVE SMOOTH",
"271 -46 OFFCURVE",
"508 -71 OFFCURVE",
"671 116 CURVE",
"655 0 LINE",
"907 0 LINE",
"1173 1536 LINE",
"420 1536 LINE",
"387 1353 LINE",
"859 1353 LINE"
);
},
{
closed = 1;
nodes = (
"350 643 OFFCURVE",
"386 754 OFFCURVE",
"459 822 CURVE SMOOTH",
"531 890 OFFCURVE",
"704 902 OFFCURVE",
"756 759 CURVE",
"679 325 LINE",
"619 248 OFFCURVE",
"551 212 OFFCURVE",
"474 215 CURVE SMOOTH",
"421 217 OFFCURVE",
"384 236 OFFCURVE",
"364 272 CURVE SMOOTH",
"323 343 OFFCURVE",
"327 450 OFFCURVE",
"336 526 CURVE SMOOTH",
"338 547 LINE SMOOTH"
);
}
);
width = 1120;
}
);
note = uni018C;
unicode = 018C;
},
{
glyphname = uni018D;
lastChange = "2017-05-19 14:51:26 +0000";
layers = (
{
layerId = "3E4CAA31-52BF-436B-A4FF-501363857ACF";
paths = (
{
closed = 1;
nodes = (
"665 -84 LINE SMOOTH",
"616 -30 OFFCURVE",
"575 23 OFFCURVE",
"542 76 CURVE",
"591 79 LINE",
"848 106 OFFCURVE",
"1024 333 OFFCURVE",
"1052 581 CURVE SMOOTH",
"1054 603 LINE SMOOTH",
"1078 884 OFFCURVE",
"915 1097 OFFCURVE",
"624 1102 CURVE SMOOTH",
"307 1109 OFFCURVE",
"94 872 OFFCURVE",
"59 569 CURVE SMOOTH",
"57 547 LINE SMOOTH",
"37 328 OFFCURVE",
"155 126 OFFCURVE",
"372 -70 CURVE SMOOTH",
"398 -93 OFFCURVE",
"420 -117 OFFCURVE",
"438 -142 CURVE",
"39 -143 LINE",
"-2 -375 LINE",
"764 -375 LINE",
"786 -222 LINE"
);
},
{
closed = 1;
nodes = (
"743 405 OFFCURVE",
"669 224 OFFCURVE",
"489 231 CURVE",
"474 231 OFFCURVE",
"456 234 OFFCURVE",
"435 239 CURVE",
"346 316 OFFCURVE",
"326 435 OFFCURVE",
"338 548 CURVE",
"341 568 LINE SMOOTH",
"350 642 OFFCURVE",
"376 712 OFFCURVE",
"417 777 CURVE SMOOTH",
"500 908 OFFCURVE",
"676 884 OFFCURVE",
"724 822 CURVE SMOOTH",
"771 760 OFFCURVE",
"775 677 OFFCURVE",
"763 557 CURVE SMOOTH"
);
}
);
width = 1121;
}
);
note = uni018D;
unicode = 018D;
},
{
glyphname = uni018E;
lastChange = "2017-05-19 14:51:26 +0000";
layers = (
{
layerId = "3E4CAA31-52BF-436B-A4FF-501363857ACF";
paths = (
{
closed = 1;
nodes = (
"736 825 LINE",
"179 825 LINE",
"138 590 LINE",
"696 590 LINE",
"636 243 LINE",
"-17 243 LINE",
"-59 0 LINE",
"888 0 LINE",
"1140 1456 LINE",
"191 1456 LINE",
"149 1214 LINE",
"804 1214 LINE"
);
}
);
width = 1117;
}
);
note = uni018E;
rightKerningGroup = H;
unicode = 018E;
},
{
glyphname = uni018F;
lastChange = "2017-05-19 14:51:26 +0000";
layers = (
{
layerId = "3E4CAA31-52BF-436B-A4FF-501363857ACF";
paths = (
{
closed = 1;
nodes = (
"721 -23 OFFCURVE",
"835 7 OFFCURVE",
"934 70 CURVE SMOOTH",
"1133 195 OFFCURVE",
"1262 414 OFFCURVE",
"1298 651 CURVE SMOOTH",
"1319 800 LINE SMOOTH",
"1368 1188 OFFCURVE",
"1145 1472 OFFCURVE",
"748 1476 CURVE SMOOTH",
"619 1477 OFFCURVE",
"424 1471 OFFCURVE",
"308 1400 CURVE",
"333 1150 LINE",
"476 1194 OFFCURVE",
"606 1215 OFFCURVE",
"722 1212 CURVE SMOOTH",
"957 1207 OFFCURVE",
"1063 1050 OFFCURVE",
"1026 826 CURVE",
"110 827 LINE",
"84 664 LINE SMOOTH",
"68 542 OFFCURVE",
"76 430 OFFCURVE",
"107 327 CURVE SMOOTH",
"169 121 OFFCURVE",
"329 -17 OFFCURVE",
"594 -21 CURVE SMOOTH"
);
},
{
closed = 1;
nodes = (
"421 244 OFFCURVE",
"326 366 OFFCURVE",
"362 550 CURVE SMOOTH",
"369 584 LINE",
"996 585 LINE",
"933 408 OFFCURVE",
"818 235 OFFCURVE",
"609 240 CURVE SMOOTH"
);
}
);
width = 1380;
}
);
note = uni018F;
rightKerningGroup = D;
unicode = 018F;
},
{
glyphname = uni0190;
lastChange = "2017-05-19 14:51:26 +0000";
layers = (
{
layerId = "3E4CAA31-52BF-436B-A4FF-501363857ACF";
paths = (
{
closed = 1;
nodes = (
"527 865 OFFCURVE",
"460 925 OFFCURVE",
"480 1049 CURVE SMOOTH",
"501 1184 OFFCURVE",
"630 1236 OFFCURVE",
"753 1233 CURVE SMOOTH",
"864 1230 OFFCURVE",
"938 1178 OFFCURVE",
"935 1063 CURVE",
"1225 1063 LINE",
"1226 1194 OFFCURVE",
"1180 1295 OFFCURVE",
"1089 1366 CURVE SMOOTH",
"906 1507 OFFCURVE",
"674 1493 OFFCURVE",
"502 1436 CURVE SMOOTH",
"330 1379 OFFCURVE",
"203 1255 OFFCURVE",
"192 1052 CURVE SMOOTH",
"185 924 OFFCURVE",
"248 820 OFFCURVE",
"355 753 CURVE",
"188 692 OFFCURVE",
"66 587 OFFCURVE",
"54 400 CURVE SMOOTH",
"41 199 OFFCURVE",
"144 80 OFFCURVE",
"300 24 CURVE SMOOTH",
"456 -32 OFFCURVE",
"641 -38 OFFCURVE",
"811 22 CURVE SMOOTH",
"981 82 OFFCURVE",
"1107 208 OFFCURVE",
"1119 405 CURVE",
"825 404 LINE",
"804 275 OFFCURVE",
"683 219 OFFCURVE",
"562 220 CURVE SMOOTH",
"443 221 OFFCURVE",
"335 268 OFFCURVE",
"351 404 CURVE SMOOTH",
"371 565 OFFCURVE",
"490 626 OFFCURVE",
"641 626 CURVE SMOOTH",
"797 625 LINE",
"838 860 LINE",
"648 861 LINE SMOOTH"
);
}
);
width = 1225;
}
);
note = uni0190;
unicode = 0190;
},
{
glyphname = uni0191;
lastChange = "2017-05-19 14:51:26 +0000";
layers = (
{
layerId = "3E4CAA31-52BF-436B-A4FF-501363857ACF";
paths = (
{
closed = 1;
nodes = (
"370 1456 LINE",
"115 -29 LINE SMOOTH",
"96 -138 OFFCURVE",
"43 -192 OFFCURVE",
"-44 -191 CURVE SMOOTH",
"-72 -191 OFFCURVE",
"-101 -186 OFFCURVE",
"-131 -176 CURVE",
"-171 -421 LINE",
"-118 -432 OFFCURVE",
"-68 -439 OFFCURVE",
"-21 -440 CURVE SMOOTH",
"230 -441 OFFCURVE",
"377 -274 OFFCURVE",
"408 -35 CURVE",
"514 595 LINE",
"1072 595 LINE",
"1115 837 LINE",
"555 837 LINE",
"621 1213 LINE",
"1249 1213 LINE",
"1292 1456 LINE"
);
}
);
width = 1185;
}
);
note = uni0191;
unicode = 0191;
},
{
glyphname = florin;
lastChange = "2017-05-19 14:51:26 +0000";
layers = (
{
layerId = "3E4CAA31-52BF-436B-A4FF-501363857ACF";
paths = (
{
closed = 1;
nodes = (
"550 1176 LINE SMOOTH",
"567 1275 OFFCURVE",
"625 1325 OFFCURVE",
"723 1325 CURVE SMOOTH",
"750 1325 OFFCURVE",
"782 1321 OFFCURVE",
"818 1313 CURVE",
"862 1536 LINE",
"797 1550 OFFCURVE",
"742 1558 OFFCURVE",
"697 1559 CURVE SMOOTH",
"452 1562 OFFCURVE",
"293 1417 OFFCURVE",
"265 1176 CURVE SMOOTH",
"254 1082 LINE",
"98 1082 LINE",
"65 871 LINE",
"221 871 LINE",
"79 -50 LINE SMOOTH",
"72 -93 OFFCURVE",
"59 -130 OFFCURVE",
"38 -161 CURVE SMOOTH",
"-3 -223 OFFCURVE",
"-80 -212 OFFCURVE",
"-153 -192 CURVE",
"-188 -421 LINE",
"-133 -432 OFFCURVE",
"-83 -439 OFFCURVE",
"-38 -440 CURVE SMOOTH",
"205 -441 OFFCURVE",
"338 -279 OFFCURVE",
"363 -50 CURVE",
"503 871 LINE",
"705 871 LINE",
"738 1082 LINE",
"536 1082 LINE"
);
}
);
width = 717;
}
);
note = florin;
unicode = 0192;
},
{
glyphname = uni0193;
lastChange = "2017-05-19 14:51:26 +0000";
layers = (
{
layerId = "3E4CAA31-52BF-436B-A4FF-501363857ACF";
paths = (
{
closed = 1;
nodes = (
"1367 1290 OFFCURVE",
"1458 1335 OFFCURVE",
"1570 1332 CURVE SMOOTH",
"1593 1331 OFFCURVE",
"1620 1327 OFFCURVE",
"1650 1320 CURVE",
"1675 1560 LINE",
"1618 1572 OFFCURVE",
"1568 1578 OFFCURVE",
"1525 1578 CURVE SMOOTH",
"1370 1579 OFFCURVE",
"1249 1512 OFFCURVE",
"1163 1377 CURVE",
"998 1509 OFFCURVE",
"658 1513 OFFCURVE",
"463 1382 CURVE SMOOTH",
"268 1250 OFFCURVE",
"153 1022 OFFCURVE",
"118 771 CURVE SMOOTH",
"106 684 LINE SMOOTH",
"91 564 OFFCURVE",
"99 451 OFFCURVE",
"130 345 CURVE SMOOTH",
"191 132 OFFCURVE",
"350 -16 OFFCURVE",
"615 -20 CURVE SMOOTH",
"808 -23 OFFCURVE",
"1052 24 OFFCURVE",
"1181 183 CURVE",
"1273 765 LINE",
"716 765 LINE",
"677 545 LINE",
"942 545 LINE",
"893 294 LINE",
"824 245 OFFCURVE",
"740 222 OFFCURVE",
"641 223 CURVE SMOOTH",
"473 227 OFFCURVE",
"410 340 OFFCURVE",
"399 481 CURVE SMOOTH",
"386 648 OFFCURVE",
"420 857 OFFCURVE",
"481 1001 CURVE SMOOTH",
"541 1144 OFFCURVE",
"645 1241 OFFCURVE",
"810 1236 CURVE SMOOTH",
"965 1229 OFFCURVE",
"1023 1136 OFFCURVE",
"1035 992 CURVE",
"1313 993 LINE",
"1343 1174 LINE"
);
}
);
width = 1439;
}
);
leftKerningGroup = C;
note = uni0193;
unicode = 0193;
},
{
glyphname = uni0194;
lastChange = "2017-05-19 14:51:26 +0000";
layers = (
{
layerId = "3E4CAA31-52BF-436B-A4FF-501363857ACF";
paths = (
{
closed = 1;
nodes = (
"876 -70 OFFCURVE",
"863 14 OFFCURVE",
"832 101 CURVE SMOOTH",
"801 187 OFFCURVE",
"777 269 OFFCURVE",
"760 348 CURVE",
"1456 1456 LINE",
"1104 1456 LINE",
"673 704 LINE",
"504 1456 LINE",
"181 1456 LINE",
"479 360 LINE",
"449 314 OFFCURVE",
"412 261 OFFCURVE",
"368 201 CURVE SMOOTH",
"279 81 OFFCURVE",
"196 -52 OFFCURVE",
"189 -167 CURVE SMOOTH",
"178 -355 OFFCURVE",
"342 -436 OFFCURVE",
"509 -439 CURVE SMOOTH",
"689 -442 OFFCURVE",
"859 -348 OFFCURVE",
"871 -152 CURVE SMOOTH"
);
},
{
closed = 1;
nodes = (
"500 -122 OFFCURVE",
"511 -89 OFFCURVE",
"529 -56 CURVE SMOOTH",
"581 38 LINE",
"600 -54 LINE SMOOTH",
"607 -86 OFFCURVE",
"607 -117 OFFCURVE",
"602 -146 CURVE SMOOTH",
"595 -183 OFFCURVE",
"574 -227 OFFCURVE",
"530 -226 CURVE SMOOTH",
"491 -225 OFFCURVE",
"492 -185 OFFCURVE",
"496 -157 CURVE SMOOTH"
);
}
);
width = 1325;
}
);
note = uni0194;
unicode = 0194;
},
{
glyphname = uni0195;
lastChange = "2017-05-19 14:51:26 +0000";
layers = (
{
layerId = "3E4CAA31-52BF-436B-A4FF-501363857ACF";
paths = (
{
closed = 1;
nodes = (
"615 1103 OFFCURVE",
"517 1057 OFFCURVE",
"433 963 CURVE",
"545 1536 LINE",
"262 1536 LINE",
"-4 0 LINE",
"278 0 LINE",
"415 772 LINE",
"471 839 OFFCURVE",
"537 871 OFFCURVE",
"612 868 CURVE SMOOTH",
"736 864 OFFCURVE",
"748 780 OFFCURVE",
"735 673 CURVE SMOOTH",
"700 428 LINE SMOOTH",
"669 155 OFFCURVE",
"790 -14 OFFCURVE",
"1071 -21 CURVE SMOOTH",
"1371 -26 OFFCURVE",
"1524 140 OFFCURVE",
"1561 428 CURVE",
"1671 1082 LINE",
"1389 1082 LINE",
"1278 425 LINE SMOOTH",
"1259 314 OFFCURVE",
"1209 209 OFFCURVE",
"1089 214 CURVE SMOOTH",
"976 219 OFFCURVE",
"974 337 OFFCURVE",
"983 425 CURVE",
"1019 672 LINE SMOOTH",
"1046 892 OFFCURVE",
"979 1098 OFFCURVE",
"726 1102 CURVE SMOOTH"
);
}
);
width = 1692;
}
);
note = uni0195;
unicode = 0195;
},
{
glyphname = uni0198;
lastChange = "2017-05-19 14:51:26 +0000";
layers = (
{
layerId = "3E4CAA31-52BF-436B-A4FF-501363857ACF";
paths = (
{
closed = 1;
nodes = (
"795 800 LINE",
"1115 1176 LINE SMOOTH",
"1142 1208 OFFCURVE",
"1175 1224 OFFCURVE",
"1212 1224 CURVE SMOOTH",
"1234 1224 OFFCURVE",
"1260 1215 OFFCURVE",
"1289 1197 CURVE",
"1415 1412 LINE",
"1326 1456 OFFCURVE",
"1248 1479 OFFCURVE",
"1180 1480 CURVE SMOOTH",
"1001 1481 OFFCURVE",
"900 1333 OFFCURVE",
"803 1213 CURVE SMOOTH",
"672 1062 OFFCURVE",
"556 925 OFFCURVE",
"454 803 CURVE",
"568 1456 LINE",
"274 1456 LINE",
"21 0 LINE",
"315 0 LINE",
"384 397 LINE",
"578 580 LINE",
"837 0 LINE",
"1170 0 LINE"
);
}
);
width = 1262;
}
);
note = uni0198;
rightKerningGroup = K;
unicode = 0198;
},
{
glyphname = uni0199;
lastChange = "2017-05-19 14:51:26 +0000";
layers = (
{
layerId = "3E4CAA31-52BF-436B-A4FF-501363857ACF";
paths = (
{
closed = 1;
nodes = (
"701 1357 OFFCURVE",
"724 1354 OFFCURVE",
"758 1348 CURVE",
"776 1543 LINE",
"723 1554 OFFCURVE",
"671 1559 OFFCURVE",
"619 1560 CURVE SMOOTH",
"387 1563 OFFCURVE",
"237 1445 OFFCURVE",
"209 1214 CURVE",
"3 0 LINE",
"285 0 LINE",
"340 318 LINE",
"470 431 LINE",
"662 0 LINE",
"972 0 LINE",
"672 618 LINE",
"1143 1082 LINE",
"782 1082 LINE",
"406 704 LINE",
"494 1214 LINE SMOOTH",
"514 1313 OFFCURVE",
"593 1361 OFFCURVE",
"690 1357 CURVE"
);
}
);
width = 1061;
}
);
note = uni0199;
unicode = 0199;
},
{
glyphname = uni019B;
lastChange = "2017-05-19 14:51:26 +0000";
layers = (
{
layerId = "3E4CAA31-52BF-436B-A4FF-501363857ACF";
paths = (
{
closed = 1;
nodes = (
"968 220 LINE",
"917 225 OFFCURVE",
"904 281 OFFCURVE",
"893 324 CURVE",
"717 1142 LINE",
"833 1179 LINE",
"869 1385 LINE",
"672 1320 LINE",
"661 1372 LINE",
"646 1431 OFFCURVE",
"617 1474 OFFCURVE",
"573 1501 CURVE SMOOTH",
"485 1556 OFFCURVE",
"364 1551 OFFCURVE",
"271 1526 CURVE",
"256 1307 LINE",
"287 1309 LINE SMOOTH",
"353 1313 OFFCURVE",
"394 1289 OFFCURVE",
"411 1236 CURVE",
"290 1197 LINE",
"251 991 LINE",
"464 1068 LINE",
"465 1053 LINE",
"-104 0 LINE",
"212 0 LINE",
"540 662 LINE",
"626 206 LINE",
"662 61 OFFCURVE",
"750 -13 OFFCURVE",
"889 -17 CURVE SMOOTH",
"924 -18 OFFCURVE",
"956 -17 OFFCURVE",
"985 -13 CURVE",
"1007 219 LINE"
);
}
);
width = 1090;
}
);
note = uni019B;
unicode = 019B;
},
{
glyphname = uni019C;
lastChange = "2017-05-19 14:51:26 +0000";
layers = (
{
layerId = "3E4CAA31-52BF-436B-A4FF-501363857ACF";
paths = (
{
closed = 1;
nodes = (
"1813 1456 LINE",
"1530 1456 LINE",
"1332 327 LINE",
"1272 248 OFFCURVE",
"1199 211 OFFCURVE",
"1112 216 CURVE SMOOTH",
"1000 221 OFFCURVE",
"999 338 OFFCURVE",
"1010 425 CURVE",
"1186 1456 LINE",
"903 1456 LINE",
"722 410 LINE",
"712 335 LINE",
"654 251 OFFCURVE",
"579 211 OFFCURVE",
"487 215 CURVE SMOOTH",
"375 220 OFFCURVE",
"374 338 OFFCURVE",
"385 425 CURVE",
"560 1456 LINE",
"278 1456 LINE",
"104 428 LINE",
"96 352 OFFCURVE",
"98 280 OFFCURVE",
"111 212 CURVE SMOOTH",
"135 76 OFFCURVE",
"217 -19 OFFCURVE",
"392 -23 CURVE SMOOTH",
"531 -26 OFFCURVE",
"648 34 OFFCURVE",
"743 157 CURVE",
"780 32 OFFCURVE",
"898 -19 OFFCURVE",
"1021 -20 CURVE SMOOTH",
"1142 -22 OFFCURVE",
"1243 24 OFFCURVE",
"1325 117 CURVE",
"1308 0 LINE",
"1561 0 LINE"
);
}
);
width = 1795;
}
);
note = uni019C;
rightKerningGroup = H;
unicode = 019C;
},
{
glyphname = uni019D;
lastChange = "2017-05-19 14:51:26 +0000";
layers = (
{
layerId = "3E4CAA31-52BF-436B-A4FF-501363857ACF";
paths = (
{
closed = 1;
nodes = (
"1520 1456 LINE",
"1228 1456 LINE",
"1059 483 LINE",
"653 1456 LINE",
"370 1456 LINE",
"115 -29 LINE SMOOTH",
"96 -138 OFFCURVE",
"43 -192 OFFCURVE",
"-44 -192 CURVE SMOOTH",
"-74 -191 OFFCURVE",
"-103 -185 OFFCURVE",
"-131 -176 CURVE",
"-171 -421 LINE",
"-118 -432 OFFCURVE",
"-68 -439 OFFCURVE",
"-21 -440 CURVE SMOOTH",
"231 -441 OFFCURVE",
"377 -273 OFFCURVE",
"409 -33 CURVE",
"579 971 LINE",
"984 0 LINE",
"1268 0 LINE"
);
}
);
width = 1502;
}
);
note = uni019D;
rightKerningGroup = H;
unicode = 019D;
},
{
glyphname = Ohorn;
lastChange = "2017-05-19 14:51:26 +0000";
layers = (
{
layerId = "3E4CAA31-52BF-436B-A4FF-501363857ACF";
paths = (
{
closed = 1;
nodes = (
"737 -23 OFFCURVE",
"861 14 OFFCURVE",
"965 89 CURVE SMOOTH",
"1140 216 OFFCURVE",
"1251 423 OFFCURVE",
"1292 647 CURVE SMOOTH",
"1333 871 OFFCURVE",
"1320 1017 OFFCURVE",
"1300 1145 CURVE",
"1499 1206 OFFCURVE",
"1568 1371 OFFCURVE",
"1584 1568 CURVE",
"1395 1567 LINE",
"1379 1446 OFFCURVE",
"1349 1323 OFFCURVE",
"1218 1286 CURVE",
"1169 1350 OFFCURVE",
"1109 1397 OFFCURVE",
"1037 1428 CURVE SMOOTH",
"893 1489 OFFCURVE",
"656 1514 OFFCURVE",
"458 1379 CURVE SMOOTH",
"260 1243 OFFCURVE",
"138 1008 OFFCURVE",
"103 761 CURVE SMOOTH",
"95 695 LINE SMOOTH",
"81 578 OFFCURVE",
"89 466 OFFCURVE",
"118 358 CURVE SMOOTH",
"177 141 OFFCURVE",
"330 -15 OFFCURVE",
"594 -20 CURVE SMOOTH"
);
},
{
closed = 1;
nodes = (
"1024 808 OFFCURVE",
"1005 630 OFFCURVE",
"946 481 CURVE SMOOTH",
"886 332 OFFCURVE",
"780 219 OFFCURVE",
"608 226 CURVE SMOOTH",
"448 233 OFFCURVE",
"393 354 OFFCURVE",
"386 498 CURVE SMOOTH",
"378 676 OFFCURVE",
"403 837 OFFCURVE",
"461 980 CURVE SMOOTH",
"521 1127 OFFCURVE",
"625 1236 OFFCURVE",
"797 1229 CURVE SMOOTH",
"957 1222 OFFCURVE",
"1012 1103 OFFCURVE",
"1019 960 CURVE SMOOTH"
);
}
);
width = 1393;
}
);
leftKerningGroup = C;
note = Ohorn;
unicode = 01A0;
},
{
glyphname = ohorn;
lastChange = "2017-05-19 14:51:26 +0000";
layers = (
{
layerId = "3E4CAA31-52BF-436B-A4FF-501363857ACF";
paths = (
{
closed = 1;
nodes = (
"800 -28 OFFCURVE",
"1006 227 OFFCURVE",
"1046 531 CURVE SMOOTH",
"1049 553 LINE SMOOTH",
"1060 645 OFFCURVE",
"1057 738 OFFCURVE",
"1041 831 CURVE",
"1196 896 OFFCURVE",
"1252 1021 OFFCURVE",
"1264 1184 CURVE",
"1095 1183 LINE",
"1080 1086 OFFCURVE",
"1060 1000 OFFCURVE",
"973 945 CURVE",
"889 1053 OFFCURVE",
"759 1100 OFFCURVE",
"624 1103 CURVE SMOOTH",
"299 1108 OFFCURVE",
"89 854 OFFCURVE",
"53 549 CURVE SMOOTH",
"50 528 LINE",
"22 240 OFFCURVE",
"163 -13 OFFCURVE",
"475 -20 CURVE SMOOTH"
);
},
{
closed = 1;
nodes = (
"348 643 OFFCURVE",
"386 754 OFFCURVE",
"462 822 CURVE SMOOTH",
"537 890 OFFCURVE",
"679 885 OFFCURVE",
"727 815 CURVE SMOOTH",
"774 745 OFFCURVE",
"775 652 OFFCURVE",
"763 532 CURVE SMOOTH",
"754 457 OFFCURVE",
"728 385 OFFCURVE",
"686 314 CURVE SMOOTH",
"602 172 OFFCURVE",
"419 197 OFFCURVE",
"372 266 CURVE SMOOTH",
"325 334 OFFCURVE",
"323 424 OFFCURVE",
"335 544 CURVE SMOOTH"
);
}
);
width = 1155;
}
);
leftKerningGroup = c;
note = ohorn;
unicode = 01A1;
},
{
glyphname = uni01A2;
lastChange = "2017-05-19 14:51:26 +0000";
layers = (
{
layerId = "3E4CAA31-52BF-436B-A4FF-501363857ACF";
paths = (
{
closed = 1;
nodes = (
"797 -23 OFFCURVE",
"1040 25 OFFCURVE",
"1165 185 CURVE",
"1306 1041 LINE",
"1460 1106 LINE",
"1195 -417 LINE",
"1478 -417 LINE",
"1803 1456 LINE",
"1572 1456 LINE",
"1280 1330 LINE",
"1221 1387 OFFCURVE",
"1150 1425 OFFCURVE",
"1067 1446 CURVE SMOOTH",
"900 1486 OFFCURVE",
"668 1512 OFFCURVE",
"468 1384 CURVE SMOOTH",
"267 1255 OFFCURVE",
"145 1028 OFFCURVE",
"110 773 CURVE SMOOTH",
"98 683 LINE SMOOTH",
"83 563 OFFCURVE",
"91 450 OFFCURVE",
"121 344 CURVE SMOOTH",
"181 132 OFFCURVE",
"338 -15 OFFCURVE",
"605 -19 CURVE SMOOTH"
);
},
{
closed = 1;
nodes = (
"905 1235 OFFCURVE",
"998 1225 OFFCURVE",
"1049 1161 CURVE",
"891 298 LINE",
"748 195 OFFCURVE",
"525 201 OFFCURVE",
"453 301 CURVE SMOOTH",
"381 400 OFFCURVE",
"385 527 OFFCURVE",
"389 607 CURVE SMOOTH",
"392 686 OFFCURVE",
"411 861 OFFCURVE",
"476 1004 CURVE SMOOTH",
"540 1147 OFFCURVE",
"654 1242 OFFCURVE",
"829 1238 CURVE SMOOTH"
);
}
);
width = 1782;
}
);
leftKerningGroup = C;
note = uni01A2;
rightKerningGroup = H;
unicode = 01A2;
},
{
glyphname = uni01A3;
lastChange = "2017-05-19 14:51:26 +0000";
layers = (
{
layerId = "3E4CAA31-52BF-436B-A4FF-501363857ACF";
paths = (
{
closed = 1;
nodes = (
"1156 -417 LINE",
"1416 1082 LINE",
"1206 1082 LINE",
"926 962 LINE",
"849 1054 OFFCURVE",
"732 1100 OFFCURVE",
"613 1103 CURVE SMOOTH",
"294 1110 OFFCURVE",
"97 865 OFFCURVE",
"56 568 CURVE SMOOTH",
"50 524 LINE",
"22 240 OFFCURVE",
"151 -13 OFFCURVE",
"463 -20 CURVE SMOOTH",
"638 -24 OFFCURVE",
"796 47 OFFCURVE",
"893 194 CURVE",
"969 698 LINE",
"1075 742 LINE",
"873 -417 LINE"
);
},
{
closed = 1;
nodes = (
"360 218 OFFCURVE",
"328 299 OFFCURVE",
"328 395 CURVE SMOOTH",
"328 444 OFFCURVE",
"331 497 OFFCURVE",
"337 553 CURVE SMOOTH",
"350 650 OFFCURVE",
"382 760 OFFCURVE",
"453 825 CURVE SMOOTH",
"524 890 OFFCURVE",
"656 886 OFFCURVE",
"711 817 CURVE",
"607 259 LINE",
"560 228 OFFCURVE",
"513 213 OFFCURVE",
"468 214 CURVE SMOOTH"
);
}
);
width = 1442;
}
);
note = uni01A3;
unicode = 01A3;
},
{
glyphname = uni01A4;
lastChange = "2017-05-19 14:51:26 +0000";
layers = (
{
layerId = "3E4CAA31-52BF-436B-A4FF-501363857ACF";
paths = (
{
closed = 1;
nodes = (
"114 1041 OFFCURVE",
"116 993 OFFCURVE",
"123 942 CURVE",
"352 941 LINE",
"350 985 LINE",
"351 1027 LINE",
"364 1134 OFFCURVE",
"428 1206 OFFCURVE",
"536 1217 CURVE",
"317 0 LINE",
"610 0 LINE",
"700 514 LINE",
"977 513 LINE SMOOTH",
"1273 513 OFFCURVE",
"1544 664 OFFCURVE",
"1569 983 CURVE SMOOTH",
"1592 1275 OFFCURVE",
"1379 1451 OFFCURVE",
"1102 1455 CURVE SMOOTH",
"557 1457 LINE",
"557 1456 LINE",
"318 1459 OFFCURVE",
"137 1332 OFFCURVE",
"117 1084 CURVE SMOOTH"
);
},
{
closed = 1;
nodes = (
"1232 1205 OFFCURVE",
"1293 1110 OFFCURVE",
"1274 981 CURVE SMOOTH",
"1251 829 OFFCURVE",
"1131 755 OFFCURVE",
"984 754 CURVE SMOOTH",
"741 756 LINE",
"821 1213 LINE",
"1097 1212 LINE"
);
}
);
width = 1577;
}
);
note = uni01A4;
rightKerningGroup = P;
unicode = 01A4;
},
{
glyphname = uni01A5;
lastChange = "2017-05-19 14:51:26 +0000";
layers = (
{
layerId = "3E4CAA31-52BF-436B-A4FF-501363857ACF";
paths = (
{
closed = 1;
nodes = (
"662 -23 OFFCURVE",
"747 4 OFFCURVE",
"814 60 CURVE SMOOTH",
"949 172 OFFCURVE",
"1022 358 OFFCURVE",
"1042 534 CURVE SMOOTH",
"1045 556 LINE",
"1061 719 OFFCURVE",
"1036 900 OFFCURVE",
"933 1014 CURVE SMOOTH",
"829 1128 OFFCURVE",
"593 1143 OFFCURVE",
"444 987 CURVE",
"466 1073 LINE SMOOTH",
"493 1166 OFFCURVE",
"569 1214 OFFCURVE",
"665 1210 CURVE",
"733 1201 LINE",
"750 1396 LINE",
"697 1406 OFFCURVE",
"644 1411 OFFCURVE",
"592 1412 CURVE SMOOTH",
"367 1416 OFFCURVE",
"220 1309 OFFCURVE",
"181 1082 CURVE",
"181 1083 LINE",
"-70 -416 LINE",
"213 -416 LINE",
"312 97 LINE",
"374 21 OFFCURVE",
"457 -18 OFFCURVE",
"561 -21 CURVE SMOOTH"
);
},
{
closed = 1;
nodes = (
"676 866 OFFCURVE",
"712 847 OFFCURVE",
"733 811 CURVE SMOOTH",
"774 739 OFFCURVE",
"771 645 OFFCURVE",
"760 534 CURVE",
"754 500 LINE SMOOTH",
"715 305 OFFCURVE",
"630 209 OFFCURVE",
"499 212 CURVE SMOOTH",
"418 214 OFFCURVE",
"365 249 OFFCURVE",
"339 318 CURVE",
"420 764 LINE",
"475 837 OFFCURVE",
"542 872 OFFCURVE",
"623 868 CURVE SMOOTH"
);
}
);
width = 1118;
}
);
note = uni01A5;
unicode = 01A5;
},
{
glyphname = uni01A6;
lastChange = "2017-05-19 14:51:26 +0000";
layers = (
{
layerId = "3E4CAA31-52BF-436B-A4FF-501363857ACF";
paths = (
{
closed = 1;
nodes = (
"1124 686 OFFCURVE",
"1231 825 OFFCURVE",
"1245 1024 CURVE SMOOTH",
"1266 1316 OFFCURVE",
"1050 1450 OFFCURVE",
"782 1455 CURVE SMOOTH",
"567 1456 LINE",
"586 1560 LINE",
"292 1561 LINE",
"271 1455 LINE",
"269 1455 LINE",
"21 0 LINE",
"315 0 LINE",
"408 534 LINE",
"646 534 LINE",
"932 -352 LINE",
"1245 -355 LINE",
"1245 -336 LINE",
"925 607 LINE"
);
},
{
closed = 1;
nodes = (
"911 1207 OFFCURVE",
"969 1137 OFFCURVE",
"949 1002 CURVE SMOOTH",
"928 853 OFFCURVE",
"811 775 OFFCURVE",
"667 774 CURVE SMOOTH",
"450 776 LINE",
"526 1213 LINE",
"776 1212 LINE SMOOTH"
);
}
);
width = 1373;
}
);
note = uni01A6;
unicode = 01A6;
},
{
glyphname = uni01A7;
lastChange = "2017-05-19 14:51:26 +0000";
layers = (
{
layerId = "3E4CAA31-52BF-436B-A4FF-501363857ACF";
paths = (
{
closed = 1;
nodes = (
"334 427 OFFCURVE",
"358 469 OFFCURVE",
"398 500 CURVE SMOOTH",
"451 543 OFFCURVE",
"499 564 OFFCURVE",
"655 612 CURVE SMOOTH",
"733 635 OFFCURVE",
"812 665 OFFCURVE",
"893 702 CURVE SMOOTH",
"1054 774 OFFCURVE",
"1180 888 OFFCURVE",
"1191 1077 CURVE SMOOTH",
"1202 1257 OFFCURVE",
"1097 1374 OFFCURVE",
"948 1432 CURVE SMOOTH",
"799 1490 OFFCURVE",
"622 1496 OFFCURVE",
"454 1428 CURVE SMOOTH",
"285 1359 OFFCURVE",
"163 1223 OFFCURVE",
"152 1026 CURVE",
"444 1027 LINE",
"464 1168 OFFCURVE",
"572 1243 OFFCURVE",
"712 1240 CURVE SMOOTH",
"811 1237 OFFCURVE",
"918 1193 OFFCURVE",
"897 1076 CURVE SMOOTH",
"893 1052 OFFCURVE",
"885 1030 OFFCURVE",
"872 1011 CURVE SMOOTH",
"846 972 OFFCURVE",
"793 937 OFFCURVE",
"731 912 CURVE SMOOTH",
"700 899 OFFCURVE",
"644 881 OFFCURVE",
"563 857 CURVE SMOOTH",
"482 832 OFFCURVE",
"403 801 OFFCURVE",
"324 764 CURVE SMOOTH",
"166 688 OFFCURVE",
"44 569 OFFCURVE",
"32 377 CURVE SMOOTH",
"20 193 OFFCURVE",
"119 80 OFFCURVE",
"265 24 CURVE SMOOTH",
"411 -32 OFFCURVE",
"598 -41 OFFCURVE",
"784 30 CURVE SMOOTH",
"970 101 OFFCURVE",
"1108 244 OFFCURVE",
"1121 460 CURVE",
"828 459 LINE",
"804 287 OFFCURVE",
"673 212 OFFCURVE",
"506 217 CURVE SMOOTH",
"407 220 OFFCURVE",
"309 259 OFFCURVE",
"326 374 CURVE SMOOTH"
);
}
);
width = 1221;
}
);
note = uni01A7;
unicode = 01A7;
},
{
glyphname = uni01A8;
lastChange = "2017-05-19 14:51:26 +0000";
layers = (
{
layerId = "3E4CAA31-52BF-436B-A4FF-501363857ACF";
paths = (
{
closed = 1;
nodes = (
"315 397 OFFCURVE",
"432 410 OFFCURVE",
"553 438 CURVE SMOOTH",
"674 465 OFFCURVE",
"808 508 OFFCURVE",
"895 597 CURVE SMOOTH",
"982 685 OFFCURVE",
"1011 908 OFFCURVE",
"847 1017 CURVE SMOOTH",
"682 1126 OFFCURVE",
"504 1117 OFFCURVE",
"364 1069 CURVE SMOOTH",
"223 1020 OFFCURVE",
"118 916 OFFCURVE",
"110 752 CURVE",
"393 753 LINE",
"411 853 OFFCURVE",
"471 902 OFFCURVE",
"574 900 CURVE SMOOTH",
"607 899 OFFCURVE",
"637 890 OFFCURVE",
"663 872 CURVE SMOOTH",
"715 836 OFFCURVE",
"697 747 OFFCURVE",
"646 711 CURVE SMOOTH",
"620 692 OFFCURVE",
"553 671 OFFCURVE",
"444 648 CURVE SMOOTH",
"335 625 OFFCURVE",
"252 597 OFFCURVE",
"194 566 CURVE SMOOTH",
"77 502 OFFCURVE",
"27 426 OFFCURVE",
"23 303 CURVE SMOOTH",
"18 154 OFFCURVE",
"111 60 OFFCURVE",
"238 15 CURVE SMOOTH",
"365 -30 OFFCURVE",
"503 -36 OFFCURVE",
"651 18 CURVE SMOOTH",
"798 72 OFFCURVE",
"910 182 OFFCURVE",
"918 346 CURVE",
"648 344 LINE",
"623 236 OFFCURVE",
"539 180 OFFCURVE",
"428 183 CURVE SMOOTH",
"361 184 OFFCURVE",
"281 210 OFFCURVE",
"296 293 CURVE SMOOTH"
);
}
);
width = 1022;
}
);
note = uni01A8;
unicode = 01A8;
},
{
glyphname = uni01AA;
lastChange = "2017-05-19 14:51:26 +0000";
layers = (
{
layerId = "3E4CAA31-52BF-436B-A4FF-501363857ACF";
paths = (
{
closed = 1;
nodes = (
"848 -188 OFFCURVE",
"818 -190 OFFCURVE",
"795 -189 CURVE SMOOTH",
"703 -184 OFFCURVE",
"695 -107 OFFCURVE",
"704 -28 CURVE",
"907 1174 LINE",
"927 1382 OFFCURVE",
"778 1570 OFFCURVE",
"565 1575 CURVE SMOOTH",
"344 1580 OFFCURVE",
"148 1393 OFFCURVE",
"133 1166 CURVE SMOOTH",
"120 966 OFFCURVE",
"261 777 OFFCURVE",
"469 777 CURVE SMOOTH",
"501 777 OFFCURVE",
"535 782 OFFCURVE",
"571 792 CURVE",
"424 -27 LINE",
"401 -243 OFFCURVE",
"498 -422 OFFCURVE",
"730 -427 CURVE SMOOTH",
"773 -428 OFFCURVE",
"817 -424 OFFCURVE",
"862 -413 CURVE",
"883 -181 LINE"
);
},
{
closed = 1;
nodes = (
"407 1022 OFFCURVE",
"369 1088 OFFCURVE",
"380 1167 CURVE SMOOTH",
"391 1256 OFFCURVE",
"458 1331 OFFCURVE",
"551 1330 CURVE SMOOTH",
"635 1329 OFFCURVE",
"669 1259 OFFCURVE",
"660 1182 CURVE SMOOTH",
"648 1095 OFFCURVE",
"584 1021 OFFCURVE",
"491 1022 CURVE SMOOTH"
);
}
);
width = 1042;
}
);
note = uni01AA;
unicode = 01AA;
},
{
glyphname = uni01AB;
lastChange = "2017-05-19 14:51:26 +0000";
layers = (
{
layerId = "3E4CAA31-52BF-436B-A4FF-501363857ACF";
paths = (
{
closed = 1;
nodes = (
"404 224 OFFCURVE",
"392 261 OFFCURVE",
"400 328 CURVE",
"493 871 LINE",
"671 871 LINE",
"708 1082 LINE",
"529 1082 LINE",
"576 1349 LINE",
"293 1349 LINE",
"246 1082 LINE",
"93 1082 LINE",
"56 871 LINE",
"210 871 LINE",
"117 300 LINE",
"101 133 OFFCURVE",
"167 0 OFFCURVE",
"344 -17 CURVE",
"336 -57 LINE",
"311 -156 OFFCURVE",
"231 -205 OFFCURVE",
"132 -201 CURVE",
"120 -201 OFFCURVE",
"97 -198 OFFCURVE",
"63 -192 CURVE",
"45 -387 LINE",
"93 -397 OFFCURVE",
"137 -403 OFFCURVE",
"177 -404 CURVE SMOOTH",
"390 -405 OFFCURVE",
"501 -258 OFFCURVE",
"526 -58 CURVE SMOOTH",
"561 227 LINE",
"526 222 OFFCURVE",
"497 220 OFFCURVE",
"476 221 CURVE SMOOTH"
);
}
);
width = 671;
}
);
note = uni01AB;
unicode = 01AB;
},
{
glyphname = uni01AC;
lastChange = "2017-05-19 14:51:26 +0000";
layers = (
{
layerId = "3E4CAA31-52BF-436B-A4FF-501363857ACF";
paths = (
{
closed = 1;
nodes = (
"106 1040 OFFCURVE",
"108 993 OFFCURVE",
"115 942 CURVE",
"343 941 LINE",
"341 985 LINE SMOOTH",
"336 1108 OFFCURVE",
"410 1212 OFFCURVE",
"541 1215 CURVE SMOOTH",
"735 1213 LINE",
"525 0 LINE",
"819 0 LINE",
"1029 1213 LINE",
"1460 1213 LINE",
"1503 1456 LINE",
"548 1458 LINE SMOOTH",
"311 1458 OFFCURVE",
"128 1330 OFFCURVE",
"109 1083 CURVE SMOOTH"
);
}
);
width = 1394;
}
);
note = uni01AC;
unicode = 01AC;
},
{
glyphname = uni01AD;
lastChange = "2017-05-19 14:51:26 +0000";
layers = (
{
layerId = "3E4CAA31-52BF-436B-A4FF-501363857ACF";
paths = (
{
closed = 1;
nodes = (
"773 1375 OFFCURVE",
"796 1372 OFFCURVE",
"821 1366 CURVE",
"839 1561 LINE",
"786 1571 OFFCURVE",
"733 1576 OFFCURVE",
"681 1577 CURVE SMOOTH",
"452 1580 OFFCURVE",
"297 1468 OFFCURVE",
"270 1233 CURVE SMOOTH",
"250 1082 LINE",
"96 1082 LINE",
"60 871 LINE",
"213 871 LINE",
"121 308 LINE",
"113 215 OFFCURVE",
"130 138 OFFCURVE",
"173 77 CURVE SMOOTH",
"258 -47 OFFCURVE",
"446 -29 OFFCURVE",
"545 6 CURVE",
"564 227 LINE",
"529 222 OFFCURVE",
"500 220 OFFCURVE",
"479 221 CURVE SMOOTH",
"404 224 OFFCURVE",
"396 269 OFFCURVE",
"404 336 CURVE",
"495 871 LINE",
"675 871 LINE",
"712 1082 LINE",
"532 1082 LINE",
"557 1233 LINE",
"577 1332 OFFCURVE",
"656 1378 OFFCURVE",
"753 1375 CURVE SMOOTH"
);
}
);
width = 724;
}
);
note = uni01AD;
unicode = 01AD;
},
{
glyphname = uni01AE;
lastChange = "2017-05-19 14:51:26 +0000";
layers = (
{
layerId = "3E4CAA31-52BF-436B-A4FF-501363857ACF";
paths = (
{
closed = 1;
nodes = (
"359 -35 LINE",
"336 -256 OFFCURVE",
"445 -431 OFFCURVE",
"678 -436 CURVE SMOOTH",
"722 -437 OFFCURVE",
"765 -432 OFFCURVE",
"808 -422 CURVE",
"816 -177 LINE",
"776 -186 OFFCURVE",
"743 -189 OFFCURVE",
"717 -188 CURVE SMOOTH",
"636 -183 OFFCURVE",
"642 -99 OFFCURVE",
"650 -36 CURVE",
"864 1213 LINE",
"1295 1213 LINE",
"1338 1456 LINE",
"187 1456 LINE",
"144 1213 LINE",
"571 1213 LINE"
);
}
);
width = 1229;
}
);
leftKerningGroup = T;
note = uni01AE;
rightKerningGroup = T;
unicode = 01AE;
},
{
glyphname = Uhorn;
lastChange = "2017-05-19 14:51:26 +0000";
layers = (
{
layerId = "3E4CAA31-52BF-436B-A4FF-501363857ACF";
paths = (
{
closed = 1;
nodes = (
"1580 1084 OFFCURVE",
"1706 1258 OFFCURVE",
"1727 1538 CURVE",
"1542 1537 LINE",
"1522 1376 OFFCURVE",
"1480 1247 OFFCURVE",
"1300 1226 CURVE",
"1346 1456 LINE",
"1052 1456 LINE",
"887 490 LINE SMOOTH",
"859 327 OFFCURVE",
"757 216 OFFCURVE",
"584 221 CURVE SMOOTH",
"419 226 OFFCURVE",
"372 344 OFFCURVE",
"391 495 CURVE",
"554 1456 LINE",
"260 1456 LINE",
"97 496 LINE",
"61 184 OFFCURVE",
"263 -15 OFFCURVE",
"568 -20 CURVE SMOOTH",
"896 -27 OFFCURVE",
"1137 172 OFFCURVE",
"1182 496 CURVE",
"1287 1072 LINE"
);
}
);
width = 1415;
}
);
note = Uhorn;
unicode = 01AF;
},
{
glyphname = uhorn;
lastChange = "2017-05-19 14:51:26 +0000";
layers = (
{
layerId = "3E4CAA31-52BF-436B-A4FF-501363857ACF";
paths = (
{
closed = 1;
nodes = (
"1053 804 LINE",
"1278 831 OFFCURVE",
"1373 958 OFFCURVE",
"1389 1178 CURVE",
"1222 1177 LINE",
"1206 1064 OFFCURVE",
"1181 975 OFFCURVE",
"1061 940 CURVE",
"1093 1082 LINE",
"810 1082 LINE",
"675 317 LINE",
"618 246 OFFCURVE",
"545 212 OFFCURVE",
"457 215 CURVE SMOOTH",
"360 219 OFFCURVE",
"337 293 OFFCURVE",
"348 378 CURVE",
"467 1082 LINE",
"185 1082 LINE",
"68 382 LINE",
"58 275 OFFCURVE",
"76 182 OFFCURVE",
"122 102 CURVE SMOOTH",
"213 -58 OFFCURVE",
"502 -70 OFFCURVE",
"665 113 CURVE",
"643 0 LINE",
"906 0 LINE"
);
}
);
width = 1212;
}
);
leftKerningGroup = u;
note = uhorn;
unicode = 01B0;
},
{
glyphname = uni01B1;
lastChange = "2017-05-19 14:51:26 +0000";
layers = (
{
layerId = "3E4CAA31-52BF-436B-A4FF-501363857ACF";
paths = (
{
closed = 1;
nodes = (
"902 615 OFFCURVE",
"895 524 OFFCURVE",
"848 411 CURVE SMOOTH",
"800 298 OFFCURVE",
"721 219 OFFCURVE",
"594 224 CURVE SMOOTH",
"470 229 OFFCURVE",
"428 326 OFFCURVE",
"424 439 CURVE SMOOTH",
"421 530 OFFCURVE",
"431 639 OFFCURVE",
"455 764 CURVE SMOOTH",
"502 1014 OFFCURVE",
"577 1147 OFFCURVE",
"720 1207 CURVE",
"758 1456 LINE",
"267 1456 LINE",
"224 1213 LINE",
"441 1218 LINE",
"256 1085 OFFCURVE",
"148 907 OFFCURVE",
"115 686 CURVE SMOOTH",
"102 594 LINE SMOOTH",
"90 488 OFFCURVE",
"100 389 OFFCURVE",
"133 296 CURVE SMOOTH",
"198 111 OFFCURVE",
"349 -17 OFFCURVE",
"577 -21 CURVE SMOOTH",
"912 -29 OFFCURVE",
"1177 231 OFFCURVE",
"1226 608 CURVE SMOOTH",
"1235 679 LINE SMOOTH",
"1259 876 OFFCURVE",
"1199 1045 OFFCURVE",
"1099 1212 CURVE",
"1312 1213 LINE",
"1356 1456 LINE",
"857 1456 LINE",
"818 1206 LINE",
"929 1153 OFFCURVE",
"944 1003 OFFCURVE",
"929 858 CURVE SMOOTH"
);
}
);
width = 1324;
}
);
note = uni01B1;
unicode = 01B1;
},
{
glyphname = uni01B2;
lastChange = "2017-05-19 14:51:26 +0000";
layers = (
{
layerId = "3E4CAA31-52BF-436B-A4FF-501363857ACF";
paths = (
{
closed = 1;
nodes = (
"896 -26 OFFCURVE",
"1138 173 OFFCURVE",
"1182 496 CURVE SMOOTH",
"1275 1073 LINE",
"1298 1292 OFFCURVE",
"1190 1469 OFFCURVE",
"959 1473 CURVE SMOOTH",
"916 1474 OFFCURVE",
"871 1470 OFFCURVE",
"826 1459 CURVE",
"804 1218 LINE",
"841 1223 OFFCURVE",
"870 1225 OFFCURVE",
"891 1224 CURVE SMOOTH",
"987 1221 OFFCURVE",
"995 1159 OFFCURVE",
"984 1074 CURVE SMOOTH",
"888 490 LINE SMOOTH",
"860 327 OFFCURVE",
"759 214 OFFCURVE",
"584 221 CURVE SMOOTH",
"419 226 OFFCURVE",
"373 344 OFFCURVE",
"392 495 CURVE",
"555 1456 LINE",
"261 1456 LINE",
"98 496 LINE",
"62 184 OFFCURVE",
"264 -16 OFFCURVE",
"571 -21 CURVE SMOOTH"
);
}
);
width = 1310;
}
);
note = uni01B2;
unicode = 01B2;
},
{
glyphname = uni01B3;
lastChange = "2017-05-19 14:51:26 +0000";
layers = (
{
layerId = "3E4CAA31-52BF-436B-A4FF-501363857ACF";
paths = (
{
closed = 1;
nodes = (
"1072 996 OFFCURVE",
"1094 1031 OFFCURVE",
"1119 1074 CURVE SMOOTH",
"1143 1117 OFFCURVE",
"1170 1153 OFFCURVE",
"1200 1183 CURVE SMOOTH",
"1260 1242 OFFCURVE",
"1325 1232 OFFCURVE",
"1381 1197 CURVE",
"1507 1412 LINE",
"1417 1456 OFFCURVE",
"1333 1479 OFFCURVE",
"1254 1480 CURVE SMOOTH",
"1105 1481 OFFCURVE",
"1004 1390 OFFCURVE",
"927 1267 CURVE SMOOTH",
"643 800 LINE",
"464 1456 LINE",
"154 1455 LINE",
"458 547 LINE",
"363 0 LINE",
"661 0 LINE",
"750 514 LINE",
"1053 967 LINE SMOOTH"
);
}
);
width = 1359;
}
);
note = uni01B3;
unicode = 01B3;
},
{
glyphname = uni01B4;
lastChange = "2017-05-19 14:51:26 +0000";
layers = (
{
layerId = "3E4CAA31-52BF-436B-A4FF-501363857ACF";
paths = (
{
closed = 1;
nodes = (
"989 941 OFFCURVE",
"1011 984 OFFCURVE",
"1038 1035 CURVE SMOOTH",
"1092 1136 OFFCURVE",
"1165 1117 OFFCURVE",
"1238 1078 CURVE",
"1315 1258 LINE",
"1154 1373 OFFCURVE",
"999 1367 OFFCURVE",
"912 1291 CURVE SMOOTH",
"824 1214 OFFCURVE",
"773 1090 OFFCURVE",
"726 982 CURVE SMOOTH",
"454 394 LINE",
"456 450 LINE",
"384 1082 LINE",
"92 1082 LINE",
"269 18 LINE",
"217 -81 LINE SMOOTH",
"174 -163 OFFCURVE",
"103 -203 OFFCURVE",
"6 -202 CURVE",
"-34 -200 LINE",
"-56 -419 LINE",
"3 -433 OFFCURVE",
"49 -440 OFFCURVE",
"80 -440 CURVE SMOOTH",
"267 -441 OFFCURVE",
"379 -323 OFFCURVE",
"451 -163 CURVE SMOOTH",
"973 906 LINE SMOOTH"
);
}
);
width = 1188;
}
);
note = uni01B4;
unicode = 01B4;
},
{
glyphname = uni01B5;
lastChange = "2017-05-19 14:51:26 +0000";
layers = (
{
layerId = "3E4CAA31-52BF-436B-A4FF-501363857ACF";
paths = (
{
closed = 1;
nodes = (
"544 836 LINE",
"176 835 LINE",
"142 652 LINE",
"395 650 LINE",
"-1 191 LINE",
"-34 0 LINE",
"1043 0 LINE",
"1085 242 LINE",
"378 244 LINE",
"729 651 LINE",
"1091 652 LINE",
"1125 835 LINE",
"877 837 LINE",
"1247 1269 LINE",
"1280 1456 LINE",
"219 1456 LINE",
"176 1213 LINE",
"871 1211 LINE"
);
}
);
width = 1205;
}
);
note = uni01B5;
unicode = 01B5;
},
{
glyphname = uni01B6;
lastChange = "2017-05-19 14:51:26 +0000";
layers = (
{
layerId = "3E4CAA31-52BF-436B-A4FF-501363857ACF";
paths = (
{
closed = 1;
nodes = (
"414 647 LINE",
"138 645 LINE",
"102 462 LINE",
"254 460 LINE",
"2 191 LINE",
"-31 0 LINE",
"842 0 LINE",
"883 233 LINE",
"373 235 LINE",
"589 460 LINE",
"857 462 LINE",
"893 645 LINE",
"748 647 LINE",
"983 897 LINE",
"1016 1082 LINE",
"172 1082 LINE",
"131 849 LINE",
"607 847 LINE"
);
}
);
width = 1017;
}
);
leftKerningGroup = z;
note = uni01B6;
rightKerningGroup = z;
unicode = 01B6;
},
{
glyphname = uni01B7;
lastChange = "2017-05-19 14:51:26 +0000";
layers = (
{
layerId = "3E4CAA31-52BF-436B-A4FF-501363857ACF";
paths = (
{
closed = 1;
nodes = (
"401 778 LINE",
"369 590 LINE",
"644 589 LINE",
"718 586 OFFCURVE",
"771 566 OFFCURVE",
"804 528 CURVE SMOOTH",
"868 451 OFFCURVE",
"872 328 OFFCURVE",
"857 205 CURVE SMOOTH",
"832 -8 OFFCURVE",
"729 -197 OFFCURVE",
"489 -190 CURVE SMOOTH",
"318 -186 OFFCURVE",
"263 -86 OFFCURVE",
"259 74 CURVE",
"-32 75 LINE",
"-21 -230 OFFCURVE",
"165 -423 OFFCURVE",
"474 -430 CURVE SMOOTH",
"858 -438 OFFCURVE",
"1112 -166 OFFCURVE",
"1149 206 CURVE SMOOTH",
"1158 298 OFFCURVE",
"1152 388 OFFCURVE",
"1130 475 CURVE SMOOTH",
"1085 650 OFFCURVE",
"970 783 OFFCURVE",
"765 811 CURVE",
"1241 1274 LINE",
"1273 1456 LINE",
"220 1456 LINE",
"177 1213 LINE",
"854 1211 LINE"
);
}
);
width = 1299;
}
);
note = uni01B7;
unicode = 01B7;
},
{
glyphname = uni01B8;
lastChange = "2017-05-19 14:51:26 +0000";
layers = (
{
layerId = "3E4CAA31-52BF-436B-A4FF-501363857ACF";
paths = (
{
closed = 1;
nodes = (
"1331 1213 LINE",
"1374 1456 LINE",
"325 1456 LINE",
"298 1302 LINE",
"607 819 LINE",
"260 775 OFFCURVE",
"44 538 OFFCURVE",
"8 191 CURVE SMOOTH",
"-28 -156 OFFCURVE",
"138 -425 OFFCURVE",
"506 -430 CURVE SMOOTH",
"818 -435 OFFCURVE",
"1093 -246 OFFCURVE",
"1134 74 CURVE",
"840 72 LINE",
"822 -13 OFFCURVE",
"787 -79 OFFCURVE",
"734 -126 CURVE SMOOTH",
"628 -219 OFFCURVE",
"424 -207 OFFCURVE",
"359 -131 CURVE SMOOTH",
"294 -55 OFFCURVE",
"288 68 OFFCURVE",
"303 191 CURVE SMOOTH",
"331 422 OFFCURVE",
"435 593 OFFCURVE",
"683 592 CURVE SMOOTH",
"928 590 LINE",
"957 750 LINE",
"643 1213 LINE"
);
}
);
width = 1299;
}
);
note = uni01B8;
unicode = 01B8;
},
{
glyphname = uni01B9;
lastChange = "2017-05-19 14:51:26 +0000";
layers = (
{
layerId = "3E4CAA31-52BF-436B-A4FF-501363857ACF";
paths = (
{
closed = 1;
nodes = (
"1098 1082 LINE",
"173 1082 LINE",
"141 905 LINE",
"416 496 LINE",
"287 474 OFFCURVE",
"182 424 OFFCURVE",
"100 346 CURVE SMOOTH",
"-65 190 OFFCURVE",
"-69 -82 OFFCURVE",
"16 -205 CURVE SMOOTH",
"100 -329 OFFCURVE",
"255 -392 OFFCURVE",
"424 -395 CURVE SMOOTH",
"689 -400 OFFCURVE",
"940 -254 OFFCURVE",
"960 30 CURVE",
"676 29 LINE",
"656 -91 OFFCURVE",
"556 -167 OFFCURVE",
"436 -164 CURVE SMOOTH",
"320 -163 OFFCURVE",
"233 -92 OFFCURVE",
"248 29 CURVE SMOOTH",
"269 216 OFFCURVE",
"395 311 OFFCURVE",
"579 311 CURVE SMOOTH",
"695 310 LINE",
"725 479 LINE",
"449 849 LINE",
"1057 849 LINE"
);
}
);
width = 1140;
}
);
note = uni01B9;
unicode = 01B9;
},
{
glyphname = uni01BA;
lastChange = "2017-05-19 14:51:26 +0000";
layers = (
{
layerId = "3E4CAA31-52BF-436B-A4FF-501363857ACF";
paths = (
{
closed = 1;
nodes = (
"595 268 OFFCURVE",
"491 257 OFFCURVE",
"361 231 CURVE SMOOTH",
"296 218 OFFCURVE",
"231 199 OFFCURVE",
"168 176 CURVE SMOOTH",
"41 128 OFFCURVE",
"-56 41 OFFCURVE",
"-61 -112 CURVE SMOOTH",
"-66 -261 OFFCURVE",
"26 -354 OFFCURVE",
"153 -400 CURVE SMOOTH",
"280 -446 OFFCURVE",
"418 -452 OFFCURVE",
"566 -398 CURVE SMOOTH",
"713 -344 OFFCURVE",
"826 -234 OFFCURVE",
"833 -70 CURVE",
"563 -72 LINE",
"550 -125 OFFCURVE",
"525 -166 OFFCURVE",
"486 -193 CURVE SMOOTH",
"408 -249 OFFCURVE",
"310 -240 OFFCURVE",
"248 -208 CURVE SMOOTH",
"186 -177 OFFCURVE",
"207 -83 OFFCURVE",
"262 -44 CURVE SMOOTH",
"289 -25 OFFCURVE",
"354 -4 OFFCURVE",
"457 19 CURVE SMOOTH",
"560 41 OFFCURVE",
"641 67 OFFCURVE",
"700 98 CURVE SMOOTH",
"818 159 OFFCURVE",
"876 238 OFFCURVE",
"880 359 CURVE SMOOTH",
"884 491 OFFCURVE",
"802 599 OFFCURVE",
"682 647 CURVE",
"1015 904 LINE",
"1046 1082 LINE",
"193 1082 LINE",
"151 849 LINE",
"556 847 LINE",
"289 655 LINE",
"257 473 LINE",
"500 471 LINE",
"561 468 OFFCURVE",
"627 446 OFFCURVE",
"612 371 CURVE SMOOTH"
);
}
);
width = 1038;
}
);
note = uni01BA;
unicode = 01BA;
},
{
glyphname = uni01BB;
lastChange = "2017-05-19 14:51:26 +0000";
layers = (
{
layerId = "3E4CAA31-52BF-436B-A4FF-501363857ACF";
paths = (
{
closed = 1;
nodes = (
"712 511 LINE",
"860 649 LINE",
"1121 649 LINE",
"1154 832 LINE",
"994 828 LINE",
"1055 912 OFFCURVE",
"1089 993 OFFCURVE",
"1096 1071 CURVE SMOOTH",
"1121 1332 OFFCURVE",
"935 1474 OFFCURVE",
"690 1478 CURVE SMOOTH",
"406 1483 OFFCURVE",
"163 1285 OFFCURVE",
"146 997 CURVE",
"426 999 LINE",
"445 1128 OFFCURVE",
"523 1251 OFFCURVE",
"670 1247 CURVE SMOOTH",
"786 1244 OFFCURVE",
"822 1148 OFFCURVE",
"806 1044 CURVE SMOOTH",
"793 961 OFFCURVE",
"738 894 OFFCURVE",
"686 831 CURVE",
"299 832 LINE",
"265 649 LINE",
"510 647 LINE",
"29 211 LINE",
"-8 0 LINE",
"961 0 LINE",
"1002 233 LINE",
"399 235 LINE"
);
}
);
width = 1189;
}
);
note = uni01BB;
unicode = 01BB;
},
{
glyphname = uni01BC;
lastChange = "2017-05-19 14:51:26 +0000";
layers = (
{
layerId = "3E4CAA31-52BF-436B-A4FF-501363857ACF";
paths = (
{
closed = 1;
nodes = (
"232 721 LINE",
"464 661 LINE",
"523 714 OFFCURVE",
"588 741 OFFCURVE",
"660 740 CURVE SMOOTH",
"805 737 OFFCURVE",
"845 620 OFFCURVE",
"830 493 CURVE SMOOTH",
"814 356 OFFCURVE",
"740 210 OFFCURVE",
"583 214 CURVE SMOOTH",
"467 217 OFFCURVE",
"420 302 OFFCURVE",
"415 407 CURVE",
"139 408 LINE",
"140 282 OFFCURVE",
"181 180 OFFCURVE",
"262 101 CURVE SMOOTH",
"423 -57 OFFCURVE",
"743 -73 OFFCURVE",
"943 116 CURVE SMOOTH",
"1142 304 OFFCURVE",
"1158 615 OFFCURVE",
"1040 810 CURVE SMOOTH",
"922 1005 OFFCURVE",
"652 974 OFFCURVE",
"533 899 CURVE",
"636 1216 LINE",
"1193 1216 LINE",
"1235 1456 LINE",
"206 1456 LINE",
"164 1216 LINE",
"372 1216 LINE"
);
}
);
width = 1211;
}
);
note = uni01BC;
unicode = 01BC;
},
{
glyphname = uni01BD;
lastChange = "2017-05-19 14:51:26 +0000";
layers = (
{
layerId = "3E4CAA31-52BF-436B-A4FF-501363857ACF";
paths = (
{
closed = 1;
nodes = (
"139 476 LINE",
"408 463 LINE",
"452 502 OFFCURVE",
"508 520 OFFCURVE",
"575 519 CURVE SMOOTH",
"663 518 OFFCURVE",
"721 468 OFFCURVE",
"709 376 CURVE SMOOTH",
"693 269 OFFCURVE",
"607 216 OFFCURVE",
"504 217 CURVE SMOOTH",
"420 218 OFFCURVE",
"349 245 OFFCURVE",
"345 337 CURVE",
"63 320 LINE",
"67 85 OFFCURVE",
"282 -15 OFFCURVE",
"493 -19 CURVE SMOOTH",
"738 -23 OFFCURVE",
"973 91 OFFCURVE",
"988 360 CURVE SMOOTH",
"1000 573 OFFCURVE",
"865 712 OFFCURVE",
"652 712 CURVE SMOOTH",
"572 712 OFFCURVE",
"503 695 OFFCURVE",
"445 662 CURVE",
"517 852 LINE",
"1004 852 LINE",
"1044 1082 LINE",
"133 1082 LINE",
"93 852 LINE",
"252 852 LINE"
);
}
);
width = 1088;
}
);
note = uni01BD;
unicode = 01BD;
},
{
glyphname = uni01BE;
lastChange = "2017-05-19 14:51:26 +0000";
layers = (
{
layerId = "3E4CAA31-52BF-436B-A4FF-501363857ACF";
paths = (
{
closed = 1;
nodes = (
"903 438 OFFCURVE",
"834 505 OFFCURVE",
"760 568 CURVE SMOOTH",
"686 631 OFFCURVE",
"625 697 OFFCURVE",
"646 812 CURVE",
"660 872 LINE",
"828 871 LINE",
"866 1082 LINE",
"687 1082 LINE",
"734 1349 LINE",
"451 1349 LINE",
"405 1082 LINE",
"251 1082 LINE",
"213 871 LINE",
"379 873 LINE",
"369 815 LINE",
"353 696 OFFCURVE",
"421 607 OFFCURVE",
"498 531 CURVE SMOOTH",
"575 454 OFFCURVE",
"643 385 OFFCURVE",
"626 308 CURVE SMOOTH",
"609 220 OFFCURVE",
"514 188 OFFCURVE",
"433 188 CURVE SMOOTH",
"326 189 OFFCURVE",
"272 242 OFFCURVE",
"271 346 CURVE",
"4 347 LINE",
"6 230 OFFCURVE",
"49 141 OFFCURVE",
"133 78 CURVE SMOOTH",
"301 -48 OFFCURVE",
"492 -33 OFFCURVE",
"637 12 CURVE SMOOTH",
"781 57 OFFCURVE",
"894 156 OFFCURVE",
"899 319 CURVE SMOOTH"
);
}
);
width = 1022;
}
);
note = uni01BE;
unicode = 01BE;
},
{
glyphname = uni01BF;
lastChange = "2017-05-19 14:51:26 +0000";
layers = (
{
layerId = "3E4CAA31-52BF-436B-A4FF-501363857ACF";
paths = (
{
closed = 1;
nodes = (
"1062 719 OFFCURVE",
"1036 900 OFFCURVE",
"933 1014 CURVE SMOOTH",
"829 1128 OFFCURVE",
"586 1148 OFFCURVE",
"431 975 CURVE",
"448 1083 LINE",
"189 1082 LINE",
"-70 -416 LINE",
"213 -416 LINE",
"263 -170 LINE",
"389 -139 OFFCURVE",
"508 -95 OFFCURVE",
"621 -39 CURVE SMOOTH",
"845 72 OFFCURVE",
"1008 250 OFFCURVE",
"1043 533 CURVE SMOOTH",
"1045 555 LINE SMOOTH"
);
},
{
closed = 1;
nodes = (
"676 866 OFFCURVE",
"712 847 OFFCURVE",
"733 811 CURVE SMOOTH",
"774 739 OFFCURVE",
"770 632 OFFCURVE",
"761 555 CURVE",
"757 529 LINE SMOOTH",
"717 276 OFFCURVE",
"522 127 OFFCURVE",
"286 54 CURVE",
"419 764 LINE",
"475 837 OFFCURVE",
"543 872 OFFCURVE",
"623 868 CURVE SMOOTH"
);
}
);
width = 1118;
}
);
note = uni01BF;
unicode = 01BF;
},
{
glyphname = uni01C0;
lastChange = "2017-05-19 14:51:26 +0000";
layers = (
{
layerId = "3E4CAA31-52BF-436B-A4FF-501363857ACF";
paths = (
{
closed = 1;
nodes = (
"43 0 LINE",
"215 0 LINE",
"468 1456 LINE",
"296 1456 LINE"
);
}
);
width = 467;
}
);
note = uni01C0;
unicode = 01C0;
},
{
glyphname = uni01C5;
lastChange = "2017-05-19 14:51:26 +0000";
layers = (
{
layerId = "3E4CAA31-52BF-436B-A4FF-501363857ACF";
paths = (
{
closed = 1;
nodes = (
"1508 1506 LINE",
"1750 1252 LINE",
"1942 1252 LINE",
"2245 1506 LINE",
"2244 1529 LINE",
"1996 1524 LINE",
"1844 1388 LINE",
"1741 1525 LINE",
"1508 1529 LINE"
);
},
{
closed = 1;
nodes = (
"876 5 OFFCURVE",
"1177 294 OFFCURVE",
"1229 718 CURVE SMOOTH",
"1234 760 LINE SMOOTH",
"1248 882 OFFCURVE",
"1236 995 OFFCURVE",
"1199 1100 CURVE SMOOTH",
"1124 1309 OFFCURVE",
"952 1450 OFFCURVE",
"692 1455 CURVE SMOOTH",
"274 1456 LINE",
"21 0 LINE",
"488 0 LINE SMOOTH"
);
},
{
closed = 1;
nodes = (
"854 1207 OFFCURVE",
"923 1103 OFFCURVE",
"939 967 CURVE SMOOTH",
"950 864 OFFCURVE",
"943 754 OFFCURVE",
"916 637 CURVE SMOOTH",
"863 401 OFFCURVE",
"724 240 OFFCURVE",
"479 241 CURVE SMOOTH",
"357 242 LINE",
"526 1213 LINE",
"686 1212 LINE SMOOTH"
);
},
{
closed = 1;
nodes = (
"1207 191 LINE",
"1174 0 LINE",
"2047 0 LINE",
"2088 233 LINE",
"1578 235 LINE",
"2187 897 LINE",
"2219 1082 LINE",
"1377 1082 LINE",
"1336 849 LINE",
"1812 847 LINE"
);
}
);
width = 2217;
}
);
note = uni01C5;
rightKerningGroup = z;
unicode = 01C5;
},
{
glyphname = uni01C6;
lastChange = "2017-05-19 14:51:26 +0000";
layers = (
{
layerId = "3E4CAA31-52BF-436B-A4FF-501363857ACF";
paths = (
{
closed = 1;
nodes = (
"1178 1560 LINE",
"894 1560 LINE",
"784 983 LINE",
"661 1136 OFFCURVE",
"420 1133 OFFCURVE",
"284 1022 CURVE SMOOTH",
"159 921 OFFCURVE",
"82 760 OFFCURVE",
"52 541 CURVE SMOOTH",
"50 525 LINE SMOOTH",
"34 366 OFFCURVE",
"63 185 OFFCURVE",
"167 70 CURVE SMOOTH",
"271 -46 OFFCURVE",
"510 -72 OFFCURVE",
"677 121 CURVE",
"666 0 LINE",
"907 0 LINE"
);
},
{
closed = 1;
nodes = (
"1323 1506 LINE",
"1566 1252 LINE",
"1758 1252 LINE",
"2060 1505 LINE",
"2060 1528 LINE",
"1812 1524 LINE",
"1659 1388 LINE",
"1557 1525 LINE",
"1323 1529 LINE"
);
},
{
closed = 1;
nodes = (
"1022 191 LINE",
"989 0 LINE",
"1862 0 LINE",
"1903 233 LINE",
"1394 235 LINE",
"2003 897 LINE",
"2035 1082 LINE",
"1193 1082 LINE",
"1152 849 LINE",
"1628 847 LINE"
);
},
{
closed = 1;
nodes = (
"331 442 OFFCURVE",
"333 492 OFFCURVE",
"338 547 CURVE",
"351 643 OFFCURVE",
"386 754 OFFCURVE",
"459 822 CURVE SMOOTH",
"531 890 OFFCURVE",
"705 902 OFFCURVE",
"756 759 CURVE",
"679 325 LINE",
"619 248 OFFCURVE",
"551 212 OFFCURVE",
"474 215 CURVE SMOOTH",
"369 219 OFFCURVE",
"335 301 OFFCURVE",
"332 397 CURVE SMOOTH"
);
}
);
width = 2033;
}
);
leftKerningGroup = c;
note = uni01C6;
rightKerningGroup = z;
unicode = 01C6;
},
{
glyphname = uni01E4;
lastChange = "2017-05-19 14:51:26 +0000";
layers = (
{
layerId = "3E4CAA31-52BF-436B-A4FF-501363857ACF";
paths = (
{
closed = 1;
nodes = (
"1358 326 LINE",
"1385 483 LINE",
"1224 483 LINE",
"1274 765 LINE",
"716 765 LINE",
"677 545 LINE",
"947 548 LINE",
"926 480 LINE",
"705 483 LINE",
"675 326 LINE",
"909 329 LINE",
"898 291 LINE",
"821 244 OFFCURVE",
"735 221 OFFCURVE",
"641 223 CURVE SMOOTH",
"473 227 OFFCURVE",
"410 340 OFFCURVE",
"399 481 CURVE SMOOTH",
"386 648 OFFCURVE",
"420 857 OFFCURVE",
"481 1001 CURVE SMOOTH",
"541 1144 OFFCURVE",
"645 1241 OFFCURVE",
"810 1236 CURVE SMOOTH",
"965 1229 OFFCURVE",
"1023 1136 OFFCURVE",
"1035 992 CURVE",
"1317 991 LINE",
"1306 1142 OFFCURVE",
"1258 1261 OFFCURVE",
"1174 1346 CURVE SMOOTH",
"1006 1516 OFFCURVE",
"657 1514 OFFCURVE",
"462 1382 CURVE SMOOTH",
"267 1250 OFFCURVE",
"153 1020 OFFCURVE",
"118 771 CURVE SMOOTH",
"106 684 LINE SMOOTH",
"91 564 OFFCURVE",
"99 451 OFFCURVE",
"130 345 CURVE SMOOTH",
"191 132 OFFCURVE",
"349 -16 OFFCURVE",
"616 -19 CURVE SMOOTH",
"808 -23 OFFCURVE",
"1053 24 OFFCURVE",
"1181 183 CURVE",
"1198 325 LINE"
);
}
);
width = 1404;
}
);
note = uni01E4;
unicode = 01E4;
},
{
glyphname = uni01E5;
lastChange = "2017-05-19 14:51:26 +0000";
layers = (
{
layerId = "3E4CAA31-52BF-436B-A4FF-501363857ACF";
paths = (
{
closed = 1;
nodes = (
"917 -54 LINE",
"1114 1082 LINE",
"855 1083 LINE",
"819 978 LINE",
"760 1059 OFFCURVE",
"673 1101 OFFCURVE",
"559 1102 CURVE SMOOTH",
"456 1105 OFFCURVE",
"370 1079 OFFCURVE",
"300 1024 CURVE SMOOTH",
"159 914 OFFCURVE",
"81 728 OFFCURVE",
"60 547 CURVE SMOOTH",
"58 525 LINE SMOOTH",
"42 364 OFFCURVE",
"75 183 OFFCURVE",
"182 68 CURVE SMOOTH",
"289 -47 OFFCURVE",
"521 -63 OFFCURVE",
"673 96 CURVE",
"635 -55 LINE",
"-72 -54 LINE",
"-96 -189 LINE",
"596 -185 LINE",
"460 -352 OFFCURVE",
"217 -336 OFFCURVE",
"86 -215 CURVE",
"-37 -382 LINE",
"68 -480 OFFCURVE",
"196 -530 OFFCURVE",
"349 -531 CURVE SMOOTH",
"600 -536 OFFCURVE",
"799 -421 OFFCURVE",
"895 -189 CURVE",
"990 -189 LINE",
"1013 -54 LINE"
);
},
{
closed = 1;
nodes = (
"354 623 OFFCURVE",
"381 697 OFFCURVE",
"425 768 CURVE SMOOTH",
"512 910 OFFCURVE",
"724 898 OFFCURVE",
"780 770 CURVE",
"696 314 LINE",
"638 245 OFFCURVE",
"570 212 OFFCURVE",
"491 215 CURVE SMOOTH",
"438 217 OFFCURVE",
"400 236 OFFCURVE",
"378 271 CURVE SMOOTH",
"333 341 OFFCURVE",
"332 446 OFFCURVE",
"340 526 CURVE",
"343 547 LINE SMOOTH"
);
}
);
width = 1135;
}
);
leftKerningGroup = c;
note = uni01E5;
unicode = 01E5;
},
{
glyphname = uni01EF;
lastChange = "2017-05-19 14:51:26 +0000";
layers = (
{
layerId = "3E4CAA31-52BF-436B-A4FF-501363857ACF";
paths = (
{
closed = 1;
nodes = (
"362 1506 LINE",
"605 1252 LINE",
"797 1252 LINE",
"1100 1505 LINE",
"1099 1528 LINE",
"851 1524 LINE",
"698 1388 LINE",
"596 1525 LINE",
"362 1529 LINE"
);
},
{
closed = 1;
nodes = (
"666 304 OFFCURVE",
"736 216 OFFCURVE",
"711 45 CURVE SMOOTH",
"691 -90 OFFCURVE",
"563 -165 OFFCURVE",
"434 -161 CURVE SMOOTH",
"319 -157 OFFCURVE",
"255 -82 OFFCURVE",
"258 30 CURVE",
"-23 30 LINE",
"-26 -103 OFFCURVE",
"16 -206 OFFCURVE",
"101 -280 CURVE SMOOTH",
"271 -428 OFFCURVE",
"515 -414 OFFCURVE",
"684 -350 CURVE SMOOTH",
"852 -287 OFFCURVE",
"975 -156 OFFCURVE",
"990 43 CURVE SMOOTH",
"1006 256 OFFCURVE",
"909 443 OFFCURVE",
"688 488 CURVE",
"1106 877 LINE",
"1140 1082 LINE",
"216 1082 LINE",
"175 849 LINE",
"766 847 LINE",
"384 506 LINE",
"350 310 LINE",
"501 309 LINE SMOOTH"
);
}
);
width = 1150;
}
);
note = uni01EF;
unicode = 01EF;
},
{
glyphname = uni01F6;
lastChange = "2017-05-19 14:51:26 +0000";
layers = (
{
layerId = "3E4CAA31-52BF-436B-A4FF-501363857ACF";
paths = (
{
closed = 1;
nodes = (
"465 866 LINE",
"568 1456 LINE",
"274 1456 LINE",
"21 0 LINE",
"315 0 LINE",
"424 624 LINE",
"989 624 LINE",
"970 496 LINE SMOOTH",
"935 191 OFFCURVE",
"1105 -17 OFFCURVE",
"1414 -22 CURVE SMOOTH",
"1739 -29 OFFCURVE",
"1955 180 OFFCURVE",
"1998 496 CURVE SMOOTH",
"2097 1082 LINE",
"1804 1082 LINE",
"1704 490 LINE SMOOTH",
"1679 333 OFFCURVE",
"1602 216 OFFCURVE",
"1431 221 CURVE SMOOTH",
"1266 226 OFFCURVE",
"1247 354 OFFCURVE",
"1264 494 CURVE",
"1426 1456 LINE",
"1133 1456 LINE",
"1031 866 LINE"
);
}
);
width = 2123;
}
);
note = uni01F6;
unicode = 01F6;
},
{
glyphname = uni01F7;
lastChange = "2017-05-19 14:51:26 +0000";
layers = (
{
layerId = "3E4CAA31-52BF-436B-A4FF-501363857ACF";
paths = (
{
closed = 1;
nodes = (
"448 -106 OFFCURVE",
"597 -42 OFFCURVE",
"740 44 CURVE SMOOTH",
"1026 215 OFFCURVE",
"1233 465 OFFCURVE",
"1276 796 CURVE SMOOTH",
"1282 841 LINE SMOOTH",
"1323 1186 OFFCURVE",
"1159 1472 OFFCURVE",
"788 1476 CURVE SMOOTH",
"702 1477 OFFCURVE",
"621 1459 OFFCURVE",
"544 1424 CURVE",
"551 1457 LINE",
"273 1456 LINE",
"-52 -417 LINE",
"240 -417 LINE",
"294 -148 LINE"
);
},
{
closed = 1;
nodes = (
"927 1231 OFFCURVE",
"984 1143 OFFCURVE",
"992 1024 CURVE SMOOTH",
"1003 872 OFFCURVE",
"978 649 OFFCURVE",
"847 478 CURVE SMOOTH",
"716 306 OFFCURVE",
"520 182 OFFCURVE",
"320 99 CURVE",
"511 1127 LINE",
"600 1200 OFFCURVE",
"688 1236 OFFCURVE",
"776 1234 CURVE SMOOTH"
);
}
);
width = 1328;
}
);
note = uni01F7;
unicode = 01F7;
},
{
glyphname = uni021C;
lastChange = "2017-05-19 14:51:26 +0000";
layers = (
{
layerId = "3E4CAA31-52BF-436B-A4FF-501363857ACF";
paths = (
{
closed = 1;
nodes = (
"1075 471 OFFCURVE",
"1040 587 OFFCURVE",
"944 666 CURVE",
"1081 781 OFFCURVE",
"1156 915 OFFCURVE",
"1169 1069 CURVE SMOOTH",
"1184 1258 OFFCURVE",
"1086 1375 OFFCURVE",
"938 1432 CURVE SMOOTH",
"789 1488 OFFCURVE",
"613 1492 OFFCURVE",
"449 1432 CURVE SMOOTH",
"284 1372 OFFCURVE",
"161 1249 OFFCURVE",
"150 1061 CURVE",
"443 1062 LINE",
"454 1121 OFFCURVE",
"483 1165 OFFCURVE",
"531 1194 CURVE SMOOTH",
"626 1252 OFFCURVE",
"767 1250 OFFCURVE",
"836 1183 CURVE SMOOTH",
"904 1115 OFFCURVE",
"883 938 OFFCURVE",
"780 828 CURVE SMOOTH",
"676 718 OFFCURVE",
"522 648 OFFCURVE",
"362 599 CURVE SMOOTH",
"144 532 LINE",
"126 302 LINE",
"371 362 OFFCURVE",
"580 437 OFFCURVE",
"754 527 CURVE",
"775 505 OFFCURVE",
"786 478 OFFCURVE",
"785 446 CURVE SMOOTH",
"782 283 OFFCURVE",
"726 155 OFFCURVE",
"619 61 CURVE SMOOTH",
"458 -80 OFFCURVE",
"223 -153 OFFCURVE",
"19 -196 CURVE",
"-6 -437 LINE",
"215 -405 OFFCURVE",
"467 -338 OFFCURVE",
"679 -217 CURVE SMOOTH",
"891 -96 OFFCURVE",
"1043 86 OFFCURVE",
"1066 350 CURVE SMOOTH"
);
}
);
width = 1196;
}
);
note = uni021C;
unicode = 021C;
},
{
glyphname = uni021D;
lastChange = "2017-05-19 14:51:26 +0000";
layers = (
{
layerId = "3E4CAA31-52BF-436B-A4FF-501363857ACF";
paths = (
{
closed = 1;
nodes = (
"872 310 OFFCURVE",
"840 400 OFFCURVE",
"766 464 CURVE",
"877 562 OFFCURVE",
"937 672 OFFCURVE",
"944 795 CURVE SMOOTH",
"953 946 OFFCURVE",
"861 1032 OFFCURVE",
"736 1071 CURVE SMOOTH",
"611 1110 OFFCURVE",
"476 1115 OFFCURVE",
"341 1069 CURVE SMOOTH",
"206 1023 OFFCURVE",
"105 925 OFFCURVE",
"97 770 CURVE",
"381 772 LINE",
"401 852 OFFCURVE",
"472 888 OFFCURVE",
"552 885 CURVE SMOOTH",
"716 882 OFFCURVE",
"671 664 OFFCURVE",
"549 566 CURVE SMOOTH",
"427 468 OFFCURVE",
"253 413 OFFCURVE",
"126 372 CURVE",
"106 160 LINE",
"299 206 OFFCURVE",
"460 265 OFFCURVE",
"589 337 CURVE",
"598 299 OFFCURVE",
"599 258 OFFCURVE",
"591 213 CURVE SMOOTH",
"574 124 OFFCURVE",
"534 52 OFFCURVE",
"473 -2 CURVE SMOOTH",
"349 -110 OFFCURVE",
"175 -168 OFFCURVE",
"24 -219 CURVE",
"3 -437 LINE",
"175 -406 OFFCURVE",
"378 -352 OFFCURVE",
"551 -256 CURVE SMOOTH",
"723 -160 OFFCURVE",
"848 -16 OFFCURVE",
"863 193 CURVE SMOOTH"
);
}
);
width = 1006;
}
);
note = uni021D;
unicode = 021D;
},
